
<svg version="1.0" xmlns="http://www.w3.org/2000/svg"
 width="32px" height="32px" viewBox="0 0 250.000000 260.000000"
 preserveAspectRatio="xMidYMid meet">

<g transform="translate(0.000000,260.000000) scale(0.100000,-0.100000)"
fill="#000000" stroke="none">
<path d="M1116 1959 l-26 -20 0 -395 0 -395 -192 169 c-106 93 -201 171 -211
175 -41 15 -86 -30 -72 -72 3 -11 104 -106 225 -211 l219 -192 -107 -95 c-59
-52 -155 -135 -214 -186 -125 -109 -139 -127 -117 -165 10 -18 24 -28 44 -30
26 -2 56 20 225 168 l195 170 3 -395 2 -395 25 -16 c14 -9 34 -14 47 -10 36 9
528 507 528 534 0 25 -6 31 -272 265 l-177 155 219 192 c212 186 230 204 230
238 0 27 -511 532 -538 532 -5 0 -21 -9 -36 -21z m424 -522 c-3 -2 -78 -67
-167 -146 l-163 -142 0 313 0 313 167 -167 c92 -92 165 -169 163 -171z m-170
-692 c69 -59 135 -118 147 -129 l23 -21 -165 -165 -165 -165 0 309 c0 293 1
308 18 294 9 -8 73 -63 142 -123z"/>
</g>
</svg>
