
<svg  xmlns="http://www.w3.org/2000/svg"
 width="32px" height="32px" viewBox="0 0 250.000000 260.000000"
 preserveAspectRatio="xMidYMid meet">

<g transform="translate(0.000000,260.000000) scale(0.100000,-0.100000)"
fill="#000000" stroke="none">
<path d="M583 1842 c-72 -26 -119 -59 -154 -112 -60 -90 -60 -89 -57 -736 l3
-589 28 -57 c35 -71 88 -120 161 -147 52 -19 77 -21 285 -21 l229 0 -35 60
-36 60 -184 0 c-232 0 -272 13 -314 105 -17 37 -19 75 -19 508 l0 467 720 0
720 0 0 -83 0 -84 40 -18 c22 -10 45 -24 51 -32 6 -7 16 -13 21 -13 6 0 8 93
6 238 -3 231 -4 238 -29 292 -33 70 -79 116 -149 149 l-55 26 -590 2 c-547 2
-594 1 -642 -15z m1232 -121 c71 -33 115 -102 115 -181 l0 -40 -720 0 -720 0
0 40 c0 79 44 148 115 181 37 17 77 19 605 19 528 0 568 -2 605 -19z"/>
<path d="M1540 1130 c-164 -30 -308 -135 -383 -278 -114 -216 -79 -459 91
-632 324 -328 880 -122 919 340 13 150 -60 332 -172 433 -48 44 -144 99 -201
117 -75 23 -191 32 -254 20z m426 -298 c22 -15 34 -50 25 -74 -5 -13 -110
-123 -233 -245 -167 -167 -230 -223 -248 -223 -31 0 -250 216 -250 246 0 31
37 64 71 64 25 0 46 -14 105 -72 l74 -72 193 192 c164 163 198 192 223 192 16
0 34 -4 40 -8z"/>
</g>
</svg>
