
<svg version="1.0" xmlns="http://www.w3.org/2000/svg"
 width="32px" height="32px" viewBox="0 0 250.000000 260.000000"
 preserveAspectRatio="xMidYMid meet">

<g transform="translate(0.000000,260.000000) scale(0.100000,-0.100000)"
fill="#000000" stroke="none">
<path d="M600 1738 c-168 -66 -315 -130 -328 -141 l-22 -20 0 -677 c0 -735 -1
-720 55 -720 13 0 153 77 310 171 189 112 294 169 306 166 17 -5 19 1 19 71 1
43 6 97 12 122 7 28 14 222 17 520 l6 475 238 -93 237 -94 0 -129 0 -129 26
10 c14 6 41 10 60 10 l34 0 0 119 0 119 238 94 237 93 3 -278 2 -278 60 -58
60 -59 0 389 0 390 -25 25 c-19 19 -31 23 -48 18 -12 -3 -149 -57 -304 -119
l-283 -113 -282 113 c-156 62 -292 115 -303 119 -13 4 -128 -37 -325 -116z
m250 -567 l0 -538 -231 -139 c-128 -77 -236 -140 -240 -142 -5 -2 -9 259 -9
580 l0 584 238 96 c130 53 238 97 240 97 1 1 2 -241 2 -538z"/>
<path d="M1540 1130 c-164 -30 -308 -135 -383 -278 -114 -216 -79 -459 91
-632 324 -328 880 -122 919 340 13 150 -60 332 -172 433 -48 44 -144 99 -201
117 -75 23 -191 32 -254 20z m124 -251 l26 -20 0 -171 0 -171 74 71 c57 56 80
72 102 72 35 0 47 -8 63 -37 7 -14 8 -30 2 -45 -5 -13 -70 -83 -143 -155 -97
-96 -141 -133 -158 -133 -31 0 -310 276 -310 306 0 31 37 64 71 64 25 0 46
-14 105 -72 l74 -71 0 169 c0 93 4 174 8 180 7 11 42 33 53 34 4 0 18 -9 33
-21z"/>
</g>
</svg>
