
<svg  xmlns="http://www.w3.org/2000/svg"
 width="32px" height="32px" viewBox="0 0 250.000000 260.000000"
 preserveAspectRatio="xMidYMid meet">

<g transform="translate(0.000000,260.000000) scale(0.100000,-0.100000)"
fill="#000000" stroke="none">
<path d="M443 1845 c-62 -26 -73 -61 -73 -223 0 -232 10 -242 240 -242 232 0
240 8 240 237 0 226 -17 243 -242 243 -91 -1 -143 -5 -165 -15z m287 -225 l0
-120 -120 0 -120 0 0 120 0 120 120 0 120 0 0 -120z"/>
<path d="M996 1719 c-30 -24 -34 -59 -8 -82 17 -15 68 -17 525 -17 l506 0 15
22 c22 31 20 45 -9 73 l-24 25 -489 0 c-480 0 -490 0 -516 -21z"/>
<path d="M443 1245 c-62 -26 -73 -61 -73 -223 0 -232 10 -242 240 -242 232 0
240 8 240 237 0 226 -17 243 -242 243 -91 -1 -143 -5 -165 -15z m287 -225 l0
-120 -120 0 -120 0 0 120 0 120 120 0 120 0 0 -120z"/>
<path d="M1005 1128 c-40 -22 -47 -64 -17 -91 17 -15 68 -17 525 -17 l506 0
15 22 c23 32 20 54 -10 77 -26 21 -36 21 -513 21 -343 -1 -492 -4 -506 -12z"/>
<path d="M443 645 c-62 -26 -73 -61 -73 -223 0 -232 10 -242 239 -242 167 0
191 6 222 57 19 30 20 46 17 192 -3 176 -8 189 -75 217 -45 19 -286 18 -330
-1z m287 -225 l0 -120 -120 0 -120 0 0 120 0 120 120 0 120 0 0 -120z"/>
<path d="M1005 528 c-40 -22 -47 -64 -17 -91 17 -15 68 -17 525 -17 l506 0 15
22 c23 32 20 54 -10 77 -26 21 -36 21 -513 21 -343 -1 -492 -4 -506 -12z"/>
</g>
</svg>
