
<svg  xmlns="http://www.w3.org/2000/svg"
 width="32px" height="32px" viewBox="0 0 250.000000 260.000000"
 preserveAspectRatio="xMidYMid meet">

<g transform="translate(0.000000,260.000000) scale(0.100000,-0.100000)"
fill="#000000" stroke="none">
<path d="M463 1722 c-72 -26 -119 -59 -154 -112 -59 -88 -60 -101 -57 -617 l3
-468 28 -57 c35 -71 88 -120 161 -147 52 -19 76 -21 310 -21 l254 0 -24 58
-23 57 -233 5 c-245 5 -267 9 -310 57 -47 51 -48 66 -48 541 l0 448 26 51 c20
42 35 57 77 77 l51 26 686 0 686 0 51 -26 c42 -20 57 -35 77 -77 25 -48 26
-59 26 -209 l0 -158 61 -60 60 -59 -3 237 c-3 231 -4 238 -29 292 -33 70 -79
116 -149 149 l-55 26 -710 2 c-662 2 -714 1 -762 -15z"/>
<path d="M1540 1130 c-164 -30 -308 -135 -383 -278 -114 -216 -79 -459 91
-632 324 -328 880 -122 919 340 13 150 -60 332 -172 433 -48 44 -144 99 -201
117 -75 23 -191 32 -254 20z m247 -352 c69 -68 131 -135 139 -150 24 -45 -10
-98 -63 -98 -9 0 -53 35 -95 77 l-78 78 0 -171 c0 -137 -3 -174 -16 -192 -18
-26 -60 -29 -86 -5 -16 14 -18 34 -18 191 l0 175 -79 -76 c-86 -84 -107 -92
-146 -52 -43 42 -35 58 113 206 180 182 163 181 329 17z"/>
</g>
</svg>
