<svg  xmlns="http://www.w3.org/2000/svg"
 width="32px" height="32px" viewBox="0 0 250.000000 260.000000"
 preserveAspectRatio="xMidYMid meet">

<g transform="translate(0.000000,260.000000) scale(0.100000,-0.100000)"
fill="#000000" stroke="none">
<path d="M417 1724 c-64 -20 -129 -84 -151 -151 -15 -45 -16 -107 -14 -574 3
-515 3 -525 25 -564 28 -52 68 -89 123 -114 43 -20 63 -21 573 -21 582 0 568
-1 636 63 18 18 44 55 57 82 20 43 24 65 24 158 0 59 2 107 5 107 3 0 67 -47
143 -103 75 -57 147 -109 159 -115 31 -17 80 -15 114 5 59 35 59 39 59 520 0
397 -2 441 -18 472 -22 44 -80 75 -122 66 -17 -4 -100 -58 -183 -120 l-152
-113 -5 116 c-6 135 -26 191 -88 242 -71 59 -86 60 -636 59 -413 0 -509 -3
-549 -15z m1078 -118 c19 -8 44 -30 55 -48 19 -32 20 -49 20 -543 0 -487 -1
-511 -19 -539 -38 -57 -24 -55 -579 -56 -567 0 -555 -1 -586 64 -14 30 -16 92
-16 538 0 487 1 504 20 536 38 61 35 61 578 62 407 0 499 -3 527 -14z m555
-592 l0 -416 -38 29 c-21 15 -102 75 -180 133 l-141 105 -1 151 0 152 173 130
c94 72 175 131 180 131 4 1 7 -186 7 -415z"/>
</g>
</svg>
