<svg version="1.0" xmlns="http://www.w3.org/2000/svg" width="32px" height="32px" viewBox="0 0 250.000000 260.000000" preserveAspectRatio="xMidYMid meet">
    <g transform="translate(0.000000,260.000000) scale(0.100000,-0.100000)" fill="#000000" stroke="none">
    <path d="M1045 1970 c-141 -17 -287 -73 -412 -158 -103 -70 -230 -218 -290
    -337 -35 -69 -72 -202 -84 -300 -18 -157 10 -332 76 -472 115 -246 307 -409
    572 -489 79 -24 105 -27 243 -27 140 0 164 2 243 26 333 102 573 362 638 692
    20 104 16 282 -10 383 -23 92 -82 226 -131 297 -122 177 -344 327 -547 369
    -94 19 -214 26 -298 16z m303 -141 c40 -10 114 -40 165 -65 75 -39 109 -64
    182 -138 100 -101 145 -170 186 -285 93 -264 42 -547 -137 -765 -69 -84 -153
    -146 -270 -202 -183 -88 -390 -99 -574 -32 -141 51 -268 139 -352 242 -310
    385 -193 956 241 1180 183 94 363 115 559 65z"/>
    <path d="M1080 1607 c-118 -33 -211 -135 -226 -250 -8 -59 13 -97 55 -97 36 0
    57 25 64 77 8 65 40 108 103 139 64 31 102 29 169 -10 71 -42 104 -137 72
    -208 -7 -15 -48 -65 -92 -110 -97 -100 -128 -158 -133 -251 -5 -81 12 -117 57
    -117 40 0 61 28 61 82 0 90 9 108 100 203 113 117 134 157 135 255 0 60 -5 85
    -25 123 -64 126 -215 199 -340 164z"/>
    <path d="M1113 675 c-60 -26 -71 -89 -24 -136 40 -39 82 -39 122 0 48 48 36
    111 -26 137 -40 16 -32 17 -72 -1z"/>
    </g>
</svg>