
<svg version="1.0" xmlns="http://www.w3.org/2000/svg"
 width="32px" height="32px" viewBox="0 0 467.000000 363.000000"
 preserveAspectRatio="xMidYMid meet">

<g transform="translate(0.000000,363.000000) scale(0.100000,-0.100000)"
fill="#000000" stroke="none">
<path d="M930 3304 c-8 -3 -40 -17 -70 -31 -62 -30 -193 -157 -216 -211 -33
-79 -38 -241 -39 -1197 l0 -940 33 -56 c45 -79 130 -164 178 -180 27 -8 154
-13 419 -16 359 -5 382 -4 402 14 11 10 24 34 27 54 12 72 -28 84 -329 99 -99
4 -241 15 -315 24 -74 9 -136 16 -138 16 -1 0 -23 19 -47 41 l-45 42 0 408 c0
315 3 410 13 416 6 4 50 20 97 36 l85 29 445 7 c444 7 446 7 483 30 41 25 110
111 122 151 4 14 10 228 14 475 l6 450 29 65 c15 36 33 71 39 78 8 10 90 12
406 10 l396 -3 43 -35 c30 -25 46 -48 56 -82 14 -44 36 -281 55 -570 11 -170
21 -194 84 -184 23 4 52 17 66 29 l23 22 -6 230 c-13 432 -22 563 -41 592 -40
60 -103 117 -160 144 l-60 28 -465 11 c-466 10 -1562 13 -1590 4z m773 -190
c34 -5 56 -16 90 -48 42 -39 45 -45 53 -111 5 -38 9 -225 8 -415 0 -346 -8
-434 -38 -459 -25 -21 -288 -33 -571 -27 -367 7 -359 6 -410 79 l-40 59 -9
335 c-6 245 -6 344 3 371 13 43 141 191 180 209 28 13 647 19 734 7z"/>
<path d="M3057 1876 c-27 -7 -61 -23 -75 -35 -33 -26 -47 -32 -148 -65 -90
-29 -165 -34 -183 -12 -6 8 -26 20 -44 27 -18 7 -50 25 -72 41 -77 54 -211 56
-263 4 -26 -25 -27 -31 -33 -179 -4 -83 -11 -163 -17 -177 -13 -34 -87 -117
-131 -146 -140 -95 -182 -136 -191 -185 -8 -41 -6 -44 34 -84 22 -23 55 -49
71 -60 17 -10 37 -24 45 -31 8 -7 35 -30 59 -51 53 -46 108 -130 121 -186 5
-23 10 -87 11 -142 0 -55 4 -111 8 -124 12 -43 54 -65 135 -69 86 -5 137 16
180 72 47 62 74 70 205 62 105 -6 120 -10 166 -38 27 -16 64 -43 80 -58 17
-16 48 -35 71 -43 38 -13 45 -12 91 8 42 19 52 29 66 66 10 25 17 73 17 109 0
73 34 206 60 235 10 11 25 34 33 51 28 55 107 123 162 139 28 8 74 32 102 53
47 34 52 40 52 77 0 35 -5 45 -44 78 -24 21 -60 43 -80 50 -76 26 -233 196
-254 274 -6 21 -15 80 -21 132 -13 119 -41 172 -107 201 -52 23 -44 22 -106 6z
m-262 -537 c58 -10 66 -14 111 -66 43 -50 48 -62 52 -113 5 -63 -1 -77 -59
-156 -29 -40 -45 -53 -71 -56 -41 -6 -97 8 -124 33 -11 10 -25 19 -30 19 -5 0
-30 21 -56 48 -52 53 -64 95 -49 163 12 52 74 118 122 129 19 4 36 8 38 9 2 1
32 -4 66 -10z"/>
</g>
</svg>
