<svg version="1.0" xmlns="http://www.w3.org/2000/svg" width="32" height="32" viewBox="0 0 250 260"><path d="M51.5 67.8C44.9 71 39 76.8 39 80.3c0 1.2.9 4.5 2 7.4 2.3 6.1 2 6.4-6.1 8.2-8 1.7-9.3 3.5-9.7 13.6-.6 12.3 1.6 15.6 10.9 17 7.3 1.1 7.7 1.6 5.6 7.3-3.4 9.8-2.3 12.5 7.1 18.2 9.6 5.7 12.8 5.5 19-1 2.6-2.7 5.2-5 5.7-5s2.7 2 5 4.4c5.5 6 8.2 6.6 15.6 3.1 7-3.4 11.6-7.4 12.5-10.8.3-1.6-.2-4.8-1.5-8.2-1.2-3.1-1.9-6-1.6-6.5.3-.4 2.9-1.3 5.7-2 2.9-.7 6.3-1.8 7.5-2.6 3.1-1.9 4.6-7.6 4.1-15.3-.7-10-2.7-12.2-12.2-13.6-2.7-.4-5-1.4-5.3-2.2-.3-.8.3-3.9 1.3-6.9 1.3-4 1.6-6.1.8-8.1-1.9-5.5-15.5-13.2-20.9-11.9-1.4.4-4.7 2.9-7.3 5.7l-4.8 5.1-5-5.1c-6.3-6.5-8.4-6.9-15.9-3.3zm16.3 18.9c5.2 2.2 9.6.9 15.2-4.3 4.5-4.2 4.9-4.4 7.5-3.2 2.2 1 2.5 1.6 2 3.7-.3 1.5-.9 5.1-1.2 8.2-.5 5.2-.3 5.8 2.6 9.2 3 3.3 5.6 4.6 12.4 6.1 2.3.5 2.7 1.1 2.7 4 0 3.1-.3 3.4-3.7 4.1-11.2 2.1-16.3 10.1-12.9 20.1.9 2.6 1.6 4.8 1.6 5 0 .1-1.2.9-2.6 1.9-2.6 1.7-2.7 1.6-6.3-1.8-4.9-4.7-7.1-5.7-12.7-5.7-4.3 0-5.1.4-9.5 4.8l-4.9 4.9-3-1.8c-2.9-1.8-2.9-1.9-1.5-5.3 2.1-5 1.9-10.3-.6-14.3-2.4-3.9-6-6-11.8-6.9-3.9-.6-4.1-.8-4.1-4.3s.1-3.7 5.2-4.9c9.8-2.3 14.5-9.9 11.4-18.8-2.1-6.1-2.1-6.1 1.2-7.8 2.6-1.4 2.8-1.4 6.1 2.1 1.9 1.9 5 4.2 6.9 5z"/><path d="M68.5 100.4c-10.1 4.4-7.9 19.9 3 21.2 12.6 1.6 17.4-15.6 5.9-21.1-3.8-1.8-5-1.8-8.9-.1zM150.5 135c-7.4 1-9.9 3.5-11.5 11.7-1.7 8.8-2.5 10.3-5.9 10.3-1.6 0-4.8-.9-7.2-2-9.4-4.2-14.8-1.4-21.4 11.1-5.6 10.6-5.2 12.9 2.9 20.5 3.6 3.4 6.6 6.8 6.6 7.7 0 .8-1.4 2.8-3.2 4.4-9.3 8.3-9.8 8.9-9.8 13.2 0 6.9 8.5 21.2 13.8 23.2 2.2.9 4.2.6 10.9-1.7 7.9-2.7 8.3-2.7 10.2-1 1.2 1.1 2.2 3.8 2.6 6.9 1.7 12.1 4.9 14.7 18.5 14.7 8.2 0 13.4-1.4 15.8-4.2.7-.9 1.9-4.8 2.6-8.8 2.1-10.6 2.8-11.1 12.6-7.6 7.1 2.5 8.4 2.7 11 1.6 3.9-1.6 8.2-7.1 12.1-15.4 2.8-5.9 3-6.9 1.9-10.1-.8-2.4-2.9-4.9-6-7.3-8.3-6.4-8.5-10.3-.7-15.1 9.3-5.7 9.1-13.5-.4-27.1-5.2-7.4-8.1-8.3-16.8-5.1-6.4 2.3-10.6 2.7-11.7 1-.4-.7-1.3-4.3-2-8.2-1.4-7.1-3.3-10.3-6.9-11.7-3.6-1.3-11.9-1.8-18-1zm12.9 13.7c.2 1 .7 3.6 1.1 5.9 1.8 11.9 12.4 17.4 25 12.9 5.8-2.1 6.1-2 9.1 3.1l2.7 4.6-5.6 5.3c-10 9.6-10 17.4-.1 27.4l5.3 5.3-1.9 3.7c-3.6 6.7-3.1 6.5-10.5 4-6-2-7.2-2.1-11.4-1-7.7 2-11.8 7.7-13.6 18.3l-.6 3.8h-11.8l-.6-3.8c-2-11.4-5.2-16.1-12.7-18.4-4-1.2-6.9-.7-17.4 2.7-1.7.5-2.5-.2-4.7-4.4l-2.8-5 6-5.8c4.5-4.4 6.1-6.7 6.7-9.6 1.1-6.3-1.1-11.5-7.3-17.4-6-5.6-6-5.6-1.2-12.5l1.9-2.6 5 1.9c9.9 3.7 18.7 1.8 22.9-5.2 1-1.7 2.4-5.7 3-9l1.2-5.9h5.9c4.7 0 6 .3 6.4 1.7z"/><path d="M147.9 176c-12.7 6.7-15.1 24-4.7 33.7 2.7 2.6 9.8 5.3 13.8 5.3s11.1-2.7 13.8-5.3c2.8-2.6 5.7-8 6.7-12.4 1.6-7.6-4.1-18-11.9-21.7-4.6-2.2-13.2-2-17.7.4zm15.1 12.5c3.1 3.3 3.2 8.7.2 11.7-3 3.1-9.4 3.1-12.4 0-5.1-5.1-1.1-14.2 6.2-14.2 2.6 0 4.3.7 6 2.5z"/></svg>