<svg version="1.0" xmlns="http://www.w3.org/2000/svg" width="32px" height="32px" viewBox="0 0 250.000000 260.000000" preserveAspectRatio="xMidYMid meet">
    <g transform="translate(0.000000,260.000000) scale(0.100000,-0.100000)"
    fill="#000000" stroke="none">
    <path d="M1180 1966 c-175 -38 -315 -202 -327 -386 l-6 -80 -263 0 c-279 0
    -303 -4 -323 -47 -8 -16 -11 -183 -11 -539 0 -565 0 -562 59 -597 26 -15 65
    -17 345 -17 l316 0 0 -60 0 -60 -69 0 c-87 0 -126 -14 -151 -55 -42 -68 -53
    -65 280 -65 333 0 322 -3 280 65 -25 41 -64 55 -151 55 l-69 0 0 60 0 60 315
    0 c334 0 350 2 382 49 16 23 19 65 23 410 l5 385 48 12 c106 27 216 119 263
    218 75 161 46 341 -76 470 -56 59 -151 111 -229 126 -75 14 -572 11 -641 -4z
    m508 -409 c-3 -250 -5 -292 -18 -294 -8 -2 -58 31 -110 72 -94 73 -96 74 -160
    77 l-65 3 -3 134 c-2 90 1 138 9 147 7 9 32 14 71 14 58 0 60 1 155 74 53 41
    102 72 110 69 11 -4 13 -58 11 -296z m-769 -227 c72 -112 189 -179 326 -188
    l85 -5 0 -107 c0 -114 9 -138 48 -126 10 3 69 58 132 121 99 101 117 115 147
    115 l33 0 0 -360 0 -360 -660 0 -660 0 0 480 0 480 258 0 259 0 32 -50z"/>
    </g>
</svg>
