<svg version="1.0" xmlns="http://www.w3.org/2000/svg" width="32px" height="32px" viewBox="0 0 250.000000 260.000000" preserveAspectRatio="xMidYMid meet">
    <g transform="translate(0.000000,260.000000) scale(0.100000,-0.100000)"
    fill="#000000" stroke="none">
        <path d="M542 1729 c-106 -21 -207 -101 -259 -206 l-28 -58 0 -445 0 -445 31
        -65 c49 -101 121 -163 224 -194 47 -14 139 -16 700 -16 561 0 653 2 700 16
        103 31 175 93 224 194 l31 65 0 445 0 445 -28 58 c-54 109 -152 185 -267 207
        -64 12 -1266 12 -1328 -1z m1336 -124 c35 -11 65 -29 96 -61 74 -74 76 -87 76
        -532 0 -266 -4 -397 -12 -424 -15 -51 -77 -121 -131 -147 -43 -21 -55 -21
        -697 -21 -642 0 -654 0 -697 21 -54 26 -116 96 -131 147 -8 27 -12 159 -12
        429 0 445 1 452 77 528 75 75 56 74 759 74 528 1 628 -1 672 -14z"/>
        <path d="M794 1356 c-138 -60 -216 -268 -169 -449 49 -190 179 -279 338 -233
        91 26 148 89 119 132 -4 6 -17 16 -30 23 -20 10 -30 8 -76 -18 -94 -54 -166
        -32 -215 64 -22 42 -26 63 -26 135 0 103 21 166 71 210 46 40 112 42 166 5 44
        -30 79 -32 101 -7 38 41 7 95 -76 132 -50 23 -156 26 -203 6z"/>
        <path d="M1445 1351 c-23 -10 -60 -39 -83 -66 -160 -182 -98 -538 106 -611 80
        -28 193 -5 250 52 39 39 40 68 0 97 l-26 20 -55 -32 c-65 -37 -111 -40 -157
        -8 -108 72 -120 310 -20 409 33 34 43 38 87 38 35 0 58 -7 86 -26 48 -32 86
        -29 107 8 13 25 13 31 0 54 -8 15 -39 40 -69 55 -66 36 -161 40 -226 10z"/>
    </g>
</svg>