
<svg version="1.0" xmlns="http://www.w3.org/2000/svg" width="32px" height="32px" viewBox="0 0 250.000000 260.000000" preserveAspectRatio="xMidYMid meet">
<g transform="translate(0.000000,260.000000) scale(0.100000,-0.100000)" fill="#000000" stroke="none">
    <path d="M583 1842 c-72 -26 -119 -59 -154 -112 -60 -90 -60 -89 -57 -736 l3
    -589 28 -57 c35 -71 88 -120 161 -147 52 -19 77 -21 285 -21 l229 0 -35 60
    -36 60 -184 0 c-232 0 -272 13 -314 105 -17 37 -19 75 -19 508 l0 467 720 0
    720 0 0 -83 0 -84 40 -18 c22 -10 45 -24 51 -32 6 -7 16 -13 21 -13 6 0 8 93
    6 238 -3 231 -4 238 -29 292 -33 70 -79 116 -149 149 l-55 26 -590 2 c-547 2
    -594 1 -642 -15z m1232 -121 c71 -33 115 -102 115 -181 l0 -40 -720 0 -720 0
    0 40 c0 79 44 148 115 181 37 17 77 19 605 19 528 0 568 -2 605 -19z"/>
    <path d="M1540 1130 c-213 -39 -385 -202 -435 -411 -66 -282 109 -571 392
    -644 375 -98 739 247 659 623 -53 251 -246 419 -498 436 -40 3 -93 1 -118 -4z
    m124 -251 c25 -20 26 -24 26 -120 l0 -99 64 0 c96 0 140 -42 100 -98 -14 -21
    -23 -22 -131 -22 -158 0 -153 -6 -153 174 0 78 4 146 8 152 7 11 42 33 53 34
    4 0 18 -9 33 -21z"/>
</g>
</svg>
