<svg version="1.0" xmlns="http://www.w3.org/2000/svg" width="32px" height="32px" viewBox="0 0 250.000000 260.000000" preserveAspectRatio="xMidYMid meet">
    <g transform="translate(0.000000,260.000000) scale(0.100000,-0.100000)" fill="#000000" stroke="none">
        <path d="M1680 1958 c-24 -13 -58 -40 -74 -61 l-31 -39 -3 -288 c-3 -270 -2
        -292 17 -327 34 -68 95 -103 176 -103 l45 0 0 -524 0 -525 22 -15 c30 -21 54
        -20 78 4 19 19 20 33 20 540 l0 520 48 0 c51 0 117 26 144 56 44 50 48 81 48
        359 0 284 -4 310 -53 364 -46 50 -90 61 -247 61 -132 0 -150 -2 -190 -22z
        m345 -123 c17 -16 25 -35 25 -60 l0 -35 -180 0 -180 0 0 39 c0 31 6 44 26 60
        24 19 40 21 156 21 124 0 130 -1 153 -25z m25 -373 c0 -214 10 -202 -177 -202
        -122 0 -149 3 -165 17 -16 14 -18 34 -18 180 l0 163 180 0 180 0 0 -158z"/>
        <path d="M418 1844 c-30 -9 -63 -30 -92 -60 -76 -76 -76 -74 -76 -652 0 -358
        3 -516 12 -544 15 -51 77 -121 131 -147 40 -19 61 -21 250 -21 l207 0 0 -120
        0 -120 -94 0 c-79 0 -97 -3 -120 -21 -31 -24 -33 -52 -6 -79 19 -19 33 -20
        540 -20 l520 0 0 60 0 60 -60 0 -60 0 0 120 0 120 60 0 60 0 0 60 0 60 -615 0
        c-681 0 -657 -2 -689 64 -14 30 -16 92 -16 538 0 487 1 504 20 536 38 62 39
        62 575 62 l485 0 0 60 0 60 -492 -1 c-399 0 -502 -3 -540 -15z m1032 -1544 l0
        -120 -240 0 -240 0 0 120 0 120 240 0 240 0 0 -120z"/>
    </g>
</svg>