<svg version="1.0" xmlns="http://www.w3.org/2000/svg" width="32px" height="32px" viewBox="0 0 250.000000 260.000000" preserveAspectRatio="xMidYMid meet">
<g transform="translate(0.000000,260.000000) scale(0.100000,-0.100000)" fill="#000000" stroke="none">
    <path d="M693 1958 c-17 -20 -145 -338 -391 -977 -53 -135 -55 -145 -41 -170
    18 -33 68 -40 91 -14 8 10 40 83 71 163 l55 145 253 0 252 0 24 -65 c14 -36
    26 -66 27 -68 2 -1 17 34 34 78 l32 81 -156 402 c-86 221 -166 412 -177 425
    -11 12 -28 22 -37 22 -9 0 -26 -10 -37 -22z m134 -456 c51 -130 95 -245 99
    -254 6 -17 -8 -18 -196 -18 -112 0 -200 4 -198 9 83 220 194 501 198 501 3 0
    46 -107 97 -238z"/>
    <path d="M1413 1598 c-11 -13 -138 -336 -281 -718 l-260 -695 -57 -5 c-61 -6
    -85 -24 -85 -66 0 -44 33 -54 180 -54 106 0 140 3 158 16 42 29 22 89 -34 100
    -20 4 -33 11 -31 18 2 6 32 86 67 179 l63 167 321 0 321 0 64 -168 c35 -92 66
    -172 68 -178 2 -6 -12 -14 -32 -17 -48 -8 -65 -23 -65 -58 0 -50 27 -59 182
    -59 125 0 140 2 158 20 44 44 15 92 -60 100 l-51 5 -270 705 c-148 388 -277
    711 -286 718 -25 18 -47 15 -70 -10z m291 -873 l24 -60 -271 -3 c-148 -1 -272
    -1 -274 1 -3 4 253 692 264 711 3 4 57 -126 120 -290 62 -165 124 -326 137
    -359z"/>
    </g>
</svg>