<svg version="1.0" xmlns="http://www.w3.org/2000/svg" width="32px" height="32px" viewBox="0 0 250.000000 260.000000" preserveAspectRatio="xMidYMid meet">
    <g transform="translate(0.000000,260.000000) scale(0.100000,-0.100000)" fill="#000000" stroke="none">
    <path d="M785 1943 c-104 -36 -169 -79 -244 -159 -70 -75 -133 -196 -152 -292
    -15 -82 -6 -231 19 -302 l19 -55 -35 -80 c-61 -143 -142 -344 -142 -354 0 -16
    30 -41 50 -41 10 0 84 28 164 61 l146 62 0 63 c0 35 -2 64 -4 64 -3 0 -41 -15
    -85 -34 -45 -19 -81 -31 -81 -28 0 4 26 70 58 146 l58 140 -28 80 c-82 238 21
    488 245 595 198 94 434 39 569 -133 41 -52 66 -63 151 -65 l28 -1 -33 62 c-61
    116 -189 220 -331 270 -46 16 -92 23 -177 25 -105 3 -122 1 -195 -24z"/>
    <path d="M1232 1480 c-164 -43 -330 -164 -409 -300 -116 -197 -124 -437 -22
    -640 144 -288 487 -428 795 -326 l80 27 60 -26 c176 -79 380 -156 400 -151 44
    11 38 38 -57 267 l-91 221 21 65 c75 228 40 439 -104 631 -148 197 -432 295
    -673 232z m223 -311 c95 -24 95 -25 95 -95 l0 -63 -45 25 c-55 31 -121 36
    -158 11 -22 -14 -27 -25 -27 -58 0 -35 7 -48 64 -108 68 -72 90 -120 79 -172
    -5 -28 -8 -29 -60 -29 -53 0 -55 1 -49 24 10 39 -11 76 -79 146 -71 72 -85
    100 -85 168 0 53 26 104 62 123 67 36 137 46 203 28z m-11 -630 c52 -41 21
    -119 -47 -119 -47 0 -77 24 -77 63 0 37 7 49 35 65 30 17 59 14 89 -9z"/>
    </g>
</svg>