
<svg version="1.0" xmlns="http://www.w3.org/2000/svg"
 width="32px" height="32px" viewBox="0 0 250.000000 260.000000"
 preserveAspectRatio="xMidYMid meet">

<g transform="translate(0.000000,260.000000) scale(0.100000,-0.100000)"
fill="#000000" stroke="none">
<path d="M1110 1960 c-13 -13 -20 -33 -20 -60 0 -33 -4 -40 -22 -44 -170 -33
-237 -57 -341 -126 -112 -74 -212 -182 -267 -290 -34 -66 -70 -177 -77 -238
-3 -30 -11 -55 -17 -57 -6 -2 -28 -6 -48 -10 -44 -7 -68 -28 -68 -59 0 -33 31
-56 80 -59 l44 -3 12 -69 c58 -334 320 -586 667 -640 l37 -6 0 -59 0 -60 -91
0 c-113 0 -148 -16 -149 -67 0 -49 24 -53 300 -53 276 0 300 4 300 53 -1 51
-36 67 -149 67 l-91 0 0 60 0 59 38 6 c234 37 439 168 561 360 47 73 89 185
104 272 12 67 17 78 33 76 10 -1 36 2 56 8 43 11 58 44 40 84 -8 18 -22 25
-64 32 l-53 8 -6 51 c-25 205 -159 411 -346 534 -104 69 -171 93 -340 126 -18
4 -23 11 -23 38 0 39 -33 86 -61 86 -10 0 -28 -9 -39 -20z m81 -243 c76 -50
162 -287 175 -483 l7 -94 -233 0 -233 0 7 88 c16 217 110 463 190 498 42 18
48 17 87 -9z m223 -37 c197 -84 344 -272 385 -492 l8 -48 -158 0 -159 0 0 54
c0 125 -54 357 -109 464 -12 23 -19 42 -17 42 2 0 25 -9 50 -20z m-507 -2
c-64 -145 -101 -295 -113 -451 l-7 -87 -147 0 -147 0 8 46 c38 203 155 371
323 464 76 42 91 47 83 28z m-109 -772 c15 -146 51 -286 96 -375 19 -39 32
-71 28 -71 -18 0 -131 64 -179 102 -126 97 -243 304 -243 430 l0 28 143 0 143
0 12 -114z m572 60 c0 -114 -46 -297 -103 -411 -107 -215 -246 -124 -326 214
-11 46 -23 121 -27 167 l-7 84 232 0 231 0 0 -54z m430 26 c0 -129 -117 -336
-244 -429 -54 -40 -196 -116 -204 -109 -1 2 9 23 23 47 51 90 98 267 110 414
4 44 8 86 10 93 3 9 43 12 155 12 l150 0 0 -28z"/>
</g>
</svg>
