<svg version="1.0" xmlns="http://www.w3.org/2000/svg" width="32px" height="32px" viewBox="0 0 250.000000 260.000000" preserveAspectRatio="xMidYMid meet">
    <g transform="translate(0.000000,260.000000) scale(0.100000,-0.100000)"
    fill="#000000" stroke="none">
    <path d="M964 1961 c-22 -10 -56 -37 -76 -60 l-35 -41 -104 0 c-113 0 -164
    -16 -206 -61 -54 -59 -53 -38 -53 -846 0 -740 0 -747 21 -791 13 -26 38 -54
    62 -70 l41 -27 583 -3 c559 -2 586 -2 628 17 29 13 53 34 72 62 l28 43 3 750
    c2 515 0 763 -8 788 -14 50 -56 97 -105 119 -30 14 -65 19 -144 19 l-104 0
    -35 41 c-62 72 -87 79 -322 79 -178 0 -210 -3 -246 -19z m460 -122 c30 -23 33
    -54 9 -81 -15 -16 -35 -18 -221 -18 -177 0 -208 2 -224 17 -26 23 -22 58 8 82
    25 20 40 21 214 21 174 0 189 -1 214 -21z m-549 -128 c8 -17 32 -43 52 -58
    l36 -28 248 0 c278 0 276 0 328 78 l24 37 97 0 c83 0 101 -3 124 -21 l26 -20
    0 -738 c0 -650 -2 -739 -16 -759 l-15 -22 -569 0 -569 0 -15 22 c-14 20 -16
    109 -16 759 l0 738 26 20 c23 18 41 21 125 21 l98 0 16 -29z"/>
    <path d="M803 1305 c-62 -27 -89 -104 -58 -165 41 -79 169 -79 210 0 32 62 4
    139 -60 166 -42 17 -51 17 -92 -1z"/>
    <path d="M1125 1248 c-40 -22 -47 -64 -17 -91 16 -15 51 -17 285 -17 l267 0
    16 25 c21 32 12 68 -21 83 -35 16 -502 16 -530 0z"/>
    <path d="M803 945 c-38 -16 -73 -68 -73 -108 0 -40 26 -84 60 -102 90 -46 190
    20 177 117 -6 46 -29 75 -74 94 -40 17 -49 17 -90 -1z"/>
    <path d="M1125 888 c-40 -22 -47 -64 -17 -91 16 -15 51 -17 285 -17 l267 0 16
    25 c21 32 12 68 -21 83 -35 16 -502 16 -530 0z"/>
    <path d="M803 585 c-38 -16 -73 -68 -73 -108 0 -40 26 -84 60 -102 90 -46 190
    20 177 117 -6 46 -29 75 -74 94 -40 17 -49 17 -90 -1z"/>
    <path d="M1125 528 c-40 -22 -47 -64 -17 -91 16 -15 51 -17 285 -17 l267 0 16
    25 c21 32 12 68 -21 83 -35 16 -502 16 -530 0z"/>
    </g>
</svg>