<svg version="1.0" xmlns="http://www.w3.org/2000/svg" width="32px" height="32px" viewBox="0 0 250.000000 260.000000" preserveAspectRatio="xMidYMid meet">
    <g transform="translate(0.000000,260.000000) scale(0.100000,-0.100000)"
    fill="#000000" stroke="none">
    <path d="M811 1964 c-122 -33 -227 -122 -285 -244 l-31 -65 -3 -489 c-3 -566
    -1 -594 72 -742 77 -156 218 -278 380 -330 311 -100 648 40 791 328 74 150 76
    176 73 744 l-3 489 -31 65 c-59 124 -163 212 -289 245 -83 21 -594 21 -674 -1z
    m279 -386 c0 -248 2 -284 17 -300 20 -22 61 -23 85 -1 17 15 18 38 18 301 l0
    284 123 -4 c104 -3 130 -8 178 -30 65 -30 115 -78 149 -145 l25 -48 3 -484 c3
    -457 2 -488 -17 -563 -26 -100 -69 -177 -140 -249 -283 -283 -761 -172 -893
    208 -23 68 -23 69 -23 578 l0 510 25 48 c44 86 117 145 207 166 21 5 84 9 141
    10 l102 1 0 -282z"/>
    </g>
</svg>