<svg version="1.0" xmlns="http://www.w3.org/2000/svg" width="32px" height="32px" viewBox="0 0 250.000000 260.000000" preserveAspectRatio="xMidYMid meet">
    <g transform="translate(0.000000,260.000000) scale(0.100000,-0.100000)" fill="#000000" stroke="none">
    <path d="M840 1838 c-24 -13 -58 -40 -74 -61 l-31 -39 -3 -179 -4 -179 -162 0
    c-153 0 -165 -1 -212 -25 -28 -14 -59 -40 -74 -62 l-25 -37 0 -476 0 -476 27
    -41 c16 -24 44 -49 70 -62 44 -21 54 -21 619 -21 653 0 631 -2 686 81 28 42
    28 44 31 221 l3 178 167 0 c214 1 256 17 297 113 23 55 23 909 0 965 -21 49
    -52 81 -100 103 -37 17 -77 19 -605 19 l-566 0 -44 -22z m1185 -123 l25 -24 0
    -433 c0 -376 -2 -436 -16 -456 l-15 -22 -566 0 c-513 0 -568 2 -585 17 -17 15
    -18 43 -18 459 l0 443 26 20 c26 21 35 21 576 21 l549 0 24 -25z m-1295 -682
    c0 -200 3 -233 19 -268 22 -48 44 -69 94 -90 30 -12 94 -15 382 -15 l345 0 0
    -162 c0 -136 -3 -164 -17 -180 -15 -17 -47 -18 -584 -18 l-568 0 -15 22 c-14
    20 -16 80 -16 459 l0 438 26 20 c24 19 40 21 180 21 l154 0 0 -227z"/>
    </g>
</svg>