
<svg version="1.0" xmlns="http://www.w3.org/2000/svg" width="32px" height="32px" viewBox="0 0 250.000000 260.000000" preserveAspectRatio="xMidYMid meet">
    <g transform="translate(0.000000,260.000000) scale(0.100000,-0.100000)"
    fill="#000000" stroke="none">
    <path d="M418 1845 c-30 -10 -63 -32 -92 -61 -78 -77 -76 -59 -76 -778 l0
    -631 24 -50 c25 -55 81 -110 132 -131 26 -11 103 -14 344 -14 l310 0 0 60 0
    60 -300 0 c-334 0 -344 2 -374 64 -14 30 -16 91 -16 525 l0 490 343 3 343 3
    91 58 91 57 351 0 c390 0 404 -2 441 -62 15 -25 20 -50 20 -105 0 -40 3 -73 8
    -73 4 0 30 6 57 13 l50 13 3 53 c5 82 -20 152 -74 205 -73 73 -90 76 -503 76
    l-356 1 -55 75 c-113 156 -117 158 -450 161 -211 2 -274 -1 -312 -12z m572
    -120 c24 -12 96 -96 124 -142 4 -8 -13 -25 -46 -48 l-53 -35 -322 0 -323 0 0
    73 c0 85 22 130 73 152 48 21 506 21 547 0z"/>
    <path d="M1787 1075 c-148 -30 -277 -57 -288 -60 -44 -14 -49 -47 -49 -332 l0
    -268 -58 0 c-75 0 -130 -34 -161 -97 -27 -57 -27 -103 2 -158 66 -132 248
    -132 315 0 21 43 22 54 22 307 l0 263 23 4 c81 18 434 86 445 86 9 0 12 -35
    12 -143 l0 -142 -58 0 c-47 0 -67 -6 -99 -27 -75 -49 -103 -150 -64 -226 68
    -134 255 -134 320 0 20 43 21 58 21 412 0 302 -3 372 -15 395 -27 54 -30 54
    -368 -14z"/>
    </g>
</svg>