<svg version="1.0" xmlns="http://www.w3.org/2000/svg" width="32px" height="32px" viewBox="0 0 250.000000 260.000000" preserveAspectRatio="xMidYMid meet">
    <g transform="translate(0.000000,260.000000) scale(0.100000,-0.100000)" fill="#000000" stroke="none">
    <path d="M1475 1835 c-24 -23 -25 -29 -25 -165 l0 -140 -34 0 c-19 0 -69 -7
    -112 -16 -251 -51 -440 -212 -537 -456 -35 -87 -77 -261 -77 -320 0 -37 5 -50
    22 -62 36 -26 62 -19 129 35 188 151 370 235 567 263 l42 6 0 -138 c0 -133 1
    -139 24 -161 15 -14 33 -21 50 -19 17 2 112 87 311 281 255 249 285 282 285
    310 0 29 -31 63 -277 309 -153 152 -288 281 -300 287 -31 16 -41 14 -68 -14z
    m303 -780 l-203 -200 -3 128 c-2 92 -6 127 -15 127 -7 0 -70 -7 -141 -15 -186
    -22 -353 -82 -506 -184 -87 -58 -82 -56 -74 -24 16 68 76 208 113 260 111 162
    252 239 485 262 60 6 115 11 123 11 10 0 13 27 13 122 l0 123 205 -205 205
    -205 -202 -200z"/>
    <path d="M537 1724 c-63 -20 -128 -84 -150 -149 -15 -43 -17 -114 -17 -618 0
    -403 3 -581 12 -608 16 -55 73 -118 132 -145 l51 -24 588 0 c648 0 628 -2 695
    63 64 61 76 97 80 243 l4 131 -27 22 c-32 25 -44 26 -71 7 -16 -13 -20 -31
    -24 -143 -6 -137 -13 -159 -61 -187 -24 -14 -90 -16 -599 -16 -631 0 -613 -2
    -644 64 -14 30 -16 97 -16 598 0 547 1 564 20 596 35 57 62 62 318 62 209 0
    230 2 245 18 24 27 21 58 -9 81 -25 20 -39 21 -253 20 -170 0 -238 -4 -274
    -15z"/>
    </g>
</svg>