<svg version="1.0" xmlns="http://www.w3.org/2000/svg" width="32px" height="32px" viewBox="0 0 250.000000 260.000000" preserveAspectRatio="xMidYMid meet">
    <g transform="translate(0.000000,260.000000) scale(0.100000,-0.100000)" fill="#000000" stroke="none">
    <path d="M990 1966 c-121 -26 -264 -134 -322 -242 -100 -186 -63 -422 88 -570
    190 -184 491 -179 678 11 182 185 178 484 -8 671 -118 117 -277 165 -436 130z
    m224 -132 c50 -18 126 -75 160 -119 52 -68 70 -123 71 -215 0 -75 -4 -93 -31
    -150 -38 -79 -97 -140 -172 -177 -50 -25 -68 -28 -152 -28 -84 0 -102 3 -152
    28 -218 107 -273 389 -111 568 43 47 137 98 202 109 54 9 131 2 185 -16z"/>
    <path d="M1747 1130 c-111 -19 -216 -100 -262 -202 -24 -53 -29 -77 -31 -151
    l-1 -88 -182 -183 -181 -182 0 -117 c0 -151 -6 -147 187 -147 135 0 143 1 157
    22 9 12 16 39 16 60 l0 38 44 0 c54 0 76 24 76 82 l0 38 44 0 c56 0 76 24 76
    91 l0 47 38 -10 c20 -6 70 -8 110 -5 304 23 438 391 222 607 -84 84 -195 119
    -313 100z m182 -181 c63 -22 77 -107 24 -149 -37 -29 -79 -26 -114 9 -47 47
    -32 115 31 140 14 5 25 10 26 10 1 1 15 -4 33 -10z"/>
    <path d="M455 893 c-97 -22 -154 -68 -185 -149 -52 -140 12 -350 145 -472 106
    -97 292 -178 450 -197 28 -3 64 -8 81 -11 l31 -4 -5 57 c-5 64 -12 73 -58 73
    -17 0 -75 11 -128 24 -246 63 -380 189 -408 384 -11 72 -10 82 8 113 40 69 39
    69 517 69 l427 0 0 23 c0 12 3 39 6 60 l7 37 -434 -1 c-239 -1 -443 -3 -454
    -6z"/>
    </g>
</svg>