
<svg version="1.0" xmlns="http://www.w3.org/2000/svg" width="32px" height="32px" viewBox="0 0 250.000000 260.000000" preserveAspectRatio="xMidYMid meet">
    <g transform="translate(0.000000,260.000000) scale(0.100000,-0.100000)" fill="#000000" stroke="none">
    <path d="M549 1846 c-62 -16 -122 -66 -151 -124 l-23 -47 0 -660 c0 -656 0
    -660 21 -700 30 -55 71 -94 122 -116 41 -18 81 -19 692 -19 611 0 651 1 692
    19 51 22 92 61 122 116 21 40 21 44 21 700 l0 660 -23 47 c-30 60 -89 108
    -155 125 -72 18 -1249 18 -1318 -1z m1306 -120 c19 -8 44 -30 55 -48 19 -32
    20 -48 19 -663 l0 -630 -287 291 c-158 159 -301 300 -319 313 -46 31 -121 38
    -180 16 -40 -15 -99 -69 -350 -318 l-303 -301 0 630 c0 613 1 630 20 662 38
    62 24 61 698 62 511 0 618 -2 647 -14z m-599 -839 c12 -7 148 -141 304 -299
    l282 -288 -633 0 -634 0 280 281 c154 155 294 290 310 300 34 22 61 23 91 6z"/>
    <path d="M1429 1472 c-92 -48 -123 -141 -76 -232 66 -132 247 -132 315 0 46
    89 11 188 -82 235 -64 32 -91 31 -157 -3z m104 -103 c41 -22 49 -59 20 -91
    -32 -36 -103 -11 -103 36 0 26 9 39 35 54 25 14 22 14 48 1z"/>
    </g>
</svg>