<svg version="1.0" xmlns="http://www.w3.org/2000/svg" width="32px" height="32px" viewBox="0 0 250.000000 260.000000" preserveAspectRatio="xMidYMid meet">
    <g transform="translate(0.000000,260.000000) scale(0.100000,-0.100000)" fill="#000000" stroke="none">
    <path d="M904 1726 c-57 -18 -110 -61 -142 -115 -22 -38 -27 -60 -30 -138 l-4
    -93 -102 0 c-89 0 -109 -3 -152 -25 -28 -14 -60 -40 -74 -62 -25 -36 -25 -37
    -28 -317 -3 -311 1 -342 59 -390 54 -46 76 -47 566 -44 449 3 462 4 490 24 15
    11 39 37 52 57 l24 37 206 0 c186 0 210 2 251 21 55 25 95 62 123 114 21 38
    22 54 25 378 4 397 0 417 -74 491 -76 76 -74 76 -648 75 -380 0 -511 -3 -542
    -13z m1071 -120 c19 -8 44 -30 55 -48 19 -31 20 -50 20 -356 0 -447 17 -422
    -284 -422 l-195 0 -3 238 c-3 236 -3 239 -28 275 -14 22 -46 48 -74 62 -50 25
    -52 25 -333 25 l-283 0 0 73 c0 85 22 130 73 152 48 21 1002 22 1052 1z m-562
    -357 c12 -7 25 -17 29 -23 4 -6 8 -128 8 -270 0 -228 -2 -262 -17 -278 -15
    -17 -43 -18 -464 -18 l-448 0 -15 22 c-14 19 -16 63 -16 279 l0 258 26 20 c26
    21 37 21 451 21 300 0 431 -3 446 -11z"/>
    <path d="M276 399 c-30 -23 -33 -45 -10 -77 l15 -22 689 0 690 0 16 25 c21 32
    12 68 -21 83 -19 9 -204 12 -689 12 -656 0 -664 0 -690 -21z"/>
    </g>
</svg>