<svg version="1.0" xmlns="http://www.w3.org/2000/svg"
 width="32px" height="32px" viewBox="0 0 250.000000 260.000000"
 preserveAspectRatio="xMidYMid meet">

    <g transform="translate(0.000000,260.000000) scale(0.100000,-0.100000)" fill="#000000" stroke="none">
    <path d="M753 1838 c-92 -91 -143 -149 -143 -163 0 -13 50 -70 138 -158 145
    -144 169 -159 205 -119 32 35 21 61 -60 143 l-76 79 200 0 c110 0 225 -5 254
    -10 148 -28 260 -138 289 -284 42 -209 -115 -414 -325 -424 -189 -10 -342 110
    -376 294 -6 32 -13 69 -15 82 -7 35 -51 48 -83 24 -23 -18 -26 -26 -25 -83 2
    -56 12 -93 49 -181 7 -17 -4 -18 -146 -18 -85 0 -174 -5 -198 -11 -61 -14
    -126 -62 -158 -117 -27 -46 -28 -52 -31 -218 -3 -159 -2 -175 18 -223 24 -56
    83 -115 136 -137 49 -21 1558 -21 1608 0 46 19 104 72 129 120 20 38 22 55 22
    226 0 211 -8 239 -85 300 -63 50 -112 60 -293 60 -148 0 -159 1 -152 18 52
    123 65 211 45 307 -27 132 -96 235 -207 307 -115 76 -135 80 -412 86 l-243 4
    76 77 c47 48 76 85 76 98 0 21 -42 63 -63 63 -6 0 -75 -64 -154 -142z m170
    -962 c146 -109 336 -127 498 -46 24 12 58 33 76 46 31 23 36 24 238 24 231 0
    261 -6 295 -62 18 -29 20 -50 20 -176 0 -161 -11 -202 -61 -227 -42 -22 -1516
    -22 -1558 0 -50 25 -61 66 -61 227 0 126 3 147 20 176 34 56 61 61 293 62 204
    0 209 0 240 -24z"/>
    <path d="M1683 765 c-60 -26 -71 -89 -24 -136 20 -20 39 -29 61 -29 42 0 90
    47 90 88 0 28 -38 82 -59 82 -5 0 -15 2 -23 5 -7 2 -27 -2 -45 -10z"/>
    </g>
</svg>