<svg version="1.0" xmlns="http://www.w3.org/2000/svg" width="32px" height="32px" viewBox="0 0 250.000000 260.000000" preserveAspectRatio="xMidYMid meet">
    <g transform="translate(0.000000,260.000000) scale(0.100000,-0.100000)" fill="#000000" stroke="none">
    <path d="M538 1844 c-61 -19 -131 -88 -152 -151 -14 -40 -16 -115 -16 -556 0
    -362 3 -521 12 -549 15 -51 77 -121 131 -147 42 -20 57 -21 577 -21 520 0 535
    1 577 21 56 27 117 97 132 151 9 31 11 187 9 568 l-3 525 -27 46 c-33 56 -85
    97 -146 115 -68 21 -1026 19 -1094 -2z m1077 -118 c19 -8 44 -30 55 -48 19
    -32 20 -49 20 -542 l0 -510 -232 231 c-201 198 -240 232 -282 246 -63 21 -109
    21 -172 0 -42 -14 -81 -48 -281 -246 l-233 -231 0 510 c0 493 1 510 20 542 38
    61 35 61 578 62 407 0 499 -3 527 -14z m-467 -740 c15 -8 124 -112 242 -230
    l215 -216 -515 0 -515 0 210 211 c116 116 224 220 240 230 36 23 86 24 123 5z"/>
    <path d="M1343 1545 c-38 -16 -73 -68 -73 -108 0 -65 55 -117 122 -117 42 1
    74 19 99 56 38 58 11 142 -56 170 -42 17 -51 17 -92 -1z"/>
    <path d="M1928 1028 c-3 -545 -3 -554 -25 -593 -12 -22 -36 -54 -55 -72 -67
    -64 -52 -63 -653 -63 -338 0 -545 -4 -545 -10 0 -22 76 -81 123 -95 77 -23
    940 -22 1017 1 103 31 175 93 224 194 l31 65 3 460 c2 316 0 476 -8 512 -12
    54 -56 125 -89 143 -20 10 -20 7 -23 -542z"/>
    </g>
</svg>