<svg version="1.0" xmlns="http://www.w3.org/2000/svg" width="32px" height="32px" viewBox="0 0 250.000000 260.000000" preserveAspectRatio="xMidYMid meet">
    <g transform="translate(0.000000,260.000000) scale(0.100000,-0.100000)"
    fill="#000000" stroke="none">
    <path d="M418 1724 c-30 -9 -63 -30 -92 -60 -69 -68 -77 -107 -74 -352 l3
    -202 58 47 57 46 0 161 c0 144 2 165 20 194 39 63 27 62 700 62 673 0 661 1
    700 -62 19 -32 20 -49 20 -416 0 -414 -3 -435 -54 -465 -14 -8 -101 -14 -270
    -17 l-249 -5 -12 -57 -11 -58 265 0 c296 0 314 4 378 70 69 71 68 62 71 509 3
    465 2 473 -75 548 -77 74 -63 73 -767 72 -511 0 -629 -3 -668 -15z"/>
    <path d="M2048 1028 c-3 -422 -4 -434 -25 -473 -12 -22 -36 -54 -55 -72 -63
    -61 -77 -63 -405 -63 l-297 0 59 -60 59 -60 236 0 c187 0 248 3 290 16 103 31
    175 93 224 194 l31 65 3 340 c3 229 0 357 -8 392 -12 54 -56 125 -89 143 -20
    10 -20 6 -23 -422z"/>
    <path d="M516 1359 c-30 -23 -33 -45 -10 -77 l15 -22 569 0 570 0 16 25 c21
    32 12 68 -21 83 -19 9 -175 12 -569 12 -535 0 -544 0 -570 -21z"/>
    <path d="M580 1126 c-30 -7 -75 -23 -100 -35 -59 -31 -152 -126 -183 -187
    -105 -208 -15 -460 202 -567 62 -30 72 -32 172 -32 103 0 109 1 180 38 l73 37
    161 -160 c98 -97 169 -160 181 -160 32 0 64 29 64 57 0 21 -35 62 -160 188
    l-160 161 30 60 c42 81 57 175 43 259 -30 174 -173 316 -348 345 -73 12 -85
    12 -155 -4z m217 -137 c138 -66 206 -232 153 -373 -44 -115 -140 -187 -260
    -194 -248 -14 -401 252 -266 461 36 56 113 111 176 125 59 14 145 5 197 -19z"/>
    <path d="M1160 1016 c0 -2 12 -29 26 -60 l25 -56 224 0 c220 0 224 0 239 22
    23 32 20 54 -10 77 -25 20 -39 21 -265 21 -132 0 -239 -2 -239 -4z"/>
    </g>
</svg>