<svg version="1.0" xmlns="http://www.w3.org/2000/svg" width="32px" height="32px" viewBox="0 0 250.000000 260.000000" preserveAspectRatio="xMidYMid meet">
    <g transform="translate(0.000000,260.000000) scale(0.100000,-0.100000)"
    fill="#000000" stroke="none">
    <path d="M423 1366 c-56 -18 -119 -69 -146 -120 -20 -38 -22 -54 -22 -226 0
    -205 5 -225 68 -290 71 -73 23 -70 887 -70 864 0 816 -3 887 70 63 65 68 85
    68 290 0 172 -2 188 -22 226 -28 53 -90 102 -150 120 -66 20 -1506 19 -1570 0z
    m1552 -120 c63 -27 75 -61 75 -224 0 -161 -11 -202 -61 -227 -42 -22 -1516
    -22 -1558 0 -50 25 -61 66 -61 227 0 162 11 197 73 223 48 21 1481 22 1532 1z"/>
    <path d="M1690 1129 c-52 -20 -73 -75 -48 -122 17 -34 39 -46 80 -47 28 0 42
    7 62 31 14 17 26 39 26 50 0 36 -29 77 -61 88 -18 6 -32 11 -33 10 -1 0 -12
    -5 -26 -10z"/>
    </g>
</svg>