<svg version="1.0" xmlns="http://www.w3.org/2000/svg" width="32px" height="32px" viewBox="0 0 250.000000 260.000000" preserveAspectRatio="xMidYMid meet">
    <g transform="translate(0.000000,260.000000) scale(0.100000,-0.100000)" fill="#000000" stroke="none">
    <path d="M1484 1970 c-70 -10 -118 -27 -196 -67 -181 -94 -300 -280 -314 -492
    -3 -42 -1 -96 4 -121 l9 -45 -338 -341 c-386 -388 -393 -398 -394 -534 0 -62
    5 -85 28 -132 74 -150 255 -218 404 -153 50 23 103 71 398 365 l340 339 105
    -6 c123 -6 204 9 304 58 166 81 282 233 322 419 41 195 -40 455 -128 410 -13
    -7 -94 -82 -181 -168 l-157 -157 -77 78 -78 77 168 168 c112 112 167 174 167
    189 0 49 -94 94 -235 113 -78 10 -80 10 -151 0z m154 -121 l64 -11 -156 -157
    c-115 -116 -156 -164 -156 -182 0 -35 265 -299 300 -299 19 0 62 37 180 155
    117 117 156 151 163 140 4 -8 10 -43 13 -77 22 -233 -147 -461 -373 -509 -54
    -11 -154 -8 -246 7 l-38 6 -367 -364 c-384 -382 -379 -378 -464 -378 -37 0
    -96 25 -127 53 -32 30 -61 94 -61 137 0 79 27 111 391 476 209 209 350 358
    351 370 0 10 -6 52 -13 92 -36 197 72 403 262 496 108 53 170 63 277 45z"/>
    </g>
</svg>