<svg version="1.0" xmlns="http://www.w3.org/2000/svg" width="32px" height="32px" viewBox="0 0 250.000000 260.000000" preserveAspectRatio="xMidYMid meet">
    <g transform="translate(0.000000,260.000000) scale(0.100000,-0.100000)" fill="#000000" stroke="none">
    <path d="M538 1844 c-61 -19 -131 -88 -152 -151 -14 -41 -16 -125 -16 -682 l0
    -636 24 -50 c25 -55 81 -110 132 -131 49 -21 1319 -21 1368 0 51 21 107 76
    132 131 l24 50 0 631 c0 719 2 701 -76 778 -77 78 -60 76 -768 75 -511 0 -629
    -3 -668 -15z m1317 -118 c19 -8 44 -30 55 -48 19 -32 20 -49 20 -656 0 -687 1
    -675 -61 -707 -42 -22 -1276 -22 -1318 0 -62 32 -61 20 -61 707 0 607 1 624
    20 656 38 62 24 61 698 62 511 0 618 -2 647 -14z"/>
    <path d="M610 1500 l0 -120 60 0 60 0 0 120 0 120 -60 0 -60 0 0 -120z"/>
    <path d="M1690 1500 l0 -120 60 0 60 0 0 120 0 120 -60 0 -60 0 0 -120z"/>
    <path d="M610 1020 l0 -120 60 0 60 0 0 120 0 120 -60 0 -60 0 0 -120z"/>
    <path d="M1690 1020 l0 -120 60 0 60 0 0 120 0 120 -60 0 -60 0 0 -120z"/>
    <path d="M610 540 l0 -120 60 0 60 0 0 120 0 120 -60 0 -60 0 0 -120z"/>
    <path d="M1690 540 l0 -120 60 0 60 0 0 120 0 120 -60 0 -60 0 0 -120z"/>
    </g>
</svg>