
<svg version="1.0" xmlns="http://www.w3.org/2000/svg"
 width="32px" height="32px" viewBox="0 0 250.000000 260.000000"
 preserveAspectRatio="xMidYMid meet">

<g transform="translate(0.000000,260.000000) scale(0.100000,-0.100000)"
fill="#000000" stroke="none">
<path d="M734 1965 c-354 -77 -560 -426 -454 -769 38 -122 135 -249 246 -323
61 -41 177 -83 249 -90 l52 -5 11 44 c7 25 14 53 18 62 5 13 -1 16 -39 16
-200 0 -406 192 -440 410 -48 312 234 592 545 541 136 -22 288 -129 350 -247
31 -57 58 -152 58 -201 0 -18 1 -33 3 -33 1 1 27 7 57 14 l55 13 -3 54 c-8
127 -96 290 -206 381 -77 65 -187 116 -285 134 -93 16 -138 16 -217 -1z"/>
<path d="M756 1719 l-26 -20 0 -203 c0 -184 2 -204 18 -219 16 -14 43 -17 164
-17 128 0 147 2 161 18 10 10 17 27 17 38 -1 48 -38 64 -149 64 l-91 0 0 159
0 160 -26 20 c-15 12 -30 21 -34 21 -4 0 -19 -9 -34 -21z"/>
<path d="M1455 1245 c-137 -30 -241 -89 -331 -188 -283 -313 -152 -824 247
-964 96 -34 235 -42 331 -19 320 75 521 390 453 710 -67 314 -392 529 -700
461z m145 -137 c17 -28 41 -97 67 -190 4 -16 -5 -18 -97 -18 -92 0 -101 2 -97
18 39 142 74 222 97 222 6 0 19 -15 30 -32z m-206 -25 c-4 -10 -17 -55 -28
-100 l-21 -83 -93 0 c-93 0 -93 0 -81 22 21 40 114 125 165 151 59 31 69 33
58 10z m399 -4 c60 -31 122 -83 157 -135 l31 -44 -93 0 -94 0 -21 83 c-11 45
-24 90 -28 100 -9 22 -3 22 48 -4z m-463 -419 l0 -120 -114 0 -115 0 -7 56
c-6 53 1 157 12 175 3 5 54 9 115 9 l109 0 0 -120z m358 -2 l3 -118 -121 0
-120 0 0 113 c0 63 3 117 7 121 4 3 57 5 117 4 l111 -3 3 -117z m356 65 c5
-28 5 -81 1 -117 l-7 -66 -114 0 -114 0 0 120 0 121 113 -3 112 -3 9 -52z
m-694 -322 c0 -10 11 -56 24 -102 14 -46 24 -85 22 -86 -1 -1 -21 7 -45 18
-43 19 -191 157 -191 178 0 7 32 11 95 11 86 0 95 -2 95 -19z m320 14 c0 -13
-39 -144 -52 -175 -8 -19 -23 -42 -33 -50 -16 -13 -20 -12 -41 13 -20 24 -47
97 -70 190 l-6 27 101 0 c56 0 101 -2 101 -5z m310 -5 c0 -21 -146 -157 -190
-177 -25 -12 -46 -20 -48 -19 -1 2 4 21 12 44 8 23 20 68 27 102 l12 60 93 0
c57 0 94 -4 94 -10z"/>
</g>
</svg>
