<svg version="1.0" xmlns="http://www.w3.org/2000/svg" width="32px" height="32px" viewBox="0 0 250.000000 260.000000" preserveAspectRatio="xMidYMid meet">
    <g transform="translate(0.000000,260.000000) scale(0.100000,-0.100000)" fill="#000000" stroke="none">
    <path d="M790 1969 c-71 -14 -165 -65 -206 -112 -170 -195 -90 -496 155 -582
    56 -19 166 -19 222 0 246 86 327 392 154 583 -79 88 -212 133 -325 111z m117
    -122 c68 -18 130 -69 159 -131 73 -157 -42 -336 -216 -336 -133 0 -235 102
    -235 235 0 110 70 203 174 231 59 16 58 16 118 1z"/>
    <path d="M1629 1606 c-97 -26 -179 -127 -179 -222 0 -94 59 -186 144 -225 53
    -24 139 -24 191 0 79 36 145 137 145 224 0 75 -73 183 -143 212 -51 21 -109
    25 -158 11z m106 -120 c38 -16 75 -68 75 -104 0 -38 -30 -92 -61 -107 -89 -46
    -189 21 -176 117 6 45 29 75 72 94 39 17 48 17 90 0z"/>
    <path d="M1147 1246 c-125 -34 -201 -168 -166 -293 17 -62 96 -143 155 -161
    93 -27 179 -6 246 61 38 37 68 110 68 162 0 98 -77 202 -169 229 -64 19 -71
    19 -134 2z m130 -132 c91 -59 48 -214 -59 -214 -101 0 -158 95 -108 178 36 59
    109 75 167 36z"/>
    <path d="M354 1115 c-68 -34 -97 -80 -102 -162 -6 -85 13 -175 50 -246 51 -94
    188 -211 284 -241 18 -5 21 0 30 53 l10 58 -54 28 c-121 64 -191 166 -199 295
    -5 70 -4 79 16 99 20 20 30 21 240 21 l218 0 7 38 c3 20 9 47 12 60 l6 22
    -234 0 c-229 0 -235 -1 -284 -25z"/>
    <path d="M1567 977 c-3 -24 -9 -51 -13 -60 -6 -16 11 -17 219 -17 212 0 226
    -1 251 -21 30 -24 33 -52 11 -126 -28 -94 -103 -168 -198 -194 l-34 -9 5 -58
    c2 -31 6 -58 7 -60 1 -2 31 6 65 18 157 53 252 160 281 316 21 111 -11 186
    -95 229 -49 24 -55 25 -272 25 l-221 0 -6 -43z"/>
    <path d="M858 650 c-47 -14 -85 -48 -108 -96 -43 -87 -9 -237 76 -341 72 -88
    230 -151 379 -152 266 -2 460 150 481 376 6 62 4 77 -16 118 -14 29 -38 56
    -63 73 l-40 27 -341 2 c-188 1 -353 -2 -368 -7z m677 -122 c33 -15 41 -49 27
    -115 -29 -141 -168 -233 -352 -233 -184 0 -322 91 -352 232 -14 65 -6 101 24
    116 33 15 618 16 653 0z"/>
    </g>
</svg>