<svg  xmlns="http://www.w3.org/2000/svg" width="32px" height="32px" viewBox="0 0 250.000000 260.000000" preserveAspectRatio="xMidYMid meet">
  <g transform="translate(0.000000,260.000000) scale(0.100000,-0.100000)" fill="#000000" stroke="none">
  <path d="M1045 1970 c-141 -17 -287 -73 -412 -158 -103 -70 -230 -218 -290
  -337 -35 -69 -72 -202 -84 -300 -18 -157 10 -332 76 -472 115 -246 307 -409
  572 -489 79 -24 104 -27 243 -27 139 0 164 3 243 27 204 61 351 162 473 323
  200 264 236 617 95 918 -72 155 -171 270 -311 364 -184 123 -396 176 -605 151z
  m303 -141 c40 -10 114 -40 165 -65 75 -39 109 -64 182 -138 100 -101 145 -170
  186 -285 129 -365 -25 -769 -360 -945 -134 -70 -233 -96 -371 -96 -138 0 -237
  26 -371 96 -334 176 -489 581 -360 944 41 116 86 184 186 285 72 73 108 100
  180 137 188 96 365 117 563 67z"/>
  <path d="M1485 1369 c-11 -6 -118 -109 -237 -228 l-218 -216 -97 97 c-120 118
  -136 127 -172 101 -52 -39 -44 -55 105 -204 105 -105 145 -139 164 -139 20 0
  82 57 283 258 280 280 289 294 220 331 -26 13 -23 13 -48 0z"/>
  </g>
</svg>