<svg  xmlns="http://www.w3.org/2000/svg" width="32px" height="32px" viewBox="0 0 250.000000 260.000000" preserveAspectRatio="xMidYMid meet">
  <g transform="translate(0.000000,260.000000) scale(0.100000,-0.100000)" fill="#000000" stroke="none">
  <path d="M844 1961 c-22 -10 -56 -37 -76 -60 l-35 -41 -104 0 c-113 0 -164
  -16 -206 -61 -54 -59 -53 -38 -53 -846 0 -740 0 -747 21 -791 13 -26 38 -54
  62 -70 40 -27 41 -27 255 -30 181 -3 217 -1 238 13 24 15 31 49 16 71 -19 29
  -56 34 -246 34 -190 0 -195 1 -210 22 -14 20 -16 109 -16 759 l0 738 26 20
  c23 18 41 21 124 21 l97 0 24 -37 c52 -78 50 -78 329 -78 279 0 277 0 329 78
  l24 37 102 0 c93 0 103 -2 123 -23 19 -20 22 -35 22 -98 0 -88 16 -119 60
  -119 45 0 60 31 60 123 0 117 -33 180 -115 218 -31 14 -64 19 -144 19 l-104 0
  -35 41 c-62 72 -87 79 -322 79 -178 0 -210 -3 -246 -19z m460 -122 c30 -23 33
  -54 9 -81 -15 -16 -35 -18 -221 -18 -177 0 -208 2 -224 17 -26 23 -22 58 8 82
  25 20 40 21 214 21 174 0 189 -1 214 -21z"/>
  <path d="M1189 1352 c-39 -20 -58 -38 -76 -71 l-23 -44 0 -516 c0 -481 2 -519
  19 -557 22 -47 59 -80 110 -95 23 -6 155 -9 372 -7 l336 3 40 27 c25 16 49 44
  62 71 21 44 21 50 19 569 l-3 524 -25 37 c-15 22 -46 48 -74 62 l-50 25 -327
  0 -327 0 -53 -28z m715 -113 l26 -20 0 -498 c0 -433 -2 -499 -16 -519 -15 -22
  -16 -22 -341 -22 -290 0 -328 2 -345 17 -17 15 -18 44 -18 517 0 276 4 506 8
  512 20 30 52 33 353 34 295 0 307 -1 333 -21z"/>
  </g>
</svg>