<svg  xmlns="http://www.w3.org/2000/svg" width="32px" height="32px" viewBox="0 0 250.000000 260.000000" preserveAspectRatio="xMidYMid meet">
<g transform="translate(0.000000,260.000000) scale(0.100000,-0.100000)" fill="#000000" stroke="none">
  <path d="M578 1970 c-40 -12 -122 -74 -158 -120 -81 -102 -123 -257 -102 -378
  14 -84 69 -195 126 -257 l45 -48 3 -441 3 -441 28 -57 c108 -219 412 -223 532
  -7 l30 54 3 443 3 444 53 62 c125 147 157 318 92 490 -34 89 -86 158 -158 212
  -70 51 -104 60 -152 40 -64 -27 -76 -61 -76 -218 l0 -138 -60 0 -60 0 0 138
  c0 156 -12 191 -75 218 -38 16 -39 16 -77 4z m34 -302 l3 -183 178 -3 177 -2
  0 185 c0 102 4 185 9 185 24 0 103 -87 133 -148 30 -61 33 -75 33 -157 -1 -71
  -5 -100 -23 -139 -27 -60 -83 -129 -122 -153 l-30 -17 0 -456 c0 -453 0 -456
  -22 -500 -67 -131 -246 -132 -315 -1 l-23 44 0 456 -1 456 -40 28 c-53 37
  -115 134 -130 205 -25 124 19 263 108 341 25 23 50 41 54 41 5 0 10 -82 11
  -182z"/>
  <path d="M1476 1967 c-17 -12 -86 -196 -86 -230 0 -10 14 -44 30 -77 l30 -59
  0 -289 0 -289 -50 -7 c-35 -5 -53 -13 -60 -27 -7 -13 -10 -134 -8 -367 l3
  -347 30 -54 c98 -177 328 -214 470 -75 88 85 90 91 93 474 2 184 1 344 -2 356
  -6 23 -50 44 -92 44 l-24 0 0 289 0 289 32 67 31 68 -33 101 c-48 148 -45 146
  -210 146 -95 0 -142 -4 -154 -13z m249 -168 l19 -60 -27 -55 -27 -54 0 -305 0
  -305 -60 0 -60 0 0 305 0 305 -27 54 -27 55 19 60 18 61 77 0 77 0 18 -61z
  m85 -959 l0 -60 -180 0 -180 0 0 60 0 60 180 0 180 0 0 -60z m0 -347 c0 -149
  -2 -171 -21 -211 -65 -134 -259 -133 -320 2 -16 35 -19 67 -19 209 l0 167 180
  0 180 0 0 -167z"/>
  </g>
</svg>