<svg  xmlns="http://www.w3.org/2000/svg" width="32px" height="32px" viewBox="0 0 250.000000 260.000000" preserveAspectRatio="xMidYMid meet">
  <g transform="translate(0.000000,260.000000) scale(0.100000,-0.100000)" fill="#000000" stroke="none">
  <path d="M1716 1959 l-26 -20 0 -160 0 -159 -151 0 c-176 0 -208 -10 -209 -66
  0 -47 24 -54 198 -54 l162 0 0 -163 c0 -146 2 -166 18 -180 26 -24 68 -21 86
  5 13 18 16 54 16 180 l0 158 164 0 c159 0 165 1 180 22 23 32 20 54 -10 77
  -24 19 -40 21 -180 21 l-154 0 0 159 0 160 -26 20 c-15 12 -30 21 -34 21 -4 0
  -19 -9 -34 -21z"/>
  <path d="M474 1715 c-28 -14 -59 -40 -74 -62 l-25 -37 -3 -635 c-2 -424 0
  -648 7 -672 15 -51 48 -88 95 -110 39 -17 79 -19 676 -19 597 0 637 2 676 19
  47 22 80 59 95 110 6 23 9 137 7 312 -3 275 -3 276 -28 312 -14 22 -46 48 -74
  62 -50 25 -52 25 -333 25 l-283 0 0 288 c0 283 0 290 -23 333 -18 33 -37 51
  -76 71 l-53 28 -267 0 c-264 0 -268 0 -317 -25z m579 -106 c12 -7 25 -17 29
  -23 4 -6 8 -136 8 -288 l0 -278 -300 0 -300 0 0 279 0 280 26 20 c25 20 39 21
  271 21 165 0 251 -4 266 -11z m37 -1009 l0 -300 -284 0 c-283 0 -285 0 -300
  22 -14 19 -16 65 -16 300 l0 278 300 0 300 0 0 -300z m694 279 l26 -20 0 -258
  c0 -216 -2 -260 -16 -279 -15 -22 -17 -22 -300 -22 l-284 0 0 300 0 300 274 0
  c261 0 274 -1 300 -21z"/>
  </g>
</svg>