<svg  xmlns="http://www.w3.org/2000/svg" width="23px" height="23px" viewBox="0 0 64.000000 64.000000" preserveAspectRatio="xMidYMid meet">
  <g transform="translate(0.000000,64.000000) scale(0.100000,-0.100000)"
  fill="#000000" stroke="none">
  <path d="M300 480 c0 -153 1 -160 20 -160 19 0 20 7 20 160 0 153 -1 160 -20
  160 -19 0 -20 -7 -20 -160z"/>
  <path d="M185 523 c-47 -24 -85 -64 -113 -118 -22 -41 -26 -63 -26 -125 0
  -116 49 -197 154 -251 64 -33 176 -33 240 0 61 32 97 67 128 126 36 69 38 179
  3 245 -30 58 -67 97 -113 121 -47 24 -58 24 -58 -1 0 -11 7 -20 15 -20 9 0 38
  -21 65 -46 52 -49 80 -109 80 -174 0 -126 -114 -240 -240 -240 -126 0 -240
  114 -240 240 0 65 28 125 80 174 27 25 56 46 65 46 8 0 15 9 15 20 0 24 -14
  25 -55 3z"/>
  </g>
</svg>