<svg  xmlns="http://www.w3.org/2000/svg" width="32px" height="32px" viewBox="0 0 250.000000 260.000000" preserveAspectRatio="xMidYMid meet">
  <g transform="translate(0.000000,260.000000) scale(0.100000,-0.100000)" fill="#000000" stroke="none">
  <path d="M1835 1961 c-16 -10 -164 -153 -327 -318 -229 -230 -298 -304 -298
  -323 0 -19 72 -97 318 -343 259 -259 322 -317 344 -317 29 0 58 32 58 64 0 12
  -107 127 -287 308 l-287 288 287 288 c197 197 287 295 287 309 0 19 -42 63
  -59 63 -3 0 -19 -9 -36 -19z"/>
  <path d="M517 1359 c-15 -11 -27 -30 -27 -42 0 -14 90 -112 287 -309 l287
  -288 -287 -288 c-200 -201 -287 -295 -287 -310 0 -28 34 -62 62 -62 34 0 658
  626 658 659 0 20 -70 95 -312 337 -172 172 -322 315 -334 318 -13 4 -30 -1
  -47 -15z"/>
  </g>
</svg>