<svg  xmlns="http://www.w3.org/2000/svg" width="32px" height="32px" viewBox="0 0 250.000000 260.000000" preserveAspectRatio="xMidYMid meet">
  <g transform="translate(0.000000,260.000000) scale(0.100000,-0.100000)"
  fill="#000000" stroke="none">
  <path d="M418 1724 c-30 -9 -63 -30 -92 -60 -75 -75 -76 -80 -76 -592 0 -312
  4 -456 12 -484 15 -51 77 -121 131 -147 43 -21 53 -21 817 -21 764 0 774 0
  817 21 57 28 118 98 132 154 7 29 11 193 11 483 0 505 -1 511 -76 586 -78 79
  -47 76 -888 75 -615 0 -749 -3 -788 -15z m1032 -644 l0 -540 -495 0 c-548 0
  -538 -1 -569 64 -14 30 -16 88 -16 478 0 427 1 444 20 476 38 61 36 61 573 62
  l487 0 0 -540z m525 526 c19 -8 44 -30 55 -48 18 -30 20 -50 20 -225 l0 -193
  -240 0 -240 0 0 240 0 240 185 0 c139 0 194 -4 220 -14z m75 -777 c0 -293 4
  -289 -285 -289 l-195 0 0 240 0 240 240 0 240 0 0 -191z"/>
  </g>
</svg>