<svg xmlns="http://www.w3.org/2000/svg" viewBox="0 0 48 48" width="240" height="240"><path fill="#0370c8" d="M24 44a1 1 0 0 1 0-2v2z"/><path fill="#0f5094" d="M25 43a1 1 0 0 1-1 1v-2a1 1 0 0 1 1 1z"/><circle cx="42" cy="11" r="1" fill="#0883d9"/><circle cx="6" cy="11" r="1" fill="#33bff0"/><path fill="#0f5094" d="m24 43 .427.907s15.144-7.9 18.08-19.907H24v19z"/><path fill="#0883d9" d="m43 11-1-1c-11.122 0-11.278-6-18-6v20h18.507c.315-1.288.493-2.622.493-4v-9z"/><path fill="#0370c8" d="m24 43-.427.907S8.429 36.007 5.493 24H24v19z"/><path fill="#33bff0" d="m5 11 1-1c11.122 0 11.278-6 18-6v20H5.493A16.789 16.789 0 0 1 5 20v-9z"/></svg>