<svg width="16" height="14" fill="none" xmlns="http://www.w3.org/2000/svg"><path d="M12 13.242c0-.088.016-.159.047-.21.036-.058.083-.118.14-.18.073-.073.152-.141.235-.204a6.95 6.95 0 0 0 1.242-1.351 7.42 7.42 0 0 0 1.18-2.79 7.341 7.341 0 0 0 0-3.008 7.09 7.09 0 0 0-.453-1.46 7.306 7.306 0 0 0-.735-1.344 6.29 6.29 0 0 0-.992-1.14 2.96 2.96 0 0 0-.242-.203 3.044 3.044 0 0 1-.235-.211.927.927 0 0 1-.14-.172A.426.426 0 0 1 12 .75c0-.14.047-.258.14-.352a.504.504 0 0 1 .524-.109.588.588 0 0 1 .149.078c.234.151.466.344.695.578.229.235.445.487.648.758a9.008 9.008 0 0 1 1.008 1.617A8.554 8.554 0 0 1 16 7c0 .635-.07 1.266-.21 1.89a8.387 8.387 0 0 1-1.063 2.587 9.379 9.379 0 0 1-.57.828 9.132 9.132 0 0 1-.657.75c-.23.234-.458.427-.688.578-.057.036-.109.065-.156.086a.449.449 0 0 1-.156.023.48.48 0 0 1-.352-.148.48.48 0 0 1-.148-.352ZM3.297 10H1.5c-.203 0-.396-.04-.578-.117a1.601 1.601 0 0 1-.485-.32 1.601 1.601 0 0 1-.32-.485A1.452 1.452 0 0 1 0 8.5v-3a1.505 1.505 0 0 1 .922-1.383C1.104 4.04 1.297 4 1.5 4h1.797l2.422-2.43a.645.645 0 0 1 .242-.156.791.791 0 0 1 .289-.055c.214 0 .39.07.531.211.146.14.219.318.219.532v9.796c0 .105-.02.201-.063.29a.74.74 0 0 1-.164.242.732.732 0 0 1-.523.219.723.723 0 0 1-.531-.22L3.297 10Zm6.734 1.445c0-.088.013-.156.04-.203.03-.047.075-.104.132-.172.287-.323.542-.633.766-.93.224-.296.411-.6.562-.913a4.66 4.66 0 0 0 .344-1.016C11.958 7.85 12 7.448 12 7c0-.448-.042-.852-.125-1.21a4.502 4.502 0 0 0-.344-1.009 5.331 5.331 0 0 0-.562-.922 15.24 15.24 0 0 0-.766-.93 1.983 1.983 0 0 1-.133-.171.426.426 0 0 1-.039-.203c0-.136.05-.25.149-.344a.507.507 0 0 1 .36-.148c.077 0 .137.01.179.03a.68.68 0 0 1 .156.095c.156.12.31.268.46.445.157.172.303.357.438.554.141.198.269.402.383.61.115.203.211.396.29.578.37.833.554 1.708.554 2.625a6.401 6.401 0 0 1-.844 3.195 8.017 8.017 0 0 1-.383.625c-.14.203-.289.393-.445.57a2.396 2.396 0 0 1-.453.422 1.819 1.819 0 0 1-.164.094.522.522 0 0 1-.531-.11.48.48 0 0 1-.149-.35ZM6 11.29V2.703L3.852 4.852A.48.48 0 0 1 3.5 5h-2a.48.48 0 0 0-.352.148A.48.48 0 0 0 1 5.5v3c0 .135.05.253.148.352A.48.48 0 0 0 1.5 9h2a.48.48 0 0 1 .352.148L6 11.29Zm2.094-1.75c0-.073.008-.13.023-.172.021-.041.052-.091.094-.148.12-.183.23-.357.328-.524a3.283 3.283 0 0 0 .406-1.062A3.41 3.41 0 0 0 9 7c0-.224-.018-.432-.055-.625a3.357 3.357 0 0 0-.406-1.063 10.604 10.604 0 0 0-.328-.53 1.097 1.097 0 0 1-.094-.15.505.505 0 0 1-.023-.171.48.48 0 0 1 .148-.352.48.48 0 0 1 .352-.148c.088 0 .161.016.219.047a.681.681 0 0 1 .171.14c.167.183.313.388.438.618.125.224.229.463.312.718.089.25.154.506.196.766.047.26.07.51.07.75 0 .23-.023.477-.07.742-.042.26-.107.521-.196.781-.083.256-.19.5-.32.735-.125.229-.268.427-.43.594a.512.512 0 0 1-.742.039.48.48 0 0 1-.148-.352Z" fill="#000" fill-opacity=".896"/></svg>