<svg  xmlns="http://www.w3.org/2000/svg" width="32px" height="32px" viewBox="0 0 250.000000 260.000000" preserveAspectRatio="xMidYMid meet">
  <g transform="translate(0.000000,260.000000) scale(0.100000,-0.100000)" fill="#000000" stroke="none">
  <path d="M923 1845 c-60 -26 -73 -63 -73 -211 l0 -132 -122 -4 c-99 -4 -133
  -9 -174 -27 -59 -26 -123 -87 -156 -151 -23 -45 -23 -47 -23 -420 l0 -375 28
  -57 c35 -71 88 -120 161 -147 55 -21 70 -21 646 -21 576 0 591 0 646 21 73 27
  126 76 161 147 l28 57 0 370 0 370 -26 55 c-33 70 -79 117 -149 149 -47 22
  -72 26 -177 29 l-123 4 0 132 c0 150 -13 186 -75 212 -49 20 -525 20 -572 -1z
  m527 -225 l0 -120 -240 0 -240 0 0 120 0 120 240 0 240 0 0 -120z m376 -265
  c28 -14 60 -40 74 -62 l25 -36 3 -336 c2 -217 -1 -349 -7 -372 -15 -51 -48
  -88 -95 -110 -38 -17 -78 -19 -616 -19 -538 0 -578 2 -616 19 -47 22 -80 59
  -95 110 -6 23 -9 155 -7 372 l3 336 25 36 c14 22 46 48 74 62 l50 25 566 0
  566 0 50 -25z"/>
  </g>
</svg>