<svg  xmlns="http://www.w3.org/2000/svg" width="32px" height="32px" viewBox="0 0 250.000000 260.000000" preserveAspectRatio="xMidYMid meet">
  <g transform="translate(0.000000,260.000000) scale(0.100000,-0.100000)" fill="#000000" stroke="none">
  <path d="M675 1821 c-95 -27 -164 -70 -245 -151 -85 -84 -129 -164 -156 -276
  -23 -98 -14 -226 22 -322 26 -72 43 -81 44 -24 0 32 51 141 85 180 38 45 108
  92 164 109 25 8 114 18 196 22 134 7 157 10 212 36 149 66 204 205 127 317
  -34 49 -81 81 -157 108 -72 25 -206 26 -292 1z"/>
  <path d="M1465 1827 c-68 -23 -121 -54 -154 -93 -41 -46 -51 -73 -51 -138 0
  -138 147 -236 354 -236 178 0 277 -31 357 -111 46 -46 95 -143 107 -210 l8
  -44 16 30 c53 99 68 284 34 400 -52 176 -192 325 -362 387 -74 26 -248 35
  -309 15z"/>
  <path d="M1160 1358 c-53 -48 -141 -91 -223 -108 l-57 -12 6 -51 c17 -145 45
  -193 200 -348 l125 -124 124 127 c146 147 184 213 193 327 l4 68 -65 16 c-92
  22 -166 60 -213 107 -21 22 -41 40 -44 39 -3 0 -25 -18 -50 -41z"/>
  <path d="M621 1223 c-66 -23 -136 -98 -155 -164 -18 -64 -23 -187 -8 -215 23
  -44 204 -206 255 -229 71 -33 168 -47 239 -36 54 9 158 48 158 59 0 3 -58 64
  -128 136 -155 158 -186 212 -210 366 l-16 100 -46 -1 c-25 0 -65 -8 -89 -16z"/>
  <path d="M1650 1194 c0 -71 -26 -168 -62 -238 -24 -46 -73 -103 -206 -234
  -160 -160 -180 -177 -256 -213 -62 -29 -105 -41 -180 -51 l-97 -13 138 -137
  c109 -106 148 -139 181 -149 85 -25 91 -20 449 334 179 177 332 335 340 351
  21 41 13 176 -14 238 -24 52 -79 109 -131 134 -20 10 -65 20 -99 22 l-63 4 0
  -48z"/>
  </g>
</svg>