<svg  xmlns="http://www.w3.org/2000/svg" width="32px" height="32px" viewBox="0 0 250.000000 260.000000" preserveAspectRatio="xMidYMid meet">
  <g transform="translate(0.000000,260.000000) scale(0.100000,-0.100000)" fill="#000000" stroke="none">
  <path d="M396 1959 l-26 -20 0 -258 c0 -216 2 -260 16 -279 15 -22 18 -22 283
  -22 247 0 269 1 284 18 21 23 22 56 1 76 -8 9 -16 17 -17 18 -1 1 -94 4 -206
  7 l-204 6 47 57 c97 119 269 227 431 269 113 30 288 30 405 0 299 -76 531
  -305 611 -606 33 -122 30 -309 -5 -430 -70 -232 -226 -423 -431 -525 -118 -59
  -215 -81 -367 -83 l-128 -2 0 -57 0 -57 37 -7 c67 -13 243 3 336 30 384 113
  650 425 699 822 33 274 -75 577 -279 780 -184 182 -412 277 -668 277 -262 1
  -489 -91 -682 -276 l-43 -41 0 141 c0 141 0 142 -26 162 -15 12 -30 21 -34 21
  -4 0 -19 -9 -34 -21z"/>
  <path d="M1125 1608 c-11 -6 -23 -16 -27 -22 -4 -6 -8 -155 -8 -332 0 -298 1
  -322 18 -337 16 -15 47 -17 224 -17 186 0 206 2 221 18 18 19 22 49 9 68 -18
  28 -56 34 -201 34 l-151 0 0 278 c0 152 -4 282 -8 288 -6 10 -46 34 -54 34 -2
  0 -12 -6 -23 -12z"/>
  <path d="M276 879 c-30 -23 -33 -45 -10 -77 15 -22 16 -22 343 -22 305 0 329
  1 344 18 18 19 22 49 9 68 -20 31 -55 34 -355 34 -293 0 -305 -1 -331 -21z"/>
  <path d="M276 519 c-30 -23 -33 -45 -10 -77 15 -22 16 -22 343 -22 305 0 329
  1 344 18 18 19 22 49 9 68 -20 31 -55 34 -355 34 -293 0 -305 -1 -331 -21z"/>
  <path d="M276 159 c-31 -24 -33 -52 -6 -79 19 -19 33 -20 338 -20 343 0 362 3
  362 53 -1 63 -20 67 -363 67 -293 0 -305 -1 -331 -21z"/>
  </g>
</svg>