<svg  xmlns="http://www.w3.org/2000/svg" width="32px" height="32px" viewBox="0 0 250.000000 260.000000" preserveAspectRatio="xMidYMid meet">
  <g transform="translate(0.000000,260.000000) scale(0.100000,-0.100000)" fill="#000000" stroke="none">
  <path d="M990 1966 c-121 -26 -264 -134 -322 -242 -54 -99 -70 -215 -47 -326
  35 -164 184 -321 344 -363 96 -25 113 -21 164 33 25 27 62 60 81 75 l35 26
  -50 -15 c-72 -23 -190 -14 -258 20 -146 71 -229 237 -197 392 24 114 85 196
  183 246 147 74 301 51 418 -63 138 -134 142 -361 10 -497 l-37 -38 75 27 c42
  16 88 30 103 34 54 11 94 195 69 317 -29 136 -127 262 -258 330 -103 55 -202
  69 -313 44z"/>
  <path d="M1540 1130 c-213 -39 -385 -202 -435 -411 -66 -282 109 -571 392
  -644 375 -98 739 247 659 623 -53 251 -246 419 -498 436 -40 3 -93 1 -118 -4z
  m424 -311 c14 -11 26 -30 26 -42 0 -14 -74 -95 -227 -249 -176 -177 -233 -228
  -253 -228 -18 0 -53 28 -132 107 -123 122 -133 149 -70 182 30 16 52 4 135
  -77 l67 -67 193 192 c170 169 204 199 228 202 4 1 18 -8 33 -20z"/>
  <path d="M423 886 c-57 -18 -119 -69 -146 -120 -45 -84 -19 -277 53 -390 62
  -96 195 -201 320 -250 93 -37 212 -57 380 -63 l165 -5 -58 59 -58 60 -92 6
  c-366 24 -591 183 -612 432 -5 60 -3 75 15 103 36 57 61 62 332 62 l243 0 21
  60 21 60 -271 -1 c-194 0 -283 -4 -313 -13z"/>
  </g>
</svg>