<svg version="1.0" xmlns="http://www.w3.org/2000/svg" width="32px" height="32px" viewBox="0 0 250.000000 260.000000" preserveAspectRatio="xMidYMid meet">
    <g transform="translate(0.000000,260.000000) scale(0.100000,-0.100000)" fill="#000000" stroke="none">
    <path d="M418 1604 c-30 -9 -63 -30 -92 -60 -74 -74 -76 -87 -76 -532 0 -266
    4 -397 12 -424 15 -51 77 -121 131 -147 43 -21 53 -21 817 -21 764 0 774 0
    817 21 57 28 118 98 132 154 7 28 11 177 11 423 0 438 -2 452 -76 526 -78 79
    -47 76 -888 75 -615 0 -749 -3 -788 -15z m1557 -118 c53 -23 75 -67 75 -153
    l0 -73 -840 0 -840 0 0 73 c0 85 22 130 73 152 48 21 1481 22 1532 1z m75
    -597 c0 -277 -5 -306 -61 -334 -42 -22 -1516 -22 -1558 0 -56 28 -61 57 -61
    334 l0 251 840 0 840 0 0 -251z"/>
    <path d="M1605 768 c-40 -22 -47 -64 -17 -91 16 -14 43 -17 165 -17 139 0 147
    1 161 22 23 32 20 54 -10 77 -24 19 -40 21 -153 21 -75 0 -134 -5 -146 -12z"/>
</g>
</svg>