<svg version="1.0" xmlns="http://www.w3.org/2000/svg" width="32px" height="32px" viewBox="0 0 250.000000 260.000000" preserveAspectRatio="xMidYMid meet">
    <g transform="translate(0.000000,260.000000) scale(0.100000,-0.100000)"
    fill="#000000" stroke="none">
    <path d="M485 1841 c-48 -22 -79 -54 -100 -103 -18 -45 -21 -329 -4 -391 21
    -76 54 -98 352 -236 153 -71 281 -131 284 -134 2 -3 -8 -12 -24 -20 -43 -23
    -122 -107 -149 -159 -91 -178 -62 -364 77 -498 226 -216 596 -120 690 179 31
    101 20 210 -32 314 -24 49 -111 142 -152 164 -16 8 -26 17 -24 20 3 3 131 63
    284 134 298 138 331 160 352 236 17 62 14 346 -4 391 -21 49 -52 81 -100 103
    -38 17 -80 19 -725 19 -645 0 -687 -2 -725 -19z m365 -375 l0 -275 -52 23
    c-142 63 -274 128 -290 143 -16 14 -18 35 -18 179 l0 163 26 20 c24 19 40 21
    180 21 l154 0 0 -274z m600 -29 l0 -303 -115 -52 c-63 -29 -120 -52 -125 -52
    -5 0 -62 23 -125 52 l-115 52 0 303 0 303 240 0 240 0 0 -303z m454 282 l26
    -20 0 -163 c0 -144 -2 -165 -18 -179 -16 -15 -148 -80 -289 -143 l-53 -23 0
    275 0 274 154 0 c140 0 156 -2 180 -21z m-632 -830 c108 -22 205 -119 229
    -230 31 -142 -48 -287 -185 -338 -72 -27 -140 -27 -212 0 -73 27 -126 76 -161
    147 -37 76 -39 183 -5 253 48 99 156 173 259 178 12 1 46 -4 75 -10z"/>
    </g>
</svg>