<svg  xmlns="http://www.w3.org/2000/svg" width="32px" height="32px" viewBox="0 0 250.000000 260.000000" preserveAspectRatio="xMidYMid meet">
  <g transform="translate(0.000000,260.000000) scale(0.100000,-0.100000)" fill="#000000" stroke="none">
  <path d="M1420 1969 c-338 -51 -608 -398 -564 -725 5 -38 7 -85 3 -103 -5 -26
  -69 -95 -297 -324 -236 -238 -292 -299 -302 -332 -7 -25 -10 -89 -8 -171 3
  -122 5 -133 30 -171 46 -70 88 -83 266 -83 158 0 201 8 246 48 30 27 56 93 56
  145 l0 47 75 0 c48 0 87 6 105 15 44 23 60 63 60 150 l0 75 75 0 c47 0 87 6
  104 15 30 15 61 69 61 104 0 20 3 21 38 14 20 -4 91 -8 157 -7 103 0 130 4
  193 26 426 153 586 656 322 1013 -46 62 -137 147 -195 180 -60 35 -173 73
  -252 85 -77 11 -96 11 -173 -1z m254 -139 c120 -38 246 -143 309 -257 34 -64
  67 -189 67 -258 0 -68 -33 -194 -67 -258 -38 -70 -145 -175 -219 -214 -126
  -67 -273 -80 -413 -38 -121 36 -141 24 -141 -86 l0 -59 -65 0 c-73 0 -120 -16
  -150 -50 -16 -17 -21 -40 -24 -106 l-3 -84 -72 0 c-115 0 -154 -34 -165 -143
  -10 -98 -8 -97 -182 -97 -185 0 -179 -6 -179 159 l0 114 294 296 c228 230 296
  305 306 335 9 28 11 73 6 160 -5 94 -3 134 9 181 55 212 229 380 440 425 56
  12 175 3 249 -20z"/>
  <path d="M1643 1605 c-38 -16 -73 -68 -73 -108 0 -89 98 -145 179 -102 31 15
  61 69 61 107 0 36 -37 88 -75 104 -42 17 -51 17 -92 -1z"/>
  </g>
</svg>