<svg  xmlns="http://www.w3.org/2000/svg" width="32px" height="32px" viewBox="0 0 250.000000 260.000000" preserveAspectRatio="xMidYMid meet">
  <g transform="translate(0.000000,260.000000) scale(0.100000,-0.100000)" fill="#000000" stroke="none">
  <path d="M583 1842 c-72 -26 -119 -59 -154 -112 -59 -89 -60 -95 -57 -676 l3
  -529 28 -57 c35 -71 88 -120 161 -147 56 -21 70 -21 668 -21 l611 0 -76 -79
  c-56 -57 -77 -86 -77 -105 0 -32 40 -61 72 -53 36 9 288 269 288 296 0 25
  -225 262 -272 287 -45 23 -88 -3 -88 -54 0 -9 35 -52 77 -94 l78 -78 -603 0
  c-520 0 -608 2 -639 15 -50 21 -72 42 -94 90 -17 37 -19 76 -19 548 0 436 2
  513 15 545 21 49 52 81 100 103 37 17 75 19 545 19 470 0 508 -2 545 -19 48
  -22 79 -54 100 -103 13 -32 15 -97 15 -421 0 -359 1 -385 18 -400 27 -25 69
  -21 87 7 14 21 16 74 13 428 l-3 403 -25 48 c-33 66 -83 115 -149 146 l-56 26
  -530 2 c-489 3 -534 1 -582 -15z"/>
  <path d="M756 1479 c-30 -24 -34 -59 -8 -82 17 -15 59 -17 404 -17 360 0 386
  1 401 18 18 19 22 49 9 68 -21 31 -54 34 -415 34 -353 0 -365 -1 -391 -21z"/>
  <path d="M756 1119 c-30 -24 -34 -59 -8 -82 17 -15 59 -17 404 -17 360 0 386
  1 401 18 18 19 22 49 9 68 -21 31 -54 34 -415 34 -353 0 -365 -1 -391 -21z"/>
  </g>
</svg>