  <svg  xmlns="http://www.w3.org/2000/svg" width="32px" height="32px" viewBox="0 0 250.000000 260.000000" preserveAspectRatio="xMidYMid meet">
  <g transform="translate(0.000000,260.000000) scale(0.100000,-0.100000)" fill="#000000" stroke="none">
  <path d="M1105 1974 c-361 -53 -643 -267 -781 -590 -23 -53 -25 -68 -16 -89
  13 -28 57 -43 81 -28 9 5 39 55 66 109 84 166 155 247 303 345 220 145 492
  173 751 78 121 -44 287 -166 363 -266 38 -50 88 -132 88 -145 0 -5 -75 -8
  -166 -8 -160 0 -198 -6 -216 -34 -13 -20 -8 -53 10 -69 16 -15 51 -17 285 -17
  263 0 266 0 281 22 14 19 16 63 16 276 l0 253 -25 24 c-29 30 -35 31 -69 4
  l-26 -20 0 -167 0 -167 -47 70 c-133 200 -357 349 -602 400 -72 14 -248 26
  -296 19z"/>
  <path d="M1163 1005 c-18 -8 -42 -29 -53 -47 -19 -31 -20 -50 -20 -301 0 -364
  -4 -357 225 -357 l135 0 0 -60 0 -60 -40 0 c-70 0 -108 -69 -58 -104 19 -14
  63 -16 280 -16 245 0 259 1 278 20 42 42 7 100 -62 100 l-38 0 0 60 0 60 136
  0 c226 0 224 -3 224 362 0 246 -1 265 -20 296 -38 61 -44 62 -522 62 -349 -1
  -439 -4 -465 -15z"/>
  <path d="M276 759 l-26 -20 0 -258 c0 -283 3 -301 59 -301 53 0 60 21 63 188
  l3 152 60 -81 c115 -156 276 -270 471 -334 42 -14 78 -25 80 -25 1 0 -2 15 -7
  32 -5 18 -9 47 -9 65 0 28 -5 33 -37 44 -189 61 -384 225 -472 397 l-21 42
  188 0 c170 0 191 2 205 18 18 19 22 49 9 68 -20 30 -55 34 -295 34 -232 0
  -246 -1 -271 -21z"/>
  </g>
</svg>