<svg  xmlns="http://www.w3.org/2000/svg" width="32px" height="32px" viewBox="0 0 250.000000 260.000000" preserveAspectRatio="xMidYMid meet">
  <g transform="translate(0.000000,260.000000) scale(0.100000,-0.100000)" fill="#000000" stroke="none">
  <path d="M660 1727 c-97 -27 -186 -110 -216 -199 -34 -105 2 -236 88 -313 150
  -135 386 -83 471 104 31 67 30 179 -3 244 -65 129 -213 200 -340 164z m146
  -132 c122 -61 137 -218 28 -301 -33 -25 -46 -29 -104 -29 -58 0 -71 4 -104 29
  -109 82 -96 236 23 298 66 34 93 35 157 3z"/>
  <path d="M1365 1608 c-40 -22 -47 -64 -17 -91 17 -15 59 -17 405 -17 l386 0
  15 22 c23 32 20 54 -10 77 -26 20 -37 21 -393 21 -254 -1 -372 -4 -386 -12z"/>
  <path d="M1365 1128 c-40 -22 -47 -64 -17 -91 17 -15 59 -17 405 -17 l386 0
  15 22 c23 32 20 54 -10 77 -26 20 -37 21 -393 21 -254 -1 -372 -4 -386 -12z"/>
  <path d="M405 1011 c-53 -14 -91 -39 -120 -81 -40 -58 -47 -169 -15 -253 105
  -278 604 -347 842 -115 62 61 90 123 96 215 4 64 1 79 -22 128 -21 42 -38 61
  -74 83 l-47 27 -315 2 c-173 1 -328 -2 -345 -6z m638 -122 c38 -17 51 -50 44
  -115 -14 -139 -157 -228 -363 -227 -202 1 -342 94 -352 232 -5 65 8 97 41 111
  33 13 601 12 630 -1z"/>
  <path d="M1365 648 c-40 -22 -47 -64 -17 -91 17 -15 59 -17 405 -17 l386 0 15
  22 c23 32 20 54 -10 77 -26 20 -37 21 -393 21 -254 -1 -372 -4 -386 -12z"/>
  </g>
</svg>