<svg  xmlns="http://www.w3.org/2000/svg" width="32px" height="32px" viewBox="0 0 250.000000 260.000000" preserveAspectRatio="xMidYMid meet">
  <g transform="translate(0.000000,260.000000) scale(0.100000,-0.100000)"
  fill="#000000" stroke="none">
  <path d="M1533 1838 c-11 -13 -125 -302 -253 -643 -128 -341 -237 -631 -242
  -645 -8 -22 -30 27 -165 363 -128 319 -160 391 -179 399 -55 25 -57 21 -257
  -478 -103 -258 -187 -475 -187 -482 0 -20 39 -52 64 -52 13 0 30 7 37 16 8 10
  43 89 79 178 l65 161 175 3 175 2 59 -150 c33 -83 68 -164 78 -180 21 -35 58
  -40 86 -12 10 10 55 118 101 240 l84 222 317 0 318 0 82 -222 c48 -132 90
  -230 102 -240 29 -25 65 -23 83 6 21 32 16 49 -97 345 -49 130 -167 441 -260
  691 -94 250 -179 465 -191 478 -11 12 -28 22 -37 22 -9 0 -26 -10 -37 -22z
  m171 -571 c71 -188 131 -348 133 -354 4 -10 -53 -13 -267 -13 -214 0 -271 3
  -267 13 185 496 262 697 266 697 3 0 64 -154 135 -343z m-971 -330 c31 -78 57
  -146 57 -150 0 -4 -54 -7 -120 -7 -66 0 -120 3 -120 7 0 15 114 293 120 293 4
  0 32 -64 63 -143z"/>
  </g>
</svg>