<svg  xmlns="http://www.w3.org/2000/svg" width="32px" height="32px" viewBox="0 0 250.000000 260.000000" preserveAspectRatio="xMidYMid meet">
  <g transform="translate(0.000000,260.000000) scale(0.100000,-0.100000)"
  fill="#000000" stroke="none">
    <path d="M320 1843 c-73 -37 -70 -1 -70 -826 0 -663 2 -743 16 -773 28 -59
    102 -81 164 -49 62 32 60 1 60 822 0 574 -3 754 -13 772 -29 58 -101 83 -157
    54z"/>
    <path d="M1485 1608 c-11 -6 -23 -16 -27 -22 -4 -6 -8 -236 -8 -512 0 -473 1
    -502 18 -517 26 -24 68 -21 86 5 9 12 16 41 16 63 l0 41 48 -45 c57 -54 125
    -81 200 -81 67 0 109 18 167 71 91 84 138 226 117 349 -25 137 -115 256 -218
    286 -97 28 -182 5 -264 -72 l-50 -47 0 224 c0 123 -4 229 -8 235 -6 10 -46 34
    -54 34 -2 0 -12 -6 -23 -12z m386 -499 c105 -53 148 -212 90 -327 -22 -43 -80
    -98 -118 -113 -40 -15 -111 -10 -152 11 -114 58 -158 209 -97 334 56 115 165
    152 277 95z"/>
    <path d="M934 1604 c-7 -3 -96 -230 -200 -506 -178 -476 -187 -502 -173 -527
    18 -32 69 -41 90 -15 8 9 41 89 74 178 l61 161 184 0 184 0 61 -162 c34 -89
    68 -169 75 -178 28 -34 100 -6 100 39 0 27 -368 999 -382 1008 -14 8 -56 9
    -74 2z m108 -409 l66 -175 -138 0 -138 0 66 175 c36 96 68 175 72 175 4 0 36
    -79 72 -175z"/>
  </g>
</svg>