<svg  xmlns="http://www.w3.org/2000/svg" width="32px" height="32px" viewBox="0 0 250.000000 260.000000" preserveAspectRatio="xMidYMid meet">
  <g transform="translate(0.000000,260.000000) scale(0.100000,-0.100000)"
  fill="#000000" stroke="none">
    <path d="M1707 1802 c-10 -10 -17 -27 -17 -37 0 -10 42 -62 94 -115 153 -157
    231 -320 258 -536 34 -276 -76 -566 -286 -760 -42 -39 -66 -69 -66 -83 0 -26
    33 -61 58 -61 46 0 165 116 247 241 162 246 211 534 139 819 -32 128 -115 294
    -199 398 -109 135 -186 180 -228 134z"/>
    <path d="M800 1535 l-156 -155 -120 0 c-108 0 -125 -2 -170 -25 -29 -15 -59
    -40 -74 -62 -24 -37 -25 -43 -28 -253 -4 -226 2 -266 40 -315 40 -51 89 -65
    228 -65 l125 0 155 -155 c131 -131 162 -157 192 -162 32 -5 41 -1 68 25 l30
    30 0 611 c0 426 -3 617 -11 634 -13 29 -48 47 -91 47 -27 0 -53 -21 -188 -155z
    m170 -517 l0 -513 -127 127 c-71 69 -138 131 -150 137 -13 6 -78 11 -157 11
    -177 0 -166 -16 -166 241 l0 198 26 20 c24 19 40 21 163 21 l136 0 135 135
    c74 74 136 135 137 135 2 0 3 -231 3 -512z"/>
    <path d="M1478 1593 c-37 -44 -35 -51 54 -157 115 -137 165 -283 154 -456 -9
    -159 -47 -248 -169 -399 -68 -85 -74 -102 -45 -138 14 -18 55 -16 86 3 70 42
    185 231 222 364 67 245 9 512 -156 714 -64 80 -116 104 -146 69z"/>
    <path d="M1236 1358 c-23 -32 -21 -41 24 -116 54 -88 65 -130 65 -234 0 -85
    -2 -90 -53 -190 -29 -57 -52 -108 -52 -114 0 -19 36 -44 64 -44 52 0 112 93
    147 228 31 124 19 250 -37 367 -53 114 -120 157 -158 103z"/>
  </g>
</svg>