<svg  xmlns="http://www.w3.org/2000/svg" width="32px" height="32px" viewBox="0 0 250.000000 260.000000" preserveAspectRatio="xMidYMid meet">
  <g transform="translate(0.000000,260.000000) scale(0.100000,-0.100000)"
  fill="#000000" stroke="none">
  <path d="M1095 1971 c-277 -37 -530 -196 -686 -433 -193 -294 -209 -641 -45
  -967 112 -222 330 -397 593 -478 80 -24 102 -27 253 -27 151 0 173 3 253 27
  442 136 730 533 703 972 -21 341 -198 620 -508 798 -145 84 -390 130 -563 108z
  m320 -142 c290 -70 526 -304 606 -604 17 -61 22 -109 22 -205 0 -142 -14 -213
  -65 -335 -47 -111 -103 -189 -197 -276 -150 -140 -294 -205 -498 -225 l-73 -7
  0 842 0 841 63 -6 c34 -3 98 -14 142 -25z"/>
  </g>
</svg>