<svg  xmlns="http://www.w3.org/2000/svg" width="32px" height="32px" viewBox="0 0 250.000000 260.000000" preserveAspectRatio="xMidYMid meet">
  <g transform="translate(0.000000,260.000000) scale(0.100000,-0.100000)"
  fill="#000000" stroke="none">
  <path d="M475 1966 c-92 -29 -158 -86 -197 -171 -21 -46 -23 -65 -26 -268 -4
  -244 1 -267 57 -267 57 0 61 16 61 239 0 215 6 248 53 300 50 54 85 61 308 61
  187 0 207 2 222 18 24 27 21 58 -9 81 -25 20 -39 21 -228 20 -133 0 -215 -5
  -241 -13z"/>
  <path d="M1477 1960 c-31 -25 -35 -60 -9 -83 16 -15 47 -17 223 -17 221 0 257
  -7 306 -61 47 -52 53 -85 53 -302 0 -185 2 -205 18 -220 28 -25 69 -21 87 7
  14 21 16 56 13 243 -3 203 -5 222 -26 268 -30 65 -92 128 -156 157 -47 21 -67
  23 -266 26 -208 3 -217 3 -243 -18z"/>
  <path d="M1092 1489 c-145 -17 -291 -78 -409 -170 -65 -51 -180 -187 -189
  -225 -9 -36 19 -74 56 -74 24 0 38 12 87 77 155 207 396 305 666 272 205 -25
  366 -117 484 -276 46 -62 58 -73 83 -73 37 0 65 38 56 74 -9 38 -120 171 -184
  221 -121 96 -263 154 -427 174 -100 12 -118 12 -223 0z"/>
  <path d="M1147 1190 c-110 -19 -208 -94 -259 -198 -30 -60 -33 -76 -33 -152 0
  -74 4 -93 31 -150 38 -79 97 -140 172 -177 50 -25 68 -28 152 -28 84 0 102 3
  152 28 147 72 230 236 198 393 -39 193 -219 316 -413 284z m148 -130 c44 -17
  106 -72 127 -112 29 -57 31 -156 4 -211 -40 -82 -106 -126 -198 -134 -99 -10
  -188 41 -234 133 -29 58 -26 156 6 213 59 105 187 153 295 111z"/>
  <path d="M276 759 l-28 -22 4 -226 c3 -224 3 -227 31 -283 35 -71 88 -120 161
  -147 51 -19 77 -21 269 -21 176 0 216 3 235 16 40 28 21 87 -31 99 -12 3 -112
  6 -223 7 -199 3 -201 3 -241 30 -74 49 -83 83 -83 319 0 149 -3 210 -12 221
  -22 28 -53 30 -82 7z"/>
  <path d="M2090 773 c-37 -13 -40 -33 -40 -242 0 -236 -9 -270 -83 -319 -40
  -27 -42 -27 -241 -30 -111 -1 -211 -4 -223 -7 -52 -12 -71 -71 -31 -99 19 -13
  59 -16 235 -16 192 0 218 2 269 21 73 27 126 76 161 147 28 56 28 59 31 283
  l4 226 -28 22 c-28 22 -30 23 -54 14z"/>
  </g>
</svg>