<svg version="1.0" xmlns="http://www.w3.org/2000/svg" width="32px" height="32px" viewBox="0 0 250.000000 260.000000" preserveAspectRatio="xMidYMid meet">
    <g transform="translate(0.000000,260.000000) scale(0.100000,-0.100000)"
    fill="#000000" stroke="none">
    <path d="M915 1846 c-150 -29 -260 -90 -363 -200 -76 -81 -114 -146 -148 -251
    -23 -68 -27 -98 -27 -200 -1 -105 3 -131 26 -202 91 -272 346 -453 639 -453
    126 0 248 39 359 114 l54 36 255 -255 c207 -207 260 -255 282 -255 29 0 58 32
    58 64 0 12 -97 117 -255 276 l-256 256 44 65 c83 125 120 294 98 448 -39 263
    -233 480 -488 545 -89 23 -197 28 -278 12z m279 -136 c226 -70 389 -309 373
    -545 -20 -287 -252 -505 -537 -505 -278 0 -511 212 -536 489 -26 276 184 543
    461 585 53 8 174 -4 239 -24z"/>
    <path d="M1005 1548 c-33 -19 -35 -27 -35 -160 l0 -128 -124 0 c-110 0 -126
    -2 -150 -21 -30 -23 -33 -45 -10 -77 14 -21 22 -22 150 -22 l134 0 0 -133 c0
    -117 2 -136 18 -150 24 -22 65 -21 85 1 14 15 17 42 17 150 l0 132 133 0 c117
    0 136 2 150 18 18 19 22 49 9 68 -17 26 -56 34 -171 34 l-121 0 0 128 c0 70
    -4 132 -8 138 -6 10 -46 34 -54 34 -2 0 -12 -6 -23 -12z"/>
    </g>
</svg>