<svg xmlns="http://www.w3.org/2000/svg" width="32" height="32" viewBox="0 0 250 260">
 <path d="M91.5 75.4c-15 2.9-26 9-36.3 20-7.6 8.1-11.4 14.6-14.8 25.1-2.3 6.8-2.7 9.8-2.7 20-.1 10.5.3 13.1 2.6 20.2 9.1 27.2 34.6 45.3 63.9 45.3 12.6 0 24.8-3.9 35.9-11.4l5.4-3.6 25.5 25.5c20.7 20.7 26 25.5 28.2 25.5 2.9 0 5.8-3.2 5.8-6.4 0-1.2-9.7-11.7-25.5-27.6l-25.6-25.6 4.4-6.5c8.3-12.5 12-29.4 9.8-44.8-3.9-26.3-23.3-48-48.8-54.5-8.9-2.3-19.7-2.8-27.8-1.2zM119.4 89c22.6 7 38.9 30.9 37.3 54.5-2 28.7-25.2 50.5-53.7 50.5-27.8 0-51.1-21.2-53.6-48.9-2.6-27.6 18.4-54.3 46.1-58.5 5.3-.8 17.4.4 23.9 2.4z"/>
 <path d="M100.5 105.2c-3.3 1.9-3.5 2.7-3.5 16V134H84.6c-11 0-12.6.2-15 2.1-3 2.3-3.3 4.5-1 7.7 1.4 2.1 2.2 2.2 15 2.2H97v13.3c0 11.7.2 13.6 1.8 15 2.4 2.2 6.5 2.1 8.5-.1 1.4-1.5 1.7-4.2 1.7-15V146h13.3c11.7 0 13.6-.2 15-1.8 1.8-1.9 2.2-4.9.9-6.8-1.7-2.6-5.6-3.4-17.1-3.4H109v-12.8c0-7-.4-13.2-.8-13.8-.6-1-4.6-3.4-5.4-3.4-.2 0-1.2.6-2.3 1.2z"/>
</svg>
