<svg  xmlns="http://www.w3.org/2000/svg"
 width="32px" height="32px" viewBox="0 0 250.000000 260.000000" preserveAspectRatio="xMidYMid meet">
  <g transform="translate(0.000000,260.000000) scale(0.100000,-0.100000)"
  fill="#000000" stroke="none">
  <path d="M1148 1970 c-65 -11 -163 -66 -205 -114 -20 -23 -47 -66 -62 -96
  l-26 -55 -3 -363 c-4 -407 0 -433 64 -529 82 -120 248 -179 388 -139 131 38
  219 127 252 256 13 50 15 122 12 417 l-3 358 -26 55 c-41 84 -90 135 -172 174
  -78 37 -145 48 -219 36z m133 -126 c68 -20 130 -81 153 -152 15 -44 17 -95 14
  -399 -3 -383 -2 -376 -69 -442 -44 -45 -83 -62 -151 -68 -79 -8 -135 15 -191
  77 -24 26 -49 66 -55 88 -8 27 -12 145 -12 378 0 336 0 339 24 390 30 65 96
  117 171 135 46 11 57 10 116 -7z"/>
  <path d="M575 1058 c-27 -21 -27 -23 -21 -95 24 -294 240 -531 538 -593 l57
  -11 3 -137 3 -136 28 -16 c24 -13 30 -13 55 0 l27 16 3 136 3 137 57 11 c144
  30 283 108 372 208 68 76 136 216 155 315 22 115 20 142 -12 166 -46 37 -93 7
  -93 -59 0 -60 -38 -191 -73 -249 -181 -308 -597 -362 -846 -112 -36 36 -78 89
  -94 118 -31 58 -67 188 -67 243 0 67 -47 96 -95 58z"/>
  </g>
</svg>