<svg  xmlns="http://www.w3.org/2000/svg" width="32px" height="32px" viewBox="0 0 250.000000 260.000000" preserveAspectRatio="xMidYMid meet">
  <g transform="translate(0.000000,260.000000) scale(0.100000,-0.100000)"
  fill="#000000" stroke="none">
  <path d="M305 1686 c-57 -25 -56 -10 -53 -644 l3 -584 28 -24 c18 -15 41 -24
  61 -24 28 0 43 10 90 60 31 34 70 79 88 101 17 21 35 36 39 32 4 -5 24 -50 44
  -102 65 -172 81 -191 163 -191 56 0 197 72 217 110 17 34 19 78 5 116 -6 15
  -9 29 -6 31 9 9 99 -38 165 -84 36 -26 116 -95 176 -154 61 -58 125 -114 142
  -123 58 -30 110 -30 253 -1 212 42 252 66 308 180 66 134 130 293 136 335 8
  57 -14 133 -54 188 -50 69 -96 91 -266 126 l-153 31 -3 156 c-3 147 -4 158
  -28 193 -33 49 -117 91 -166 83 -60 -10 -120 -52 -143 -100 -20 -40 -21 -60
  -21 -284 l0 -241 -42 5 c-59 8 -88 20 -88 37 0 11 -566 550 -790 752 -33 30
  -68 37 -105 20z m558 -606 l188 -175 -122 -5 c-117 -5 -122 -6 -145 -33 -13
  -16 -24 -40 -24 -56 0 -15 27 -94 60 -176 33 -82 60 -150 60 -152 0 -1 -26
  -16 -58 -32 l-59 -30 -54 142 c-61 161 -87 197 -143 197 -29 0 -43 -8 -75 -43
  -21 -23 -57 -62 -79 -87 l-41 -45 -1 478 0 479 153 -144 c84 -78 237 -222 340
  -318z m670 289 c12 -7 25 -17 29 -23 4 -6 8 -86 8 -177 0 -144 2 -170 18 -188
  13 -17 53 -28 192 -56 178 -36 205 -47 244 -98 36 -49 27 -104 -47 -267 -92
  -203 -85 -196 -242 -231 -145 -32 -176 -34 -208 -18 -12 7 -72 60 -132 118
  -123 118 -209 180 -339 242 -97 46 -105 62 -46 92 30 15 50 17 130 12 52 -3
  123 -13 158 -21 82 -18 111 -18 134 3 17 15 18 38 18 297 0 155 4 286 8 292 6
  9 41 33 50 34 2 0 13 -5 25 -11z"/>
  </g>
</svg>