<svg version="1.0" xmlns="http://www.w3.org/2000/svg"
 width="32px" height="32px" viewBox="0 0 250.000000 260.000000" preserveAspectRatio="xMidYMidmeet">
    <g transform="translate(0.000000,260.000000) scale(0.100000,-0.100000)"
    fill="#000000" stroke="none">
    <path d="M986 1953 c-160 -34 -290 -106 -412 -227 -212 -211 -349 -513 -317
    -700 14 -84 38 -132 94 -188 64 -64 138 -100 208 -101 49 -1 68 5 155 51 112
    59 172 68 236 33 47 -24 59 -65 71 -226 10 -147 28 -227 66 -303 58 -114 205
    -210 356 -233 143 -21 297 29 414 136 313 283 404 823 206 1220 -135 269 -418
    485 -711 541 -94 18 -277 17 -366 -3z m383 -124 c246 -62 488 -258 597 -484
    150 -312 87 -767 -141 -1012 -148 -161 -323 -200 -494 -113 -131 66 -173 153
    -192 394 -16 210 -41 266 -139 314 -47 23 -67 27 -140 27 -81 -1 -89 -3 -175
    -47 -49 -25 -100 -49 -112 -53 -54 -16 -173 79 -193 155 -38 140 68 407 234
    586 206 225 469 305 755 233z"/>
    <path d="M1144 1606 c-85 -37 -58 -166 36 -166 95 0 121 130 34 166 -39 16
    -32 16 -70 0z"/>
    <path d="M1510 1489 c-52 -20 -73 -75 -48 -122 17 -34 39 -46 80 -47 28 0 42
    7 62 31 14 17 26 39 26 50 0 36 -29 77 -61 88 -18 6 -32 11 -33 10 -1 0 -12
    -5 -26 -10z"/>
    <path d="M1720 1219 c-52 -20 -73 -75 -48 -122 17 -34 39 -46 80 -47 28 0 42
    7 62 31 14 17 26 39 26 50 0 36 -29 77 -61 88 -18 6 -32 11 -33 10 -1 0 -12
    -5 -26 -10z"/>
    <path d="M1713 855 c-60 -26 -71 -89 -24 -136 35 -35 77 -38 114 -9 55 43 41
    126 -25 149 -17 6 -31 11 -32 11 -1 -1 -15 -7 -33 -15z"/>
    <path d="M1473 615 c-60 -26 -71 -89 -24 -136 40 -39 82 -39 122 0 48 48 36
    111 -26 137 -40 16 -32 17 -72 -1z"/>
    </g>
</svg>