<svg  xmlns="http://www.w3.org/2000/svg" width="32px" height="32px" viewBox="0 0 250.000000 260.000000" preserveAspectRatio="xMidYMid meet">
  <g transform="translate(0.000000,260.000000) scale(0.100000,-0.100000)"
  fill="#000000" stroke="none">
  <path d="M996 1899 c-15 -12 -26 -30 -26 -45 0 -42 -27 -92 -78 -143 -51 -51
  -117 -91 -150 -91 -26 0 -72 -37 -72 -59 0 -27 29 -61 53 -61 92 -1 247 -153
  247 -242 0 -14 8 -32 18 -41 39 -36 102 -9 102 43 0 86 157 239 246 240 11 0
  28 8 37 18 34 37 13 86 -41 98 -114 24 -242 150 -242 237 0 23 -40 67 -60 67
  -4 0 -19 -9 -34 -21z m78 -262 c22 -24 52 -51 65 -60 l23 -16 -66 -63 -66 -64
  -66 64 -65 64 23 16 c13 8 41 35 63 58 22 24 42 44 44 44 2 0 22 -19 45 -43z"/>
  <path d="M1605 1488 c-27 -15 -35 -28 -35 -58 0 -14 -11 -47 -24 -75 -39 -85
  -197 -215 -260 -215 -9 0 -27 -5 -39 -11 -64 -34 -44 -99 33 -113 117 -21 270
  -168 286 -274 8 -57 28 -82 65 -82 32 0 59 31 59 70 1 98 153 251 281 284 79
  20 102 66 53 105 -15 12 -36 21 -48 21 -97 0 -286 189 -286 287 0 34 -8 46
  -37 62 -26 13 -23 13 -48 -1z m112 -327 l92 -89 -41 -28 c-22 -16 -62 -53 -89
  -83 l-48 -54 -63 65 c-35 36 -76 75 -93 86 -29 21 -29 22 -10 33 15 9 160 152
  160 158 0 0 41 -39 92 -88z"/>
  <path d="M885 1128 c-28 -16 -35 -28 -35 -68 0 -104 -154 -291 -301 -364 -39
  -20 -84 -36 -99 -36 -33 0 -80 -35 -80 -59 0 -34 28 -58 77 -66 129 -19 324
  -179 379 -311 9 -22 19 -61 23 -89 5 -40 11 -52 34 -65 24 -13 30 -13 55 0 22
  13 28 25 33 65 4 28 14 67 23 89 55 130 248 291 376 311 52 8 80 29 80 59 0
  38 -36 66 -83 66 -13 0 -57 17 -98 37 -138 69 -276 230 -294 343 -12 70 -15
  77 -40 88 -30 14 -25 14 -50 0z m137 -396 c29 -30 79 -72 111 -94 31 -21 57
  -40 57 -42 0 -2 -19 -15 -42 -29 -62 -36 -157 -126 -198 -186 -19 -28 -37 -51
  -40 -51 -3 0 -20 23 -39 51 -39 56 -121 135 -194 184 l-49 33 59 40 c69 47
  131 107 186 181 l39 53 28 -42 c16 -24 52 -67 82 -98z"/>
  </g>
</svg>