<svg  xmlns="http://www.w3.org/2000/svg"
 width="32px" height="32px" viewBox="0 0 250.000000 260.000000" preserveAspectRatio="xMidYMid meet">
<g transform="translate(0.000000,260.000000) scale(0.100000,-0.100000)"
fill="#000" stroke="none">
<path d="M418 1724 c-30 -9 -63 -30 -92 -60 -75 -75 -76 -80 -76 -592 0 -312
4 -456 12 -484 15 -51 77 -121 131 -147 43 -21 53 -21 817 -21 764 0 774 0
817 21 57 28 118 98 132 154 7 29 11 193 11 483 0 505 -1 511 -76 586 -78 79
-47 76 -888 75 -615 0 -749 -3 -788 -15z m293 -303 c50 -50 38 -135 -23 -167
-72 -37 -148 13 -148 97 0 40 15 65 48 83 45 25 90 20 123 -13z m360 0 c23
-24 29 -38 29 -73 -1 -46 -10 -64 -50 -91 -65 -45 -150 8 -150 94 0 40 15 65
48 83 45 25 90 20 123 -13z m360 0 c47 -48 37 -130 -21 -164 -36 -22 -69 -21
-100 0 -39 27 -49 45 -50 86 0 48 13 72 48 91 45 25 90 20 123 -13z m360 0
c47 -48 37 -130 -21 -164 -34 -21 -62 -21 -98 -3 -68 35 -73 137 -9 176 47 29
93 26 128 -9z m-840 -360 c50 -51 36 -137 -28 -170 -99 -51 -194 90 -114 170
41 41 101 41 142 0z m360 0 c47 -48 37 -130 -21 -164 -36 -22 -69 -21 -100 0
-40 27 -49 45 -50 91 0 93 106 138 171 73z m360 0 c47 -48 37 -130 -21 -164
-104 -62 -207 78 -121 164 41 41 101 41 142 0z m113 -302 c30 -23 33 -45 10
-77 l-15 -22 -569 0 -569 0 -15 22 c-23 32 -20 54 10 77 26 21 35 21 574 21
539 0 548 0 574 -21z"/>
</g>
</svg>