<svg  xmlns="http://www.w3.org/2000/svg" width="32px" height="32px" viewBox="0 0 250.000000 260.000000" preserveAspectRatio="xMidYMid meet">
<g transform="translate(0.000000,260.000000) scale(0.100000,-0.100000)"
fill="#000000" stroke="none">
  <path d="M764 1971 c-423 -68 -643 -540 -422 -908 45 -75 165 -186 241 -222
  109 -52 99 -57 147 74 42 114 43 124 24 199 l-6 26 160 0 c143 0 161 2 167 18
  3 9 9 90 12 180 l6 163 111 -3 111 -3 9 -57 9 -58 60 0 60 0 -7 63 c-20 178
  -138 362 -290 451 -107 63 -274 95 -392 77z m124 -158 c19 -38 45 -113 56
  -165 l6 -28 -100 0 c-55 0 -100 1 -100 3 0 20 47 161 63 189 27 49 51 49 75 1z
  m-213 -10 c-4 -10 -16 -55 -28 -100 l-20 -83 -94 0 c-94 0 -94 0 -82 22 21 40
  114 125 165 151 59 31 68 33 59 10z m401 -4 c53 -25 141 -103 167 -148 l18
  -31 -94 0 -94 0 -20 83 c-12 45 -24 90 -28 100 -9 22 -4 22 51 -4z m-466 -419
  l0 -120 -114 0 -114 0 -7 65 c-7 59 0 148 12 168 2 4 53 7 114 7 l109 0 0
  -120z m358 -2 l3 -118 -121 0 -120 0 0 113 c0 63 3 117 7 121 4 3 57 5 117 4
  l111 -3 3 -117z m-320 -320 c12 -46 24 -93 28 -106 6 -22 5 -22 -22 -10 -54
  23 -112 67 -163 125 -28 31 -51 61 -51 65 0 4 42 8 93 8 l94 0 21 -82z"/>
  <path d="M1650 1360 c-13 -13 -20 -33 -20 -60 l0 -40 -181 0 c-175 0 -212 -5
  -231 -34 -4 -6 -8 -61 -8 -122 0 -122 10 -144 62 -144 43 0 58 28 58 108 l0
  72 360 0 360 0 0 -73 c0 -82 15 -107 63 -107 45 0 57 31 57 151 0 104 -1 108
  -26 128 -25 20 -40 21 -209 21 l-182 0 -6 47 c-8 70 -55 95 -97 53z"/>
  <path d="M1485 1008 c-40 -22 -47 -64 -17 -91 15 -14 42 -17 151 -17 73 0 131
  -3 129 -7 -2 -5 -17 -32 -33 -60 l-30 -53 -148 0 c-174 0 -206 -10 -207 -66 0
  -47 24 -54 198 -54 l162 0 0 -119 0 -118 -50 -7 c-51 -7 -70 -24 -70 -64 0
  -34 32 -52 94 -52 121 0 146 39 146 229 l0 131 164 0 c159 0 165 1 180 22 23
  32 20 54 -10 77 -24 19 -40 21 -170 21 -79 0 -144 2 -144 5 0 2 23 39 50 81
  28 42 50 85 50 95 0 9 -12 27 -26 38 -25 20 -39 21 -213 21 -120 0 -193 -5
  -206 -12z"/>
  <path d="M932 1001 c-7 -4 -50 -109 -96 -232 -46 -123 -110 -293 -141 -378
  -55 -144 -58 -156 -44 -180 18 -32 58 -39 86 -14 11 10 37 64 58 120 l38 103
  137 0 137 0 42 -110 c42 -108 58 -130 99 -130 23 0 52 30 52 54 0 10 -31 99
  -69 199 -39 100 -101 267 -140 371 -38 104 -76 193 -83 197 -17 11 -59 11 -76
  0z m83 -333 c21 -57 40 -109 42 -115 4 -10 -17 -13 -87 -13 -70 0 -91 3 -87
  13 2 6 21 58 42 115 21 56 41 102 45 102 4 0 24 -46 45 -102z"/>
</g>
</svg>
