<svg  xmlns="http://www.w3.org/2000/svg" width="32px" height="32px" viewBox="0 0 250.000000 260.000000" preserveAspectRatio="xMidYMid meet">
<g transform="translate(0.000000,260.000000) scale(0.100000,-0.100000)" fill="#000000" stroke="none">
  <path d="M1835 1956 c-14 -14 -25 -32 -25 -40 0 -8 23 -41 51 -73 79 -89 124
  -164 155 -260 25 -78 29 -102 28 -208 -1 -102 -5 -131 -27 -193 -32 -93 -76
  -166 -149 -248 -32 -36 -58 -72 -58 -80 0 -20 45 -64 65 -64 9 0 41 23 71 52
  144 136 236 384 220 593 -13 173 -91 355 -199 469 -75 78 -97 87 -132 52z"/>
  <path d="M1612 1738 c-38 -19 -38 -52 0 -116 56 -91 73 -147 72 -237 0 -99
  -12 -141 -65 -229 -35 -58 -40 -74 -33 -95 13 -36 55 -49 88 -28 56 37 123
  194 133 312 7 88 -15 198 -57 282 -52 102 -90 133 -138 111z"/>
  <path d="M829 1717 c-82 -34 -123 -62 -170 -115 -187 -210 -121 -527 137 -657
  55 -28 66 -30 174 -30 108 0 119 2 174 30 113 57 190 148 227 266 59 190 -34
  393 -226 492 -53 27 -72 31 -160 34 -87 3 -107 1 -156 -20z m266 -126 c68 -32
  113 -75 147 -141 34 -65 33 -185 -2 -253 -29 -58 -95 -121 -153 -148 -58 -26
  -176 -26 -234 0 -110 50 -177 155 -177 276 -1 170 122 292 294 294 52 1 77 -5
  125 -28z"/>
  <path d="M451 779 c-130 -25 -213 -142 -196 -275 24 -194 214 -353 498 -415
  78 -18 116 -20 252 -16 136 4 173 8 248 31 107 32 183 69 263 130 114 85 169
  185 169 307 0 67 -4 81 -30 125 -37 58 -99 100 -174 114 -65 12 -966 12 -1030
  -1z m1071 -139 c106 -83 26 -265 -158 -362 -126 -66 -205 -83 -394 -83 -192 0
  -275 18 -399 86 -121 67 -187 149 -197 247 -6 53 19 106 59 122 12 5 257 9
  543 9 504 1 522 0 546 -19z"/>
</g>
</svg>
