<svg version="1.0" xmlns="http://www.w3.org/2000/svg" width="32px" height="32px" viewBox="0 0 499.000000 324.000000" preserveAspectRatio="xMidYMid meet">
<g transform="translate(0.000000,324.000000) scale(0.100000,-0.100000)"
fill="#000000" stroke="none">
<path d="M315 3115 c-5 -2 -22 -6 -37 -9 -15 -4 -43 -20 -62 -37 -71 -62 -67
37 -64 -1471 l3 -1356 30 -43 c17 -23 48 -52 70 -63 l40 -21 2200 0 2200 0 42
23 c24 12 55 41 70 64 l28 42 3 1350 c2 940 0 1362 -8 1388 -13 45 -52 93 -94
116 -29 16 -174 17 -2221 19 -1204 1 -2194 0 -2200 -2z m4215 -1500 l0 -1185
-2035 0 -2035 0 0 1185 0 1185 2035 0 2035 0 0 -1185z"/>
<path d="M810 2300 l0 -230 235 0 235 0 0 230 0 230 -235 0 -235 0 0 -230z"/>
<path d="M1810 2300 l0 -230 235 0 235 0 0 230 0 230 -235 0 -235 0 0 -230z"/>
<path d="M2760 2300 l0 -230 235 0 235 0 0 230 0 230 -235 0 -235 0 0 -230z"/>
<path d="M3790 2290 l0 -230 235 0 235 0 0 230 0 230 -235 0 -235 0 0 -230z"/>
<path d="M3210 1530 l0 -230 235 0 235 0 0 230 0 230 -235 0 -235 0 0 -230z"/>
<path d="M1330 1520 l0 -230 235 0 235 0 0 230 0 230 -235 0 -235 0 0 -230z"/>
<path d="M2240 1520 l0 -230 235 0 235 0 0 230 0 230 -235 0 -235 0 0 -230z"/>
<path d="M1100 855 l0 -165 1410 0 1410 0 0 165 0 165 -1410 0 -1410 0 0 -165z"/>
</g>
</svg>