<svg  xmlns="http://www.w3.org/2000/svg" width="40px" height="40px" viewBox="0 0 204.000000 164.000000" preserveAspectRatio="xMidYMid meet">
  <g transform="translate(0.000000,164.000000) scale(0.100000,-0.100000)"
  fill="#000000" stroke="none">
    <path d="M622 1216 c-13 -7 -32 -26 -43 -42 -18 -27 -19 -49 -19 -314 0 -389
    -15 -369 283 -370 167 0 199 2 203 15 4 8 1 22 -6 30 -10 12 -46 15 -200 15
    -168 0 -189 2 -203 18 -15 16 -17 52 -17 294 0 254 1 276 18 291 17 15 56 17
    359 17 317 0 341 -1 356 -18 15 -16 17 -48 17 -239 0 -184 2 -223 15 -233 12
    -10 18 -10 30 0 13 10 15 50 15 239 0 207 -2 229 -19 255 -37 55 -37 55 -416
    55 -266 0 -356 -3 -373 -13z"/>
    <path d="M804 1040 c-46 -18 -54 -46 -54 -182 0 -120 1 -128 24 -155 23 -27
    29 -28 126 -31 126 -5 164 2 193 34 23 25 24 25 60 8 34 -16 37 -16 61 0 26
    16 26 18 26 146 0 128 0 130 -26 146 -24 16 -27 16 -62 0 -35 -17 -37 -17 -53
    3 -9 11 -29 25 -44 31 -32 12 -221 12 -251 0z m237 -60 c17 -10 19 -22 19
    -120 0 -98 -2 -110 -19 -120 -21 -11 -189 -14 -215 -4 -13 5 -16 26 -16 124 0
    85 3 120 13 123 23 10 198 7 218 -3z m139 -121 l0 -90 -30 18 c-28 16 -30 22
    -30 73 0 50 3 57 28 72 15 10 28 18 30 18 1 0 2 -41 2 -91z"/>
    <path d="M1257 663 c-4 -3 -7 -30 -7 -60 l0 -53 -48 0 c-99 0 -112 -57 -14
    -62 l57 -3 3 -58 c2 -41 8 -60 18 -64 24 -9 38 13 44 70 l5 52 53 3 c35 2 55
    8 59 18 10 26 -17 44 -68 44 l-49 0 0 48 c0 47 -12 72 -35 72 -7 0 -15 -3 -18
    -7z"/>
  </g>
</svg>
