
<svg fill="#000000" width="16px" height="16px" viewBox="-3.6 -3.6 43.20 43.20" version="1.1" xmlns="http://www.w3.org/2000/svg" stroke="#000000" stroke-width="0.00036" transform="matrix(1, 0, 0, 1, 0, 0)rotate(0)">
<g id="SVGRepo_bgCarrier" stroke-width="0"/>
<g id="SVGRepo_tracerCarrier" stroke-linecap="round" stroke-linejoin="round" stroke="#CCCCCC" stroke-width="0.072"/>
<g id="SVGRepo_iconCarrier"> <title>details-line</title> <path d="M32,6H4A2,2,0,0,0,2,8V28a2,2,0,0,0,2,2H32a2,2,0,0,0,2-2V8A2,2,0,0,0,32,6Zm0,22H4V8H32Z" class="clr-i-outline clr-i-outline-path-1"/>
<path d="M9,14H27a1,1,0,0,0,0-2H9a1,1,0,0,0,0,2Z" class="clr-i-outline clr-i-outline-path-2"/>
<path d="M9,18H27a1,1,0,0,0,0-2H9a1,1,0,0,0,0,2Z" class="clr-i-outline clr-i-outline-path-3"/>
<path d="M9,22H19a1,1,0,0,0,0-2H9a1,1,0,0,0,0,2Z" class="clr-i-outline clr-i-outline-path-4"/> <rect x="0" y="0" width="36" height="36" fill-opacity="0"/> </g>
</svg>