<svg  xmlns="http://www.w3.org/2000/svg" width="32px" height="32px" viewBox="0 0 250.000000 260.000000" preserveAspectRatio="xMidYMid meet">
  <g transform="translate(0.000000,260.000000) scale(0.100000,-0.100000)" fill="#000000" stroke="none">
  <path d="M1095 1971 c-277 -36 -530 -196 -686 -433 -193 -294 -209 -641 -45
  -967 112 -222 330 -397 593 -478 80 -24 102 -27 253 -27 151 0 173 3 253 27
  370 114 633 406 692 771 22 137 20 170 -12 195 -28 23 -59 20 -79 -5 -6 -8
  -15 -51 -19 -96 -22 -257 -148 -477 -360 -630 -217 -156 -533 -191 -788 -88
  -103 42 -171 87 -260 170 -127 118 -211 266 -248 435 -20 94 -15 285 10 380
  80 299 308 527 606 606 112 29 298 30 410 0 162 -42 334 -150 431 -269 l47
  -57 -204 -6 c-112 -3 -205 -6 -206 -7 -1 -1 -9 -9 -17 -18 -21 -21 -20 -57 2
  -77 16 -15 51 -17 285 -17 263 0 266 0 281 22 14 19 16 63 16 276 l0 253 -25
  24 c-29 30 -35 31 -69 4 -26 -20 -26 -21 -26 -161 l0 -141 -48 45 c-127 119
  -276 202 -433 242 -104 27 -262 38 -354 27z"/>
  <path d="M1031 1374 c-58 -49 -61 -65 -61 -361 0 -304 3 -318 76 -361 69 -40
  100 -31 354 110 124 68 234 130 246 138 66 41 77 153 21 214 -12 14 -125 82
  -252 152 -210 116 -235 128 -290 132 -55 4 -64 1 -94 -24z m328 -215 c120 -66
  222 -126 224 -133 3 -7 2 -18 -1 -23 -12 -19 -453 -254 -470 -251 -15 3 -17
  30 -20 253 -1 137 0 255 3 262 2 7 13 13 24 13 11 0 119 -54 240 -121z"/>
  </g>
</svg>