<svg  xmlns="http://www.w3.org/2000/svg" width="32px" height="32px" viewBox="0 0 250.000000 260.000000" preserveAspectRatio="xMidYMid meet">
  <g transform="translate(0.000000,260.000000) scale(0.100000,-0.100000)" fill="#000000" stroke="none">
  <path d="M418 1844 c-30 -9 -63 -30 -92 -60 -77 -76 -77 -80 -74 -610 3 -508
  1 -492 71 -564 67 -69 68 -70 500 -70 l387 0 0 60 0 60 -375 0 c-417 0 -419 0
  -449 64 -14 30 -16 88 -16 478 0 427 1 444 20 476 39 64 15 62 820 62 805 0
  781 2 820 -62 17 -29 20 -50 20 -165 l0 -131 43 -10 c23 -5 50 -13 60 -17 16
  -7 17 4 17 137 0 181 -12 229 -76 292 -78 79 -47 76 -888 75 -615 0 -749 -3
  -788 -15z"/>
  <path d="M604 1546 c-83 -36 -55 -166 35 -166 54 1 91 39 91 93 0 24 -40 77
  -59 77 -5 0 -15 2 -23 5 -7 2 -27 -2 -44 -9z"/>
  <path d="M965 1546 c-31 -13 -55 -51 -55 -86 0 -10 12 -32 26 -49 54 -65 154
  -24 154 62 0 24 -40 77 -59 77 -5 0 -15 2 -23 5 -7 2 -27 -2 -43 -9z"/>
  <path d="M1330 1549 c-52 -20 -73 -75 -48 -122 17 -34 39 -46 80 -47 28 0 42
  7 62 31 14 17 26 39 26 50 0 36 -29 77 -61 88 -18 6 -32 11 -33 10 -1 0 -12
  -5 -26 -10z"/>
  <path d="M1690 1549 c-52 -20 -73 -75 -48 -122 17 -34 39 -46 80 -47 28 0 42
  7 62 31 14 17 26 39 26 50 0 36 -29 77 -61 88 -18 6 -32 11 -33 10 -1 0 -12
  -5 -26 -10z"/>
  <path d="M1429 1232 c-39 -20 -58 -38 -76 -71 l-23 -44 0 -456 c0 -422 2 -459
  19 -497 22 -47 59 -80 110 -95 23 -6 137 -9 312 -7 l276 3 40 27 c25 16 49 44
  62 71 21 44 22 51 19 508 l-3 464 -25 38 c-15 22 -45 47 -74 62 -49 25 -52 25
  -317 25 l-267 0 -53 -28z m595 -113 l26 -20 0 -438 c0 -379 -2 -439 -16 -459
  -15 -22 -18 -22 -281 -22 -234 0 -269 2 -285 17 -17 15 -18 42 -18 457 0 243
  4 446 8 452 20 30 52 33 293 34 234 0 248 -1 273 -21z"/>
  <path d="M1669 992 c-92 -48 -125 -151 -76 -237 72 -127 248 -124 315 5 46 89
  11 188 -82 235 -64 32 -91 31 -157 -3z m115 -113 c30 -23 33 -45 10 -77 -28
  -41 -104 -18 -104 32 0 26 9 39 35 54 27 15 28 15 59 -9z"/>
  <path d="M1705 526 c-43 -19 -66 -49 -72 -94 -13 -96 87 -163 176 -117 31 15
  61 69 61 107 0 36 -37 88 -75 104 -42 17 -51 17 -90 0z"/>
  <path d="M845 1186 c-31 -13 -55 -51 -55 -86 0 -10 12 -32 26 -49 54 -65 154
  -24 154 62 0 24 -40 77 -59 77 -5 0 -15 2 -23 5 -7 2 -27 -2 -43 -9z"/>
  <path d="M636 879 c-30 -23 -33 -45 -10 -77 15 -22 17 -22 300 -22 l284 0 0
  60 0 60 -274 0 c-261 0 -274 -1 -300 -21z"/>
  </g>
</svg>