<svg  xmlns="http://www.w3.org/2000/svg" width="32px" height="32px" viewBox="0 0 250.000000 260.000000" preserveAspectRatio="xMidYMid meet">
  <g transform="translate(0.000000,260.000000) scale(0.100000,-0.100000)" fill="#000000" stroke="none">
  <path d="M784 1966 c-58 -18 -110 -61 -142 -115 l-27 -46 -3 -773 c-2 -770 -2
  -772 19 -822 23 -55 82 -114 135 -136 49 -21 839 -21 888 0 53 22 112 81 135
  136 21 50 21 52 19 822 l-3 773 -27 46 c-33 56 -85 97 -146 115 -63 19 -787
  19 -848 0z m831 -120 c19 -8 44 -30 55 -48 20 -32 20 -48 20 -776 0 -819 2
  -795 -61 -827 -43 -23 -797 -22 -839 0 -62 32 -60 1 -60 822 0 732 0 749 20
  781 37 60 46 61 458 62 302 0 379 -3 407 -14z"/>
  <path d="M1065 528 c-40 -22 -47 -64 -17 -91 16 -14 43 -17 164 -17 128 0 147
  2 161 18 29 32 21 69 -20 91 -29 15 -261 14 -288 -1z"/>
  </g>
</svg>