<svg version="1.0" xmlns="http://www.w3.org/2000/svg" width="32px" height="32px" viewBox="0 0 250.000000 260.000000" preserveAspectRatio="xMidYMid meet">
    <g transform="translate(0.000000,260.000000) scale(0.100000,-0.100000)" fill="#000000" stroke="none">
    <path d="M1665 1942 c-72 -35 -102 -67 -184 -189 l-61 -93 -41 27 c-81 54
    -222 41 -288 -27 -58 -58 -241 -321 -241 -345 0 -28 30 -55 62 -55 30 0 43 14
    153 170 107 153 126 170 183 170 39 0 102 -25 102 -40 0 -3 -139 -217 -310
    -476 l-310 -469 0 -262 c0 -259 0 -262 22 -277 12 -9 29 -16 38 -16 14 0 186
    70 375 152 l80 35 408 609 c225 335 420 632 435 659 22 42 26 63 26 135 1 99
    -18 151 -80 220 -59 65 -123 93 -224 97 -78 4 -90 2 -145 -25z m252 -128 c76
    -60 102 -157 64 -239 -10 -23 -196 -308 -415 -635 l-396 -595 -157 -67 -158
    -66 -3 184 -2 183 391 593 c215 326 400 604 412 616 43 46 87 62 159 59 57 -2
    72 -7 105 -33z"/>
    <path d="M1963 1071 l-32 -49 39 -15 c42 -16 80 -66 80 -105 0 -38 -30 -92
    -61 -107 -19 -10 -59 -15 -123 -15 l-95 0 -41 -60 -41 -60 148 0 c166 0 202
    10 260 70 49 50 67 96 68 170 0 51 -6 75 -25 110 -26 47 -100 110 -128 110 -9
    0 -31 -22 -49 -49z"/>
    <path d="M541 769 c-54 -10 -122 -43 -163 -77 -48 -40 -97 -126 -115 -198 -38
    -154 46 -328 192 -399 27 -13 74 -27 103 -31 l52 -7 0 62 c0 59 -1 61 -25 61
    -65 0 -148 60 -188 135 -33 61 -30 157 7 219 35 59 93 102 160 117 40 9 56 18
    72 43 11 17 29 43 38 59 l18 27 -53 -1 c-30 -1 -74 -5 -98 -10z"/>
    </g>
</svg>