<svg  xmlns="http://www.w3.org/2000/svg" width="32px" height="32px" viewBox="0 0 250.000000 260.000000" preserveAspectRatio="xMidYMid meet">
<g transform="translate(0.000000,260.000000) scale(0.100000,-0.100000)" fill="#000000" stroke="none">
<path d="M709 1832 c-64 -33 -99 -90 -99 -162 l0 -47 -66 -6 c-124 -12 -214
-72 -263 -177 l-26 -55 -3 -340 c-4 -356 -1 -389 40 -440 38 -48 90 -65 210
-65 l106 0 4 -118 c3 -110 5 -121 31 -161 54 -81 48 -81 567 -81 519 0 513 0
567 81 26 40 28 51 31 161 l4 118 106 0 c120 0 172 17 210 65 41 51 44 84 40
440 l-3 340 -26 55 c-49 105 -139 165 -263 177 l-66 6 0 47 c0 72 -35 129 -99
162 l-53 28 -448 0 -448 0 -53 -28z m955 -113 c20 -16 26 -29 26 -60 l0 -39
-480 0 -480 0 0 39 c0 31 6 44 26 60 26 21 37 21 454 21 417 0 428 0 454 -21z
m282 -244 c28 -14 60 -40 74 -62 l25 -36 3 -335 c2 -290 1 -338 -13 -358 -15
-23 -21 -24 -119 -24 l-104 0 -4 118 c-3 107 -5 122 -28 155 -14 22 -46 48
-74 62 l-50 25 -446 0 -446 0 -50 -25 c-28 -14 -60 -40 -74 -62 -23 -33 -25
-48 -28 -155 l-4 -118 -104 0 c-98 0 -104 1 -119 24 -14 20 -15 68 -13 358 l3
335 25 36 c14 22 46 48 74 62 l50 25 686 0 686 0 50 -25z m-282 -596 l26 -20
0 -258 c0 -216 -2 -260 -16 -279 l-15 -22 -446 0 c-401 0 -448 2 -465 17 -17
15 -18 37 -18 279 l0 263 26 20 c26 21 37 21 454 21 417 0 428 0 454 -21z"/>
</g>
</svg>