<svg version="1.0" xmlns="http://www.w3.org/2000/svg" width="32px" height="32px" viewBox="0 0 250.000000 260.000000" preserveAspectRatio="xMidYMid meet">
    <g transform="translate(0.000000,260.000000) scale(0.100000,-0.100000)" fill="#000000" stroke="none">
    <path d="M463 1722 c-72 -26 -119 -59 -154 -112 -59 -88 -60 -101 -57 -617 l3
    -468 28 -57 c35 -71 88 -120 161 -147 56 -21 69 -21 706 -21 637 0 650 0 706
    21 73 27 126 76 161 147 l28 57 0 490 0 490 -26 55 c-33 70 -79 116 -149 149
    l-55 26 -650 2 c-604 2 -654 1 -702 -15z m1364 -128 c42 -20 57 -35 77 -77
    l26 -51 0 -283 0 -283 -780 0 -780 0 0 283 0 283 26 51 c20 42 35 57 77 77
    l51 26 626 0 626 0 51 -26z m-737 -994 l0 -180 -285 0 c-234 0 -292 3 -322 15
    -88 37 -112 89 -113 238 l0 107 360 0 360 0 0 -180z m840 73 c-1 -149 -25
    -201 -113 -238 -30 -12 -88 -15 -322 -15 l-285 0 0 180 0 180 360 0 360 0 0
    -107z"/>
    </g>
</svg>