<svg  xmlns="http://www.w3.org/2000/svg" width="32px" height="32px" viewBox="0 0 250.000000 260.000000" preserveAspectRatio="xMidYMid meet">
  <g transform="translate(0.000000,260.000000) scale(0.100000,-0.100000)"
  fill="#000000" stroke="none">
  <path d="M876 1959 l-26 -20 0 -219 0 -218 -50 -12 c-65 -16 -122 -58 -157
  -117 l-28 -48 -3 -532 c-3 -526 -2 -533 19 -583 23 -55 82 -114 135 -136 49
  -21 839 -21 888 0 53 22 112 81 135 136 21 50 22 57 19 583 l-3 532 -27 47
  c-34 58 -95 103 -159 118 l-49 12 0 218 0 219 -26 20 c-26 20 -38 21 -334 21
  -296 0 -308 -1 -334 -21z m574 -279 l0 -180 -240 0 -240 0 0 180 0 180 240 0
  240 0 0 -180z m165 -314 c19 -8 44 -30 55 -48 19 -32 20 -49 20 -536 0 -554 0
  -556 -61 -587 -43 -23 -797 -22 -839 0 -61 31 -60 25 -60 582 0 492 1 509 20
  541 37 60 46 61 458 62 302 0 379 -3 407 -14z"/>
  </g>
</svg>