<svg  xmlns="http://www.w3.org/2000/svg" width="32px" height="32px" viewBox="0 0 250.000000 260.000000" preserveAspectRatio="xMidYMid meet">
  <g transform="translate(0.000000,260.000000) scale(0.100000,-0.100000)"
  fill="#000000" stroke="none">
  <path d="M485 1841 c-48 -22 -79 -54 -100 -103 -12 -31 -15 -92 -15 -365 0
  -297 2 -332 19 -368 22 -48 44 -69 94 -90 31 -13 110 -15 549 -15 478 0 516 2
  554 19 47 22 80 59 95 110 7 23 9 154 7 373 l-3 336 -31 39 c-16 21 -50 48
  -74 61 -44 22 -45 22 -550 22 -470 0 -508 -2 -545 -19z m1059 -122 l26 -20 0
  -321 c0 -285 -2 -323 -17 -340 -15 -17 -45 -18 -524 -18 l-508 0 -15 22 c-14
  19 -16 69 -16 339 l0 318 26 20 c26 21 36 21 514 21 478 0 488 0 514 -21z"/>
  <path d="M1810 1270 c0 -359 -3 -383 -48 -433 -47 -52 -38 -52 -610 -57 l-533
  -5 23 -34 c49 -73 59 -76 264 -79 l184 -3 0 -57 0 -58 -42 -19 c-32 -15 -48
  -31 -63 -62 l-20 -42 -65 -1 c-85 0 -129 -22 -155 -77 l-20 -42 -211 -1 c-198
  0 -213 -1 -238 -21 -30 -23 -33 -45 -10 -77 15 -22 19 -22 240 -22 196 0 224
  -2 224 -15 0 -29 30 -75 60 -90 24 -13 83 -15 362 -15 252 1 339 4 356 14 28
  15 62 64 62 89 0 16 17 17 224 17 221 0 225 0 240 22 23 32 20 54 -10 77 -25
  20 -40 21 -238 21 l-211 1 -20 42 c-26 55 -70 77 -155 77 l-65 1 -20 42 c-15
  31 -31 47 -62 62 l-43 19 0 58 0 58 243 0 244 0 61 30 c68 35 115 82 146 149
  20 43 21 66 24 328 2 174 -1 296 -7 320 -10 38 -56 94 -93 114 -17 9 -18 -4
  -18 -331z m-600 -888 c0 -21 7 -48 16 -60 14 -20 23 -22 120 -22 l104 0 0 -60
  0 -60 -300 0 -300 0 0 60 0 60 104 0 c97 0 106 2 120 22 9 12 16 39 16 60 l0
  38 60 0 60 0 0 -38z"/>
  </g>
</svg>   