<svg  xmlns="http://www.w3.org/2000/svg" width="32px" height="32px" viewBox="0 0 250.000000 260.000000" preserveAspectRatio="xMidYMid meet">
  <g transform="translate(0.000000,260.000000) scale(0.100000,-0.100000)"
  fill="#000000" stroke="none">
  <path d="M953 1961 c-23 -11 -49 -30 -58 -44 -35 -54 -35 -77 6 -354 21 -147
  39 -276 39 -285 0 -16 -13 -18 -140 -18 l-139 0 -93 109 c-105 123 -126 136
  -221 129 -103 -8 -97 22 -97 -483 0 -518 -11 -477 125 -473 l90 3 100 117 100
  118 138 0 c124 0 137 -2 137 -18 0 -9 -18 -139 -40 -288 -42 -291 -42 -314 2
  -362 66 -70 180 -68 276 5 48 36 62 63 197 378 l121 280 249 5 c158 3 260 10
  276 17 41 18 98 72 119 112 74 146 -11 310 -175 340 -32 6 -151 11 -265 11
  l-205 0 -124 290 c-139 325 -159 356 -255 401 -71 34 -105 36 -163 10z m134
  -131 c18 -10 39 -29 47 -42 8 -13 72 -156 141 -318 70 -162 134 -303 142 -312
  15 -16 41 -18 272 -18 291 0 311 -4 345 -73 25 -52 15 -97 -30 -136 l-35 -31
  -264 0 c-240 0 -267 -2 -283 -18 -9 -9 -76 -154 -147 -321 -140 -328 -162
  -364 -229 -376 -69 -13 -69 -16 -20 325 25 168 43 318 42 335 -5 49 -30 55
  -252 55 l-199 0 -40 -42 c-21 -24 -68 -78 -105 -121 -107 -126 -102 -138 -102
  278 0 338 1 355 18 355 11 0 55 -42 107 -102 49 -57 95 -109 104 -116 11 -9
  72 -12 227 -12 236 0 244 2 244 63 0 18 -20 165 -43 328 -24 163 -41 301 -39
  307 6 19 64 14 99 -8z"/>
  </g>
</svg>