<svg version="1.0" xmlns="http://www.w3.org/2000/svg" width="32px" height="32px" viewBox="0 0 250.000000 260.000000" preserveAspectRatio="xMidYMid meet">
<g transform="translate(0.000000,260.000000) scale(0.100000,-0.100000)" fill="#000000" stroke="none">
    <path d="M1135 1939 c-112 -66 -253 -134 -358 -173 -99 -37 -287 -86 -331 -86
    -13 0 -35 -9 -50 -21 l-26 -20 0 -314 c0 -352 7 -429 53 -565 98 -287 336
    -518 689 -666 44 -19 88 -34 98 -34 39 0 258 108 380 187 148 97 289 251 363
    398 36 72 74 198 86 289 6 42 11 219 11 391 l0 314 -26 20 c-15 12 -37 21 -50
    21 -44 0 -232 49 -331 86 -105 39 -246 107 -358 173 -38 23 -72 41 -75 41 -3
    0 -37 -18 -75 -41z m161 -145 c95 -56 243 -123 349 -157 100 -33 236 -67 265
    -67 l22 0 -4 -322 c-4 -316 -5 -325 -31 -411 -82 -268 -251 -445 -572 -602
    l-115 -55 -115 55 c-149 73 -253 142 -338 224 -120 114 -186 223 -234 378 -26
    86 -27 95 -31 411 l-4 322 22 0 c33 0 207 46 306 81 95 33 307 135 352 168 15
    11 32 21 39 21 6 0 46 -21 89 -46z"/>
    <path d="M1131 1293 c-91 -47 -123 -138 -82 -229 10 -22 33 -52 52 -67 l33
    -26 -18 -136 c-18 -130 -18 -136 -1 -155 26 -29 164 -29 190 0 17 19 17 25 -1
    155 l-18 136 33 26 c39 31 70 94 71 142 0 56 -36 118 -86 147 -67 39 -109 41
    -173 7z"/>
</g>
</svg>
