<svg  xmlns="http://www.w3.org/2000/svg" width="32px" height="32px" viewBox="0 0 250.000000 260.000000" preserveAspectRatio="xMidYMid meet">
  <g transform="translate(0.000000,260.000000) scale(0.100000,-0.100000)"
  fill="#000000" stroke="none">
  <path d="M1300 1974 c-92 -32 -90 -21 -90 -474 0 -330 2 -396 15 -420 31 -59
  35 -60 474 -60 l401 0 32 29 33 30 -2 93 c-9 371 -282 699 -651 783 -67 15
  -191 26 -212 19z m221 -145 c204 -56 368 -197 459 -394 41 -88 55 -138 66
  -232 l7 -63 -362 0 -361 0 0 361 0 362 59 -7 c33 -4 92 -16 132 -27z"/>
  <path d="M870 1704 c-330 -87 -567 -363 -611 -711 -46 -365 172 -732 518 -873
  193 -78 417 -79 619 -1 223 86 419 292 489 514 36 111 42 180 21 213 -35 52
  -54 54 -451 54 l-365 0 0 373 c0 354 -1 374 -20 405 -20 32 -55 52 -88 52 -9
  -1 -60 -12 -112 -26z m118 -871 c29 -51 43 -53 442 -53 l370 0 -6 -27 c-15
  -66 -55 -169 -86 -221 -18 -32 -71 -95 -118 -142 -133 -134 -275 -196 -471
  -207 -205 -12 -406 71 -551 226 -110 118 -168 238 -189 397 -47 354 178 689
  526 785 l60 16 5 -376 c4 -279 8 -382 18 -398z"/>
  </g>
</svg>