<svg  xmlns="http://www.w3.org/2000/svg" width="32px" height="32px" viewBox="0 0 250.000000 260.000000" preserveAspectRatio="xMidYMid meet">
  <g transform="translate(0.000000,260.000000) scale(0.100000,-0.100000)"
  fill="#000000" stroke="none">
    <path d="M970 1720 c-348 -44 -616 -179 -674 -339 -27 -75 -20 -287 12 -348
    29 -56 84 -99 145 -114 66 -16 200 -5 271 22 92 34 111 65 168 274 20 73 37
    78 243 83 122 2 183 -1 215 -10 l45 -14 18 -74 c36 -153 40 -163 78 -200 49
    -48 92 -61 222 -67 132 -7 186 6 237 57 46 46 70 120 77 241 6 109 -3 148 -48
    206 -99 125 -292 222 -530 268 -101 19 -375 28 -479 15z m395 -125 c198 -28
    330 -76 437 -156 84 -63 108 -101 108 -173 0 -85 -24 -177 -50 -198 -30 -24
    -191 -25 -248 -2 -46 18 -55 34 -78 147 -18 92 -39 137 -77 162 -94 61 -523
    59 -606 -3 -43 -32 -60 -64 -90 -176 -16 -59 -37 -117 -48 -127 -24 -25 -123
    -42 -197 -36 -46 4 -65 11 -85 31 -25 25 -26 33 -29 146 -4 114 -3 120 22 156
    79 117 310 210 586 237 90 9 265 5 355 -8z"/>
    <path d="M783 765 c-60 -26 -71 -89 -24 -136 20 -20 39 -29 61 -29 22 0 41 9
    61 29 48 48 36 111 -26 137 -40 16 -32 17 -72 -1z"/>
    <path d="M1143 765 c-60 -26 -71 -89 -24 -136 20 -20 39 -29 61 -29 22 0 41 9
    61 29 48 48 36 111 -26 137 -40 16 -32 17 -72 -1z"/>
    <path d="M1503 765 c-60 -26 -71 -89 -24 -136 20 -20 39 -29 61 -29 22 0 41 9
    61 29 48 48 36 111 -26 137 -40 16 -32 17 -72 -1z"/>
    <path d="M963 405 c-60 -26 -71 -89 -24 -136 40 -39 82 -39 122 0 48 48 36
    111 -26 137 -40 16 -32 17 -72 -1z"/>
    <path d="M1323 405 c-60 -26 -71 -89 -24 -136 40 -39 82 -39 122 0 48 48 36
    111 -26 137 -40 16 -32 17 -72 -1z"/>
  </g>
</svg>