<svg  xmlns="http://www.w3.org/2000/svg" width="32px" height="32px" viewBox="0 0 250.000000 260.000000" preserveAspectRatio="xMidYMid meet">
  <g transform="translate(0.000000,260.000000) scale(0.100000,-0.100000)" fill="#000000" stroke="none">
    <path d="M1045 1970 c-141 -17 -287 -73 -412 -158 -103 -70 -230 -218 -290
    -337 -35 -69 -72 -202 -84 -300 -18 -157 10 -332 76 -472 115 -246 307 -409
    572 -489 79 -24 105 -27 243 -27 140 0 164 2 243 26 333 102 573 362 638 692
    8 40 13 122 12 190 -2 238 -83 433 -252 609 -189 196 -474 298 -746 266z m303
    -141 c40 -10 114 -40 165 -65 75 -39 109 -64 182 -138 100 -101 145 -170 186
    -285 129 -365 -25 -769 -360 -945 -134 -70 -233 -96 -371 -96 -138 0 -237 26
    -371 96 -334 176 -489 581 -360 944 41 116 86 184 186 285 72 73 108 100 180
    137 188 96 365 117 563 67z"/>
    <path d="M1114 1516 c-85 -37 -58 -166 36 -166 95 0 121 130 34 166 -39 16
    -32 16 -70 0z"/>
    <path d="M1125 1248 c-11 -6 -23 -16 -27 -22 -4 -6 -8 -128 -8 -272 0 -240 1
    -262 18 -277 24 -22 65 -21 85 1 15 16 17 50 17 278 0 142 -4 264 -8 270 -6
    10 -46 34 -54 34 -2 0 -12 -6 -23 -12z"/>
  </g>
</svg>