<svg  xmlns="http://www.w3.org/2000/svg" width="32px" height="32px" viewBox="0 0 250.000000 260.000000" preserveAspectRatio="xMidYMid meet">
  <g transform="translate(0.000000,260.000000) scale(0.100000,-0.100000)"
  fill="#000000" stroke="none">
  <path d="M840 1958 c-24 -13 -58 -40 -74 -61 l-31 -39 -3 -516 c-2 -343 0
  -529 7 -553 28 -96 90 -128 244 -129 l107 0 0 -58 0 -58 -42 -19 c-32 -15 -48
  -31 -63 -62 l-20 -42 -62 -1 c-97 0 -155 -32 -168 -91 l-7 -29 -212 0 c-201 0
  -215 -1 -240 -21 -30 -23 -33 -45 -10 -77 15 -22 19 -22 240 -22 196 0 224 -2
  224 -15 0 -29 30 -75 60 -90 24 -13 83 -15 362 -15 252 1 339 4 356 14 28 15
  62 64 62 89 0 16 17 17 224 17 221 0 225 0 240 22 23 32 20 54 -10 77 -25 20
  -40 21 -238 21 l-211 1 -20 42 c-26 55 -70 77 -155 77 l-65 1 -20 42 c-15 31
  -31 47 -62 62 l-43 19 0 58 0 58 108 0 c153 1 215 33 243 129 7 24 9 210 7
  553 l-3 516 -31 39 c-16 21 -50 48 -74 61 -43 21 -54 22 -310 22 -256 0 -267
  -1 -310 -22z m584 -119 l26 -20 0 -501 c0 -453 -2 -503 -17 -520 -15 -17 -37
  -18 -281 -18 -233 0 -268 2 -284 17 -17 15 -18 44 -18 519 l0 503 26 20 c25
  20 39 21 274 21 235 0 249 -1 274 -21z m-214 -1457 c0 -21 7 -48 16 -60 14
  -20 23 -22 120 -22 l104 0 0 -60 0 -60 -300 0 -300 0 0 60 0 60 104 0 c97 0
  106 2 120 22 9 12 16 39 16 60 l0 38 60 0 60 0 0 -38z"/>
  <path d="M996 1719 c-30 -24 -34 -59 -8 -82 16 -14 43 -17 164 -17 128 0 147
  2 161 18 24 27 21 58 -9 81 -24 19 -40 21 -154 21 -114 0 -130 -2 -154 -21z"/>
  <path d="M1005 1488 c-40 -22 -47 -64 -17 -91 16 -14 43 -17 164 -17 128 0
  147 2 161 18 29 32 21 69 -20 91 -29 15 -261 14 -288 -1z"/>
  </g>
</svg>