<svg  xmlns="http://www.w3.org/2000/svg" width="21px" height="21px" viewBox="0 0 250.000000 260.000000" preserveAspectRatio="xMidYMid meet">
  <g transform="translate(0.000000,260.000000) scale(0.100000,-0.100000)" fill="#0a6fae" stroke="none">
  <path d="M1095 1971 c-314 -42 -601 -245 -742 -526 -135 -268 -133 -583 4
  -860 67 -134 184 -270 304 -352 72 -50 203 -111 296 -140 80 -24 102 -27 253
  -27 151 0 173 3 253 27 93 29 224 90 296 140 216 148 369 405 402 675 28 222
  -31 461 -161 652 -91 135 -272 280 -424 343 -146 59 -340 86 -481 68z m206
  -146 c20 -13 53 -44 73 -68 53 -65 125 -231 150 -345 l8 -32 -322 0 -322 0 8
  32 c31 142 107 303 177 372 80 80 149 93 228 41z m-405 -81 c-46 -77 -90 -190
  -112 -286 l-18 -78 -153 0 c-84 0 -153 2 -153 5 0 38 131 207 214 277 61 50
  243 154 253 144 2 -2 -12 -30 -31 -62z m715 10 c63 -31 186 -130 230 -185 42
  -51 119 -168 119 -181 0 -4 -69 -8 -153 -8 l-153 0 -18 78 c-22 96 -66 209
  -112 285 -18 32 -34 60 -34 62 0 5 63 -21 121 -51z m-876 -734 l0 -240 -166 0
  -166 0 -12 58 c-26 131 -22 315 9 398 l10 24 162 0 163 0 0 -240z m819 231
  c11 -17 19 -259 11 -363 l-7 -108 -348 0 -348 0 -7 108 c-8 104 0 346 11 363
  7 12 681 12 688 0z m474 -46 c18 -68 20 -274 3 -357 l-13 -68 -167 0 -166 0 0
  240 0 240 165 -2 165 -3 13 -50z m-1263 -557 c2 -7 16 -58 31 -113 28 -101 75
  -212 115 -274 l23 -33 -25 7 c-91 28 -220 117 -308 211 -64 68 -141 178 -141
  202 0 9 37 12 150 12 112 0 152 -3 155 -12z m765 0 c0 -7 -12 -50 -26 -97
  -148 -484 -425 -497 -579 -28 -19 60 -35 115 -35 123 0 12 48 14 320 14 242 0
  320 -3 320 -12z m430 -1 c0 -21 -97 -157 -153 -215 -29 -30 -79 -74 -113 -98
  -59 -42 -191 -110 -199 -102 -2 2 10 25 26 52 39 62 82 169 109 271 12 44 23
  86 25 93 6 18 305 17 305 -1z"/>
  </g>
</svg>