<svg version="1.0" xmlns="http://www.w3.org/2000/svg" width="32px" height="32px" viewBox="0 0 250.000000 260.000000" preserveAspectRatio="xMidYMid meet">
    <g transform="translate(0.000000,260.000000) scale(0.100000,-0.100000)" fill="#000000" stroke="none">
    <path d="M515 1922 c-66 -32 -125 -90 -125 -125 0 -12 9 -45 20 -74 23 -61 20
    -64 -61 -82 -80 -17 -93 -35 -97 -136 -6 -123 16 -156 109 -170 73 -11 77 -16
    56 -73 -34 -98 -23 -125 71 -182 96 -57 128 -55 190 10 26 27 52 50 57 50 5 0
    27 -20 50 -44 55 -60 82 -66 156 -31 70 34 116 74 125 108 3 16 -2 48 -15 82
    -12 31 -19 60 -16 65 3 4 29 13 57 20 29 7 63 18 75 26 31 19 46 76 41 153 -7
    100 -27 122 -122 136 -27 4 -50 14 -53 22 -3 8 3 39 13 69 13 40 16 61 8 81
    -19 55 -155 132 -209 119 -14 -4 -47 -29 -73 -57 l-48 -51 -50 51 c-63 65 -84
    69 -159 33z m163 -189 c52 -22 96 -9 152 43 45 42 49 44 75 32 22 -10 25 -16
    20 -37 -3 -15 -9 -51 -12 -82 -5 -52 -3 -58 26 -92 30 -33 56 -46 124 -61 23
    -5 27 -11 27 -40 0 -31 -3 -34 -37 -41 -112 -21 -163 -101 -129 -201 9 -26 16
    -48 16 -50 0 -1 -12 -9 -26 -19 -26 -17 -27 -16 -63 18 -49 47 -71 57 -127 57
    -43 0 -51 -4 -95 -48 l-49 -49 -30 18 c-29 18 -29 19 -15 53 21 50 19 103 -6
    143 -24 39 -60 60 -118 69 -39 6 -41 8 -41 43 0 35 1 37 52 49 98 23 145 99
    114 188 -21 61 -21 61 12 78 26 14 28 14 61 -21 19 -19 50 -42 69 -50z"/>
    <path d="M685 1596 c-101 -44 -79 -199 30 -212 126 -16 174 156 59 211 -38 18
    -50 18 -89 1z"/>
    <path d="M1505 1250 c-74 -10 -99 -35 -115 -117 -17 -88 -25 -103 -59 -103
    -16 0 -48 9 -72 20 -94 42 -148 14 -214 -111 -56 -106 -52 -129 29 -205 36
    -34 66 -68 66 -77 0 -8 -14 -28 -32 -44 -93 -83 -98 -89 -98 -132 0 -69 85
    -212 138 -232 22 -9 42 -6 109 17 79 27 83 27 102 10 12 -11 22 -38 26 -69 17
    -121 49 -147 185 -147 82 0 134 14 158 42 7 9 19 48 26 88 21 106 28 111 126
    76 71 -25 84 -27 110 -16 39 16 82 71 121 154 28 59 30 69 19 101 -8 24 -29
    49 -60 73 -83 64 -85 103 -7 151 93 57 91 135 -4 271 -52 74 -81 83 -168 51
    -64 -23 -106 -27 -117 -10 -4 7 -13 43 -20 82 -14 71 -33 103 -69 117 -36 13
    -119 18 -180 10z m129 -137 c2 -10 7 -36 11 -59 18 -119 124 -174 250 -129 58
    21 61 20 91 -31 l27 -46 -56 -53 c-100 -96 -100 -174 -1 -274 l53 -53 -19 -37
    c-36 -67 -31 -65 -105 -40 -60 20 -72 21 -114 10 -77 -20 -118 -77 -136 -183
    l-6 -38 -59 0 -59 0 -6 38 c-20 114 -52 161 -127 184 -40 12 -69 7 -174 -27
    -17 -5 -25 2 -47 44 l-28 50 60 58 c45 44 61 67 67 96 11 63 -11 115 -73 174
    -60 56 -60 56 -12 125 l19 26 50 -19 c99 -37 187 -18 229 52 10 17 24 57 30
    90 l12 59 59 0 c47 0 60 -3 64 -17z"/>
    <path d="M1479 840 c-127 -67 -151 -240 -47 -337 27 -26 98 -53 138 -53 40 0
    111 27 138 53 28 26 57 80 67 124 16 76 -41 180 -119 217 -46 22 -132 20 -177
    -4z m151 -125 c31 -33 32 -87 2 -117 -30 -31 -94 -31 -124 0 -51 51 -11 142
    62 142 26 0 43 -7 60 -25z"/>
    </g>
</svg>