<svg  xmlns="http://www.w3.org/2000/svg" width="32px" height="32px" viewBox="0 0 250.000000 260.000000" preserveAspectRatio="xMidYMid meet">
  <g transform="translate(0.000000,260.000000) scale(0.100000,-0.100000)" fill="#000000" stroke="none">
  <path d="M1320 1958 c-24 -13 -58 -40 -74 -61 l-31 -39 -3 -221 c-3 -185 0
  -228 13 -264 15 -39 74 -103 95 -103 6 0 10 -34 10 -76 0 -70 2 -78 29 -105
  53 -53 79 -44 195 70 l101 100 201 3 201 3 37 29 c68 52 76 82 76 321 0 228
  -7 262 -61 312 -55 50 -75 53 -422 53 -315 0 -324 -1 -367 -22z m705 -123 c25
  -24 25 -25 25 -217 0 -159 -3 -198 -16 -216 -15 -22 -20 -22 -222 -22 l-207 0
  -77 -77 -78 -78 0 78 0 77 -42 0 c-76 0 -78 5 -78 236 l0 203 26 20 c26 20 38
  21 336 21 l309 0 24 -25z"/>
  <path d="M787 1610 c-108 -19 -217 -104 -264 -207 -22 -48 -27 -73 -27 -143
  -1 -75 3 -93 30 -150 38 -79 97 -140 172 -177 50 -25 68 -28 152 -28 83 0 102
  3 151 27 100 50 168 132 195 241 64 248 -153 480 -409 437z m113 -121 c112
  -24 197 -134 188 -243 -18 -205 -260 -302 -402 -160 -47 47 -79 127 -74 183
  10 104 82 192 177 217 59 16 51 16 111 3z"/>
  <path d="M395 771 c-151 -37 -188 -244 -79 -451 60 -115 159 -189 307 -231 71
  -21 104 -24 242 -23 154 0 163 1 240 31 100 37 156 72 216 134 118 122 163
  337 94 454 -13 24 -42 54 -62 67 l-38 23 -445 2 c-245 1 -459 -2 -475 -6z
  m894 -121 c72 -38 41 -233 -54 -339 -150 -165 -578 -175 -753 -16 -103 93
  -148 311 -73 355 22 13 857 13 880 0z"/>
  </g>
</svg>