<svg  xmlns="http://www.w3.org/2000/svg" width="32px" height="32px" viewBox="0 0 250.000000 260.000000" preserveAspectRatio="xMidYMid meet">
  <g transform="translate(0.000000,260.000000) scale(0.100000,-0.100000)" fill="#000000" stroke="none">
  <path d="M485 1841 c-48 -22 -79 -54 -100 -103 -13 -33 -15 -127 -15 -725 0
  -679 0 -687 21 -731 13 -26 38 -54 62 -70 39 -26 46 -27 200 -30 130 -3 168 0
  203 13 51 19 89 61 104 113 8 25 10 257 8 734 l-3 696 -31 39 c-16 21 -50 48
  -74 61 -40 20 -58 22 -190 22 -120 0 -152 -4 -185 -19z m339 -122 l26 -20 0
  -681 c0 -620 -1 -683 -17 -700 -14 -16 -33 -18 -164 -18 -141 0 -149 1 -163
  22 -14 20 -16 103 -16 699 l0 678 26 20 c24 19 40 21 154 21 114 0 130 -2 154
  -21z"/>
  <path d="M1560 1838 c-24 -13 -58 -40 -74 -61 l-31 -39 -3 -696 c-2 -477 0
  -709 8 -734 15 -52 53 -94 104 -113 35 -13 73 -16 203 -13 154 3 161 4 200 30
  24 16 49 44 62 70 21 44 21 52 21 731 0 743 1 727 -53 786 -46 50 -90 61 -247
  61 -132 0 -150 -2 -190 -22z m344 -119 l26 -20 0 -678 c0 -596 -2 -679 -16
  -699 -14 -21 -22 -22 -161 -22 -122 0 -149 3 -165 17 -17 15 -18 50 -18 699
  l0 683 26 20 c24 19 40 21 154 21 114 0 130 -2 154 -21z"/>
  </g>
</svg>