<svg version="1.0" xmlns="http://www.w3.org/2000/svg" width="32px" height="32px" viewBox="0 0 250.000000 260.000000" preserveAspectRatio="xMidYMid meet">
    <g transform="translate(0.000000,260.000000) scale(0.100000,-0.100000)"
    fill="#000000" stroke="none">
    <path d="M275 1715 l-25 -24 0 -673 c0 -593 2 -676 16 -696 l15 -22 929 0 930
    0 16 25 c32 49 -7 95 -82 95 l-24 0 0 342 0 341 -242 244 c-134 135 -255 251
    -271 259 -21 11 -32 12 -50 3 -12 -6 -122 -110 -244 -232 l-222 -221 -169 113
    -170 112 -40 -11 c-23 -6 -93 -28 -156 -49 l-116 -39 0 208 0 209 -26 20 c-34
    27 -40 26 -69 -4z m1447 -452 l208 -208 0 -73 0 -74 -27 7 c-16 4 -138 29
    -272 56 -191 38 -248 46 -265 38 -11 -6 -69 -59 -128 -117 l-108 -107 -232 58
    -233 58 -130 -45 c-72 -24 -138 -48 -147 -51 -17 -7 -18 5 -18 172 l0 180 146
    46 147 46 174 -114 c96 -63 184 -115 196 -115 16 0 90 67 247 225 124 124 227
    225 230 225 3 0 98 -93 212 -207z m-44 -425 l252 -52 0 -183 0 -183 -780 0
    -780 0 0 128 0 128 150 49 149 49 238 -57 c131 -32 245 -57 253 -57 9 0 67 52
    130 115 63 63 119 115 125 115 5 0 124 -23 263 -52z"/>
    </g>
</svg>