<svg  xmlns="http://www.w3.org/2000/svg" width="32px" height="32px" viewBox="0 0 250.000000 260.000000" preserveAspectRatio="xMidYMid meet">
  <g transform="translate(0.000000,260.000000) scale(0.100000,-0.100000)" fill="#000000" stroke="none">
  <path d="M1140 1974 c-211 -36 -336 -99 -463 -234 -49 -52 -86 -103 -110 -152
  -63 -130 -69 -163 -76 -478 l-7 -285 -57 -132 c-31 -73 -57 -142 -57 -154 0
  -35 28 -84 59 -102 25 -15 60 -17 254 -17 l224 0 13 -60 c15 -71 54 -137 103
  -174 180 -137 430 -46 477 174 l13 60 229 0 228 0 35 33 c58 53 57 80 -11 237
  l-58 135 -6 290 c-6 283 -7 292 -34 370 -38 109 -77 176 -154 257 -101 107
  -238 187 -373 217 -53 12 -193 21 -229 15z m218 -135 c62 -14 180 -72 232
  -116 53 -43 127 -129 152 -176 10 -18 27 -61 39 -97 20 -59 23 -92 28 -355 l6
  -290 56 -132 56 -133 -717 0 -717 0 56 133 56 132 6 295 c7 325 9 340 75 457
  84 151 252 265 433 293 60 9 170 4 239 -11z m32 -1437 c0 -33 -45 -107 -79
  -129 -92 -61 -209 -31 -258 67 -42 83 -47 80 157 80 166 0 180 -1 180 -18z"/>
  </g>
</svg>