<svg  xmlns="http://www.w3.org/2000/svg" width="32px" height="32px" viewBox="0 0 250.000000 260.000000" preserveAspectRatio="xMidYMid meet">
  <g transform="translate(0.000000,260.000000) scale(0.100000,-0.100000)" fill="#000000" stroke="none">
  <path d="M538 1844 c-61 -19 -131 -88 -152 -151 -14 -41 -16 -125 -16 -682 l0
  -636 24 -50 c25 -55 81 -110 132 -131 49 -21 1319 -21 1368 0 51 21 107 76
  132 131 l24 50 0 631 c0 719 2 701 -76 778 -77 78 -60 76 -768 75 -511 0 -629
  -3 -668 -15z m1317 -118 c53 -23 75 -67 75 -153 l0 -73 -720 0 -720 0 0 73 c0
  85 22 130 73 152 48 21 1242 22 1292 1z m75 -837 c0 -540 0 -543 -61 -574 -42
  -22 -1276 -22 -1318 0 -61 31 -61 34 -61 574 l0 491 720 0 720 0 0 -491z"/>
  <path d="M803 1125 c-38 -16 -73 -68 -73 -108 0 -40 26 -84 60 -102 90 -46
  190 20 177 117 -6 46 -29 75 -74 94 -40 17 -49 17 -90 -1z"/>
  <path d="M1163 1125 c-38 -16 -73 -68 -73 -108 0 -64 54 -117 120 -117 66 0
  120 53 120 117 0 41 -35 92 -75 109 -42 17 -51 17 -92 -1z"/>
  <path d="M1525 1126 c-43 -19 -66 -49 -72 -94 -10 -73 44 -132 119 -132 42 1
  74 19 99 56 38 58 11 142 -56 170 -42 17 -51 17 -90 0z"/>
  <path d="M803 765 c-38 -16 -73 -68 -73 -108 0 -40 26 -84 60 -102 90 -46 190
  20 177 117 -6 46 -29 75 -74 94 -40 17 -49 17 -90 -1z"/>
  <path d="M1163 765 c-62 -27 -89 -104 -58 -165 41 -79 169 -79 210 0 32 62 4
  139 -60 166 -42 17 -51 17 -92 -1z"/>
  </g>
</svg>