<svg  xmlns="http://www.w3.org/2000/svg" width="32px" height="32px" viewBox="0 0 250.000000 260.000000" preserveAspectRatio="xMidYMid meet">
  <g transform="translate(0.000000,260.000000) scale(0.100000,-0.100000)" fill="#000000" stroke="none">
  <path d="M1110 1974 c-144 -18 -293 -73 -415 -152 -459 -299 -579 -891 -272
  -1347 48 -71 173 -199 237 -242 142 -96 321 -160 476 -170 84 -5 93 -4 113 16
  45 45 11 101 -61 101 -181 0 -399 88 -537 216 -125 115 -221 280 -257 439 -25
  110 -23 282 6 390 77 297 307 527 605 606 61 16 110 21 205 21 95 0 144 -5
  205 -21 298 -79 526 -307 606 -606 25 -96 31 -286 10 -380 -35 -162 -111 -296
  -241 -425 l-95 -95 -5 212 c-3 116 -7 213 -10 216 -3 2 -15 10 -27 16 -24 12
  -59 1 -75 -23 -4 -6 -8 -128 -8 -272 0 -240 1 -262 18 -277 16 -15 51 -17 280
  -17 249 0 263 1 282 20 25 25 25 55 0 80 -18 18 -33 20 -161 20 l-141 0 56 60
  c72 78 97 112 138 185 132 234 161 506 81 759 -103 328 -370 571 -714 650 -69
  16 -238 27 -299 20z"/>
  <path d="M1125 1608 c-11 -6 -23 -16 -27 -22 -4 -6 -8 -155 -8 -332 0 -298 1
  -322 18 -337 16 -15 47 -17 224 -17 186 0 206 2 221 18 18 19 22 49 9 68 -18
  28 -56 34 -201 34 l-151 0 0 278 c0 152 -4 282 -8 288 -6 10 -46 34 -54 34 -2
  0 -12 -6 -23 -12z"/>
  </g>
</svg>