<svg  xmlns="http://www.w3.org/2000/svg" width="32px" height="32px" viewBox="0 0 250.000000 260.000000" preserveAspectRatio="xMidYMid meet">
  <g transform="translate(0.000000,260.000000) scale(0.100000,-0.100000)" fill="#000000" stroke="none">
  <path d="M1115 1968 c-178 -34 -336 -192 -374 -376 -6 -29 -11 -116 -11 -192
  l0 -140 -27 -6 c-93 -20 -149 -59 -186 -127 -22 -42 -22 -47 -22 -467 l0 -425
  23 -44 c29 -54 65 -88 117 -112 37 -17 76 -19 575 -19 499 0 538 2 575 19 52
  24 88 58 117 112 l23 44 0 425 c0 420 0 425 -22 467 -37 68 -93 107 -185 127
  l-28 6 0 140 c0 76 -5 163 -11 192 -39 189 -196 343 -383 377 -69 13 -111 13
  -181 -1z m203 -130 c55 -17 119 -57 156 -98 75 -83 96 -159 96 -350 l0 -130
  -360 0 -360 0 0 133 c0 147 14 223 53 288 82 140 256 206 415 157z m417 -712
  c19 -8 44 -30 55 -48 19 -32 20 -49 20 -416 0 -422 -2 -437 -61 -467 -43 -23
  -1036 -22 -1079 0 -59 31 -60 36 -60 462 0 371 1 389 20 421 38 61 35 61 578
  62 407 0 499 -3 527 -14z"/>
  <path d="M1163 765 c-62 -27 -89 -104 -58 -165 41 -79 169 -79 210 0 32 62 4
  139 -60 166 -42 17 -51 17 -92 -1z"/>
  </g>
</svg>