<svg version="1.0" xmlns="http://www.w3.org/2000/svg" width="32px" height="32px" viewBox="0 0 250.000000 260.000000" preserveAspectRatio="xMidYMid meet">
    <g transform="translate(0.000000,260.000000) scale(0.100000,-0.100000)"
    fill="#000000" stroke="none">
    <path d="M1093 1725 c-102 -18 -209 -73 -280 -143 -83 -82 -127 -172 -158
    -324 -4 -23 -11 -27 -57 -33 -118 -14 -242 -103 -297 -213 -104 -207 -27 -450
    175 -553 l68 -34 666 0 666 0 68 34 c155 79 247 256 217 423 -32 180 -170 322
    -336 343 -49 6 -56 9 -60 33 -31 152 -75 242 -158 324 -72 72 -178 124 -285
    144 -93 16 -135 16 -229 -1z m192 -115 c178 -26 305 -142 346 -315 7 -27 16
    -68 21 -89 15 -63 52 -91 126 -99 164 -17 266 -126 266 -282 0 -116 -60 -216
    -159 -261 l-50 -24 -625 0 -625 0 -50 24 c-115 53 -183 191 -156 317 26 119
    114 204 229 221 130 19 153 40 172 153 36 218 187 348 420 364 8 0 47 -4 85
    -9z"/>
    </g>
</svg>