<svg  xmlns="http://www.w3.org/2000/svg" width="32px" height="32px" viewBox="0 0 250.000000 260.000000" preserveAspectRatio="xMidYMid meet">
  <g transform="translate(0.000000,260.000000) scale(0.100000,-0.100000)"
  fill="#000000" stroke="none">
  <path d="M845 1971 c-64 -11 -170 -66 -225 -117 -65 -60 -118 -166 -126 -249
  -13 -129 46 -280 139 -361 23 -19 69 -50 102 -67 57 -30 66 -32 170 -32 103 0
  114 2 177 32 210 99 304 347 209 549 -57 122 -180 220 -305 243 -64 12 -80 12
  -141 2z m192 -147 c67 -32 137 -110 159 -176 34 -105 -2 -236 -88 -313 -150
  -135 -386 -83 -471 104 -31 67 -30 179 3 244 77 154 246 214 397 141z"/>
  <path d="M1680 1727 c-62 -17 -112 -50 -159 -103 -103 -117 -93 -286 24 -400
  65 -65 128 -88 223 -82 261 15 375 336 183 516 -64 61 -188 92 -271 69z m147
  -133 c42 -20 57 -35 77 -77 14 -28 26 -65 26 -81 -1 -48 -34 -110 -76 -142
  -33 -25 -46 -29 -104 -29 -58 0 -72 4 -103 28 -110 84 -99 236 22 299 66 35
  93 35 158 2z"/>
  <path d="M390 1004 c-110 -48 -156 -161 -131 -322 38 -242 188 -414 417 -477
  92 -25 290 -31 404 -11 203 35 359 151 436 323 33 74 57 205 52 277 -8 100
  -69 189 -147 215 -24 8 -182 11 -515 11 -407 -1 -486 -3 -516 -16z m1019 -126
  c64 -68 48 -244 -34 -373 -65 -103 -167 -163 -319 -190 -111 -19 -180 -19
  -292 0 -223 38 -353 165 -385 376 -14 90 -7 138 27 179 l26 30 478 0 c478 0
  479 0 499 -22z"/>
  <path d="M1652 1013 c2 -4 15 -32 27 -60 l24 -53 144 0 c79 0 152 -4 162 -10
  52 -27 51 -156 0 -259 -52 -105 -141 -165 -287 -197 l-83 -18 -40 -59 -39 -60
  92 7 c308 23 511 216 513 486 0 75 -3 90 -27 132 -15 25 -45 57 -65 70 -36 22
  -49 23 -232 26 -106 2 -191 0 -189 -5z"/>
  </g>
</svg>