<svg  xmlns="http://www.w3.org/2000/svg" width="32px" height="32px" viewBox="0 0 250.000000 260.000000" preserveAspectRatio="xMidYMid meet">
  <g transform="translate(0.000000,260.000000) scale(0.100000,-0.100000)"
  fill="#000000" stroke="none">
    <path d="M538 1844 c-61 -19 -131 -88 -152 -151 -14 -41 -16 -125 -16 -682 l0
    -636 24 -50 c25 -55 81 -110 132 -131 49 -21 1319 -21 1368 0 51 21 107 76
    132 131 l24 50 0 631 c0 719 2 701 -76 778 -77 78 -60 76 -768 75 -511 0 -629
    -3 -668 -15z m1317 -118 c19 -8 44 -30 55 -48 19 -32 20 -49 20 -656 0 -687 1
    -675 -61 -707 -42 -22 -1276 -22 -1318 0 -62 32 -61 20 -61 707 0 607 1 624
    20 656 38 62 24 61 698 62 511 0 618 -2 647 -14z"/>
    <path d="M1053 1478 c-11 -13 -57 -120 -101 -238 l-80 -215 -110 -5 c-90 -4
    -114 -9 -131 -24 -25 -23 -27 -44 -5 -74 14 -21 21 -22 164 -22 177 0 156 -17
    229 178 28 73 54 139 58 147 5 9 44 -112 102 -318 51 -183 100 -340 109 -349
    8 -10 27 -18 42 -18 15 0 34 8 42 17 9 10 52 91 97 181 l81 162 114 0 c107 0
    116 1 130 22 23 32 20 54 -10 77 -24 19 -40 21 -150 21 -68 0 -134 -5 -147
    -11 -15 -7 -42 -48 -81 -126 -31 -63 -59 -114 -61 -112 -2 2 -40 132 -85 289
    -127 445 -117 415 -145 428 -35 16 -38 15 -62 -10z"/>
  </g>
</svg>