<svg  xmlns="http://www.w3.org/2000/svg" width="32px" height="32px" viewBox="0 0 250.000000 260.000000" preserveAspectRatio="xMidYMid meet">
  <g transform="translate(0.000000,260.000000) scale(0.100000,-0.100000)"
  fill="#000000" stroke="none">
  <path d="M418 1845 c-30 -10 -63 -32 -92 -61 -78 -77 -76 -59 -76 -778 l0
  -631 24 -50 c25 -55 81 -110 132 -131 26 -11 105 -14 359 -14 l325 0 0 60 0
  60 -315 0 c-351 0 -359 1 -389 64 -14 30 -16 91 -16 525 l0 490 343 3 343 3
  91 58 91 57 351 0 c390 0 404 -2 441 -62 17 -28 20 -50 20 -138 l0 -106 60
  -59 60 -59 0 160 c0 198 -11 244 -76 308 -73 73 -90 76 -503 76 l-356 1 -55
  75 c-113 156 -117 158 -450 161 -211 2 -274 -1 -312 -12z m572 -120 c24 -12
  96 -96 124 -142 4 -8 -13 -25 -46 -48 l-53 -35 -322 0 -323 0 0 73 c0 85 22
  130 73 152 48 21 506 21 547 0z"/>
  <path d="M1309 1232 c-39 -20 -58 -38 -76 -71 l-23 -44 0 -456 c0 -421 2 -459
  19 -496 22 -48 44 -69 94 -90 30 -12 92 -15 369 -15 318 0 334 1 376 21 26 13
  54 38 70 62 l27 40 3 311 c2 214 0 323 -8 350 -16 55 -310 354 -383 391 -49
  24 -59 25 -233 25 -179 0 -182 0 -235 -28z m383 -215 c3 -118 4 -125 32 -161
  45 -59 92 -76 219 -76 l107 0 0 -278 c0 -235 -2 -281 -16 -300 -15 -22 -16
  -22 -341 -22 -290 0 -328 2 -345 17 -17 15 -18 42 -18 457 0 243 4 446 8 452
  18 28 53 33 199 34 l151 0 4 -123z m212 -115 c-78 -4 -94 11 -94 92 l0 60 75
  -74 76 -75 -57 -3z"/>
  </g>
</svg>