<svg  xmlns="http://www.w3.org/2000/svg" width="32px" height="32px" viewBox="0 0 250.000000 260.000000" preserveAspectRatio="xMidYMid meet">
  <g transform="translate(0.000000,260.000000) scale(0.100000,-0.100000)" fill="#000000" stroke="none">
  <path d="M658 1965 c-62 -20 -130 -87 -151 -150 -14 -41 -17 -94 -17 -323 0
  -257 1 -274 18 -267 9 4 36 14 60 22 l42 15 0 251 c0 363 -16 347 355 347
  l245 0 0 -198 c0 -227 8 -267 68 -327 68 -69 91 -75 325 -75 l207 0 0 -491 c0
  -434 -2 -495 -16 -525 -28 -59 -50 -64 -261 -64 l-189 0 -59 -60 -59 -60 257
  0 c198 0 265 3 291 14 53 22 112 81 135 136 21 49 21 57 19 572 -3 486 -4 526
  -22 563 -27 58 -556 581 -616 609 -42 20 -64 21 -315 23 -214 2 -280 -1 -317
  -12z m912 -583 c-232 -4 -240 4 -240 240 l0 153 195 -195 195 -195 -150 -3z"/>
  <path d="M700 1130 c-171 -31 -316 -141 -390 -295 -63 -130 -74 -236 -40 -369
  26 -101 69 -176 144 -251 326 -323 882 -110 913 350 20 295 -207 549 -509 569
  -40 3 -93 1 -118 -4z m113 -241 c12 -7 25 -17 29 -23 4 -6 8 -87 8 -180 l0
  -169 74 71 c59 58 80 72 105 72 34 0 71 -33 71 -64 0 -30 -279 -306 -310 -306
  -17 0 -61 37 -158 133 -73 72 -138 142 -143 155 -6 15 -5 31 2 45 16 29 28 37
  63 37 22 0 45 -16 102 -72 l74 -71 0 171 0 171 26 20 c31 25 29 24 57 10z"/>
  </g>
</svg>