<svg  xmlns="http://www.w3.org/2000/svg" width="32px" height="32px" viewBox="0 0 250.000000 260.000000" preserveAspectRatio="xMidYMid meet">
  <g transform="translate(0.000000,260.000000) scale(0.100000,-0.100000)" fill="#000000" stroke="none">
  <path d="M417 1724 c-64 -20 -129 -84 -151 -151 -15 -45 -16 -111 -14 -634 3
  -577 3 -584 25 -625 12 -22 36 -54 54 -72 65 -63 44 -62 886 -62 842 0 803 -3
  871 63 19 18 43 50 55 72 22 40 22 44 22 645 l0 605 -28 47 c-32 55 -97 103
  -158 117 -28 7 -320 10 -779 10 -620 0 -743 -3 -783 -15z m1558 -118 c47 -20
  75 -69 75 -131 l0 -50 -398 -245 c-364 -224 -401 -244 -442 -244 -41 0 -78 20
  -442 244 l-398 245 0 50 c0 61 28 111 73 130 48 21 1481 22 1532 1z m-1238
  -547 c197 -122 375 -228 397 -235 21 -8 55 -14 76 -14 21 0 55 6 76 14 22 7
  200 113 397 235 197 121 360 221 362 221 3 0 5 -198 5 -441 0 -485 -1 -493
  -61 -524 -42 -22 -1516 -22 -1558 0 -60 31 -61 39 -61 524 0 243 2 441 5 441
  2 0 165 -100 362 -221z"/>
  </g>
</svg>