<svg  xmlns="http://www.w3.org/2000/svg"
 width="32px" height="32px" viewBox="0 0 250.000000 260.000000"
 preserveAspectRatio="xMidYMid meet">

<g transform="translate(0.000000,260.000000) scale(0.100000,-0.100000)"
fill="#000000" stroke="none">
<path d="M670 1967 c-60 -17 -115 -59 -148 -116 l-27 -46 0 -785 0 -785 23
-44 c29 -54 65 -88 117 -112 37 -17 76 -19 575 -19 499 0 538 2 575 19 52 24
88 58 117 112 l23 44 0 535 c0 501 -1 538 -19 575 -27 58 -556 581 -616 609
-42 19 -64 21 -310 23 -188 2 -278 -1 -310 -10z m540 -305 c0 -226 9 -270 68
-329 67 -67 92 -73 325 -73 l207 0 0 -491 c0 -540 0 -543 -61 -574 -43 -23
-1036 -22 -1079 0 -62 32 -60 1 -60 822 0 732 0 749 20 781 35 57 57 61 333
62 l247 0 0 -198z m360 -280 c-232 -4 -240 4 -240 240 l0 153 195 -195 195
-195 -150 -3z"/>
</g>
</svg>
