<svg version="1.0" xmlns="http://www.w3.org/2000/svg" width="32px" height="32px" viewBox="0 0 250.000000 260.000000" preserveAspectRatio="xMidYMid meet">
    <g transform="translate(0.000000,260.000000) scale(0.100000,-0.100000)" fill="#000000" stroke="none">
    <path d="M1080 1967 c-87 -24 -158 -84 -202 -167 -31 -61 -32 -174 -1 -241 31
    -69 85 -123 153 -153 l60 -27 0 -120 0 -119 -172 0 c-95 0 -191 -5 -213 -11
    -84 -24 -98 -48 -254 -465 -108 -290 -143 -393 -143 -428 0 -65 39 -128 95
    -155 43 -21 53 -21 747 -21 694 0 704 0 747 21 56 27 95 90 95 155 0 35 -35
    138 -143 428 -156 417 -170 441 -254 465 -22 6 -118 11 -212 11 l-173 0 0 119
    0 120 60 27 c113 50 174 147 175 274 0 60 -5 85 -25 123 -64 126 -215 199
    -340 164z m140 -129 c128 -66 145 -220 34 -304 -33 -25 -46 -29 -104 -29 -58
    0 -71 4 -104 29 -80 61 -97 171 -39 244 33 41 104 82 143 82 14 0 46 -10 70
    -22z m-130 -1040 c0 -192 2 -224 17 -240 20 -22 61 -23 85 -1 16 15 18 36 18
    240 l0 223 174 0 c151 0 177 -2 195 -17 13 -12 71 -151 161 -390 146 -388 151
    -409 105 -427 -22 -8 -1368 -8 -1390 0 -46 18 -40 39 105 427 93 250 146 378
    161 390 18 15 44 17 195 17 l174 0 0 -222z"/>
    </g>
</svg>