<svg  xmlns="http://www.w3.org/2000/svg" width="32px" height="32px" viewBox="0 0 250.000000 260.000000" preserveAspectRatio="xMidYMid meet">
  <g transform="translate(0.000000,260.000000) scale(0.100000,-0.100000)"
  fill="#000000" stroke="none">
  <path d="M1061 1486 c-436 -266 -797 -490 -802 -497 -14 -22 -11 -45 9 -68 15
  -19 59 -27 407 -76 215 -30 401 -58 414 -62 18 -6 59 -79 200 -357 97 -193
  183 -354 192 -359 21 -13 66 -1 78 21 5 9 93 425 195 924 142 687 184 912 177
  927 -11 20 -33 31 -59 30 -9 0 -374 -217 -811 -483z m579 -436 c-83 -404 -152
  -736 -155 -738 -2 -2 -69 127 -149 287 -117 233 -150 292 -168 296 -13 3 -169
  25 -348 51 -178 25 -326 46 -327 48 -3 3 1291 794 1295 791 1 -1 -65 -332
  -148 -735z"/>
  </g>
</svg>