<svg  xmlns="http://www.w3.org/2000/svg" width="32px" height="32px" viewBox="0 0 250.000000 260.000000" preserveAspectRatio="xMidYMid meet">
  <g transform="translate(0.000000,260.000000) scale(0.100000,-0.100000)"
  fill="#000000" stroke="none">
  <path d="M1095 1971 c-345 -46 -653 -285 -775 -604 -51 -132 -64 -199 -64
  -347 0 -153 22 -264 76 -382 l31 -67 -59 -229 c-58 -226 -58 -229 -40 -256 23
  -35 27 -35 297 29 l207 49 83 -33 c302 -120 631 -86 892 91 81 55 191 161 242
  233 136 192 202 437 178 658 -47 418 -340 745 -753 841 -81 19 -236 27 -315
  17z m325 -142 c227 -58 431 -223 539 -437 58 -116 83 -222 84 -362 1 -138 -10
  -206 -55 -322 -42 -110 -111 -211 -205 -298 -160 -150 -316 -215 -543 -227
  -133 -7 -213 9 -371 73 l-92 37 -136 -33 c-248 -61 -241 -60 -241 -44 0 7 14
  64 31 126 17 62 37 142 44 177 l14 64 -39 91 c-62 145 -74 204 -73 346 0 94 5
  145 22 205 120 451 571 718 1021 604z"/>
  <path d="M885 1248 c-40 -22 -47 -64 -17 -91 17 -15 55 -17 344 -17 302 0 326
  1 341 18 29 32 21 69 -20 91 -30 15 -620 15 -648 -1z"/>
  <path d="M885 888 c-40 -22 -47 -64 -17 -91 16 -15 47 -17 224 -17 186 0 206
  2 221 18 29 32 21 69 -20 91 -29 15 -380 15 -408 -1z"/>
  </g>
</svg>