
<svg  xmlns="http://www.w3.org/2000/svg" width="32px" height="32px" viewBox="0 0 250.000000 260.000000" preserveAspectRatio="xMidYMid meet">
  <g transform="translate(0.000000,260.000000) scale(0.100000,-0.100000)"
  fill="#000000" stroke="none">
  <path d="M485 1721 c-48 -22 -79 -54 -100 -103 -22 -55 -22 -551 0 -605 41
  -97 83 -112 298 -113 l167 0 0 60 0 60 -164 0 c-159 0 -165 1 -180 22 -14 19
  -16 63 -16 279 l0 258 26 20 c26 21 37 21 451 21 422 0 454 -2 475 -34 4 -6 8
  -55 8 -108 l0 -98 61 0 61 0 -3 119 c-4 115 -5 120 -35 158 -16 21 -50 48 -74
  61 -44 22 -47 22 -490 22 -411 0 -448 -2 -485 -19z"/>
  <path d="M1069 1232 c-39 -20 -58 -38 -76 -71 -23 -44 -23 -48 -23 -380 0
  -305 2 -340 19 -376 22 -48 44 -69 94 -90 31 -13 104 -15 489 -15 419 0 456 2
  494 19 47 22 80 59 95 110 7 23 9 154 7 371 l-3 335 -25 38 c-15 22 -45 47
  -74 62 l-50 25 -447 0 -447 0 -53 -28z m955 -113 l26 -20 0 -318 c0 -270 -2
  -320 -16 -339 l-15 -22 -446 0 c-401 0 -448 2 -465 17 -17 15 -18 39 -18 337
  0 177 4 326 8 332 21 31 51 33 473 34 416 0 427 0 453 -21z"/>
  <path d="M1485 648 c-26 -15 -35 -28 -35 -54 0 -41 30 -54 123 -54 81 0 88 2
  103 25 21 32 12 68 -21 83 -33 15 -144 15 -170 0z"/>
  <path d="M276 759 c-30 -23 -33 -45 -10 -77 15 -22 17 -22 300 -22 l284 0 0
  60 0 60 -274 0 c-261 0 -274 -1 -300 -21z"/>
  </g>
</svg>