<svg  xmlns="http://www.w3.org/2000/svg" width="32px" height="32px" viewBox="0 0 250.000000 260.000000" preserveAspectRatio="xMidYMid meet">
  <g transform="translate(0.000000,260.000000) scale(0.100000,-0.100000)" fill="#000000" stroke="none">
    <path d="M635 1928 c-87 -102 -139 -265 -139 -433 0 -131 18 -207 73 -320 67
    -135 131 -185 174 -137 25 27 21 54 -14 102 -69 95 -118 242 -119 351 0 127
    52 281 127 372 28 34 30 68 5 90 -32 29 -67 21 -107 -25z"/>
    <path d="M1676 1948 c-22 -31 -20 -52 7 -85 75 -91 127 -245 127 -372 -1 -109
    -50 -256 -119 -351 -35 -49 -39 -80 -13 -103 48 -44 111 6 173 138 90 189 101
    369 33 568 -27 79 -61 142 -106 192 -36 42 -78 47 -102 13z"/>
    <path d="M860 1823 c-48 -45 -98 -139 -116 -221 -20 -89 -15 -171 16 -262 39
    -116 81 -156 136 -131 33 15 31 53 -6 134 -60 127 -50 241 32 361 53 79 57 97
    28 126 -27 27 -54 25 -90 -7z"/>
    <path d="M1470 1830 c-29 -29 -25 -47 29 -127 83 -121 92 -249 26 -374 -42
    -80 -29 -129 34 -129 29 0 74 61 102 138 56 155 17 360 -89 471 -43 46 -72 51
    -102 21z"/>
    <path d="M1155 1729 c-55 -13 -130 -71 -155 -119 -48 -93 -31 -206 40 -277
    l40 -41 -175 -582 c-96 -320 -175 -591 -175 -601 0 -39 75 -65 100 -34 7 8 27
    61 44 117 l32 103 304 0 304 0 32 -103 c17 -56 37 -109 44 -118 20 -24 72 -14
    89 17 13 24 3 63 -162 614 l-177 588 40 40 c71 71 88 184 40 277 -20 38 -82
    93 -125 110 -37 14 -100 18 -140 9z m100 -123 c64 -27 92 -104 60 -166 -41
    -79 -169 -79 -210 0 -31 61 -4 138 58 165 41 18 50 18 92 1z m92 -757 c67
    -222 123 -410 123 -416 0 -10 -59 -13 -260 -13 -173 0 -260 3 -260 10 0 13
    239 811 247 823 3 4 10 6 16 4 7 -2 67 -185 134 -408z"/>
  </g>
</svg>