<svg  xmlns="http://www.w3.org/2000/svg" width="32px" height="32px" viewBox="0 0 250.000000 260.000000" preserveAspectRatio="xMidYMid meet">
  <g transform="translate(0.000000,260.000000) scale(0.100000,-0.100000)"
  fill="#000000" stroke="none">
  <path d="M583 1842 c-72 -26 -119 -59 -154 -112 -60 -90 -60 -89 -57 -736 l3
  -589 28 -57 c35 -71 88 -120 161 -147 53 -20 75 -21 377 -21 176 0 319 3 317
  8 -2 4 -19 31 -37 60 l-34 52 -274 0 c-224 0 -280 3 -310 15 -50 21 -72 42
  -94 90 -17 37 -19 75 -19 508 l0 467 720 0 720 0 0 -79 0 -79 47 -16 c80 -27
  75 -42 71 202 -3 209 -4 219 -29 272 -33 70 -79 116 -149 149 l-55 26 -590 2
  c-547 2 -594 1 -642 -15z m1232 -121 c71 -33 115 -102 115 -181 l0 -40 -720 0
  -720 0 0 40 c0 79 44 148 115 181 37 17 77 19 605 19 528 0 568 -2 605 -19z"/>
  <path d="M1608 1198 c-89 -75 -153 -105 -261 -125 -45 -8 -93 -20 -107 -27
  l-25 -12 -3 -187 c-2 -153 1 -204 17 -279 49 -241 140 -363 341 -461 50 -25
  99 -42 120 -42 21 0 69 17 124 45 123 60 238 172 290 282 56 116 66 181 66
  425 0 208 0 212 -22 227 -12 9 -38 16 -56 16 -48 0 -147 27 -203 56 -26 13
  -80 51 -120 84 -39 33 -75 60 -79 60 -5 0 -41 -28 -82 -62z"/>
  </g>
</svg>