<svg  xmlns="http://www.w3.org/2000/svg" width="32px" height="32px" viewBox="0 0 250.000000 260.000000" preserveAspectRatio="xMidYMid meet">
  <g transform="translate(0.000000,260.000000) scale(0.100000,-0.100000)"
  fill="#000000" stroke="none">
  <path d="M964 1961 c-22 -10 -56 -37 -76 -60 l-35 -41 -104 0 c-113 0 -164
  -16 -206 -61 -54 -59 -53 -38 -53 -846 0 -740 0 -747 21 -791 13 -26 38 -54
  62 -70 l41 -27 583 -3 c559 -2 586 -2 628 17 29 13 53 34 72 62 l28 43 3 750
  c2 515 0 763 -8 788 -14 50 -56 97 -105 119 -30 14 -65 19 -144 19 l-104 0
  -35 41 c-62 72 -87 79 -322 79 -178 0 -210 -3 -246 -19z m460 -122 c30 -23 33
  -54 9 -81 -15 -16 -35 -18 -221 -18 -177 0 -208 2 -224 17 -26 23 -22 58 8 82
  25 20 40 21 214 21 174 0 189 -1 214 -21z m-543 -136 c52 -78 50 -78 329 -78
  279 0 277 0 329 78 l24 37 97 0 c83 0 101 -3 124 -21 l26 -20 0 -738 c0 -650
  -2 -739 -16 -759 l-15 -22 -569 0 -569 0 -15 22 c-14 20 -16 109 -16 759 l0
  738 26 20 c23 18 41 21 124 21 l97 0 24 -37z"/>
  <path d="M1485 1249 c-11 -6 -104 -95 -207 -197 l-188 -187 -67 67 c-83 81
  -105 93 -135 77 -63 -33 -53 -60 70 -182 79 -79 114 -107 132 -107 19 0 78 53
  253 228 248 248 258 265 190 301 -26 13 -23 13 -48 0z"/>
  </g>
</svg>