<svg version="1.0" xmlns="http://www.w3.org/2000/svg" width="32px" height="32px" viewBox="0 0 250.000000 260.000000" preserveAspectRatio="xMidYMid meet">
    <g transform="translate(0.000000,260.000000) scale(0.100000,-0.100000)"
    fill="#000000" stroke="none">
    <path d="M823 1952 c-109 -39 -161 -71 -221 -137 -194 -212 -129 -662 165
    -1147 257 -424 552 -643 807 -600 100 16 151 45 247 141 95 96 117 142 106
    226 -9 61 -24 88 -133 241 -76 108 -101 136 -137 153 -24 12 -56 21 -72 21
    -15 0 -91 -19 -167 -42 -130 -39 -141 -41 -166 -27 -80 44 -241 355 -212 408
    5 9 43 50 85 91 116 114 153 206 126 317 -16 64 -98 250 -129 291 -32 42 -109
    82 -170 88 -35 4 -67 -2 -129 -24z m160 -106 c18 -7 40 -24 48 -37 35 -53 109
    -240 109 -274 0 -55 -32 -106 -124 -197 -103 -101 -116 -134 -91 -231 42 -167
    183 -390 276 -438 55 -28 98 -24 244 21 72 22 138 40 147 40 18 0 181 -221
    205 -279 23 -55 10 -94 -56 -160 -80 -80 -136 -106 -232 -106 -69 0 -83 4
    -160 42 -152 76 -281 204 -424 418 -203 304 -309 587 -310 825 0 139 18 202
    78 268 43 46 88 73 172 103 62 22 77 23 118 5z"/>
    </g>
</svg>