
<svg  xmlns="http://www.w3.org/2000/svg" width="32px" height="32px" viewBox="0 0 250.000000 260.000000"
 preserveAspectRatio="xMidYMid meet">

<g transform="translate(0.000000,260.000000) scale(0.100000,-0.100000)"
fill="#000000" stroke="none">
<path d="M1148 1970 c-65 -11 -163 -66 -205 -114 -20 -23 -47 -66 -62 -96
l-26 -55 -3 -363 c-3 -311 -1 -371 13 -419 88 -304 481 -358 652 -90 50 78 54
127 51 514 l-3 358 -26 55 c-41 85 -91 135 -172 174 -79 37 -146 48 -219 36z
m147 -130 c43 -17 106 -72 127 -112 22 -40 23 -57 26 -255 l3 -213 -241 0
-241 0 3 213 c3 245 11 269 96 332 69 51 153 64 227 35z"/>
<path d="M575 1058 c-27 -21 -27 -23 -21 -95 24 -292 245 -536 534 -593 l61
-12 3 -136 3 -136 28 -16 c24 -13 30 -13 55 0 l27 16 3 136 3 136 61 12 c184
36 345 148 442 308 46 77 85 195 92 285 6 72 6 74 -21 95 -48 38 -95 9 -95
-58 0 -55 -36 -185 -67 -243 -39 -71 -135 -167 -213 -210 -339 -188 -760 36
-796 423 -4 39 -12 76 -18 84 -20 26 -51 28 -81 4z"/>
</g>
</svg>
