<svg xmlns="http://www.w3.org/2000/svg" fill="none" viewBox="0 0 72 72"><path fill="url(#a)" fill-rule="evenodd" d="M18.2209 45.8204c15.4711 0 28.0128-12.5867 28.0128-28.1133 0-3.3338-.5782-6.532-1.6394-9.49926-.4532-1.26709.6845-2.59813 1.9337-2.09763C57.9371 10.6814 65.9985 21.873 65.9985 34.9542c0 17.1461-13.8499 31.0457-30.9346 31.0457-13.2563 0-24.5651-8.3682-28.96768-20.1281-.47209-1.261.88584-2.3698 2.14333-1.8884 3.10065 1.1869 6.46535 1.837 9.98135 1.837Z" clip-rule="evenodd"/><path fill="#E7F1FF" fill-rule="evenodd" d="M37.875 63h24.5C67.6907 63 72 58.6907 72 53.375s-4.3093-9.625-9.625-9.625c-.2111 0-.4205.0068-.6282.0202-2.1971-4.1741-6.5771-7.0202-11.6218-7.0202-6.3582 0-11.6604 4.5211-12.8673 10.5238C33.197 47.5887 30 50.9835 30 55.125 30 59.4742 33.5258 63 37.875 63Z" clip-rule="evenodd"/><path fill="url(#b)" fill-rule="evenodd" d="M37.875 63h24.5C67.6907 63 72 58.6907 72 53.375s-4.3093-9.625-9.625-9.625c-.2111 0-.4205.0068-.6282.0202-2.1971-4.1741-6.5771-7.0202-11.6218-7.0202-6.3582 0-11.6604 4.5211-12.8673 10.5238C33.197 47.5887 30 50.9835 30 55.125 30 59.4742 33.5258 63 37.875 63Z" clip-rule="evenodd"/><path fill="url(#c)" fill-rule="evenodd" d="M37.875 63h24.5C67.6907 63 72 58.6907 72 53.375s-4.3093-9.625-9.625-9.625c-.2111 0-.4205.0068-.6282.0202-2.1971-4.1741-6.5771-7.0202-11.6218-7.0202-6.3582 0-11.6604 4.5211-12.8673 10.5238C33.197 47.5887 30 50.9835 30 55.125 30 59.4742 33.5258 63 37.875 63Z" clip-rule="evenodd"/><path fill="url(#d)" d="M30 55.125c0-4.3492 3.5258-7.875 7.875-7.875H40.5c5.799 0 10.5 4.701 10.5 10.5V63H37.875C33.5258 63 30 59.4742 30 55.125Z"/><path fill="url(#e)" d="M37 49.875c0-7.2487 5.8763-13.125 13.125-13.125S63.25 42.6263 63.25 49.875 57.3737 63 50.125 63 37 57.1237 37 49.875Z"/><circle cx="62.375" cy="53.375" r="9.625" fill="url(#f)"/><path fill="#E7F1FF" fill-rule="evenodd" d="M7.875 27h24.5C37.6907 27 42 22.6907 42 17.375S37.6907 7.75 32.375 7.75c-.2111 0-.4205.0068-.6282.02017C29.5497 3.59609 25.1697.75 20.125.75 13.7668.75 8.46459 5.27108 7.25773 11.2738 3.197 11.5887 0 14.9835 0 19.125 0 23.4742 3.52576 27 7.875 27Z" clip-rule="evenodd"/><path fill="url(#g)" fill-rule="evenodd" d="M7.875 27h24.5C37.6907 27 42 22.6907 42 17.375S37.6907 7.75 32.375 7.75c-.2111 0-.4205.0068-.6282.02017C29.5497 3.59609 25.1697.75 20.125.75 13.7668.75 8.46459 5.27108 7.25773 11.2738 3.197 11.5887 0 14.9835 0 19.125 0 23.4742 3.52576 27 7.875 27Z" clip-rule="evenodd"/><path fill="url(#h)" fill-rule="evenodd" d="M7.875 27h24.5C37.6907 27 42 22.6907 42 17.375S37.6907 7.75 32.375 7.75c-.2111 0-.4205.0068-.6282.02017C29.5497 3.59609 25.1697.75 20.125.75 13.7668.75 8.46459 5.27108 7.25773 11.2738 3.197 11.5887 0 14.9835 0 19.125 0 23.4742 3.52576 27 7.875 27Z" clip-rule="evenodd"/><path fill="url(#i)" d="M0 19.125c0-4.3492 3.52576-7.875 7.875-7.875H10.5c5.799 0 10.5 4.701 10.5 10.5V27H7.875C3.52576 27 0 23.4742 0 19.125Z"/><path fill="url(#j)" d="M7 13.875C7 6.62626 12.8763.75 20.125.75S33.25 6.62626 33.25 13.875C33.25 21.1237 27.3737 27 20.125 27S7 21.1237 7 13.875Z"/><circle cx="32.375" cy="17.375" r="9.625" fill="url(#k)"/><defs><radialGradient id="d" cx="0" cy="0" r="1" gradientTransform="matrix(-10.20836 -13.12503 15.1891 -11.81376 41.375 63)" gradientUnits="userSpaceOnUse"><stop offset=".683784" stop-color="#8FABDD" stop-opacity="0"/><stop offset="1" stop-color="#5582D3"/></radialGradient><radialGradient id="e" cx="0" cy="0" r="1" gradientTransform="rotate(-90 55.25 5.125) scale(23.625)" gradientUnits="userSpaceOnUse"><stop offset=".598765" stop-color="#C7DFFF" stop-opacity="0"/><stop offset="1" stop-color="#6B97E6"/></radialGradient><radialGradient id="f" cx="0" cy="0" r="1" gradientTransform="matrix(10.26668 -15.4 15.4 10.26668 57.2417 60.4333)" gradientUnits="userSpaceOnUse"><stop offset=".47771" stop-color="#8FABDD" stop-opacity="0"/><stop offset="1" stop-color="#5582D3"/></radialGradient><radialGradient id="i" cx="0" cy="0" r="1" gradientTransform="matrix(-10.20836 -13.12503 15.1891 -11.81376 11.375 27)" gradientUnits="userSpaceOnUse"><stop offset=".683784" stop-color="#8FABDD" stop-opacity="0"/><stop offset="1" stop-color="#5582D3"/></radialGradient><radialGradient id="j" cx="0" cy="0" r="1" gradientTransform="rotate(-90 22.25 2.125) scale(23.625)" gradientUnits="userSpaceOnUse"><stop offset=".598765" stop-color="#C7DFFF" stop-opacity="0"/><stop offset="1" stop-color="#6B97E6"/></radialGradient><radialGradient id="k" cx="0" cy="0" r="1" gradientTransform="matrix(10.26668 -15.4 15.4 10.26668 27.2417 24.4333)" gradientUnits="userSpaceOnUse"><stop offset=".47771" stop-color="#8FABDD" stop-opacity="0"/><stop offset="1" stop-color="#5582D3"/></radialGradient><linearGradient id="a" x1="61.3413" x2="63.8808" y1="63.4744" y2="3.90859" gradientUnits="userSpaceOnUse"><stop stop-color="#EE7F18"/><stop offset=".56298" stop-color="#EEB82E"/><stop offset="1" stop-color="#FEB649" stop-opacity=".78"/></linearGradient><linearGradient id="b" x1="43.125" x2="51" y1="42.875" y2="63" gradientUnits="userSpaceOnUse"><stop stop-color="#C6D8F5"/><stop offset="1" stop-color="#89AFD1" stop-opacity="0"/></linearGradient><linearGradient id="c" x1="48.7249" x2="48.1731" y1="63.929" y2="36.75" gradientUnits="userSpaceOnUse"><stop stop-color="#547DDA"/><stop offset=".257422" stop-color="#93C2FF" stop-opacity="0"/></linearGradient><linearGradient id="g" x1="13.125" x2="21" y1="6.875" y2="27" gradientUnits="userSpaceOnUse"><stop stop-color="#C6D8F5"/><stop offset="1" stop-color="#89AFD1" stop-opacity="0"/></linearGradient><linearGradient id="h" x1="18.7249" x2="18.1731" y1="27.929" y2=".749999" gradientUnits="userSpaceOnUse"><stop stop-color="#547DDA"/><stop offset=".257422" stop-color="#93C2FF" stop-opacity="0"/></linearGradient></defs></svg>