<svg xmlns="http://www.w3.org/2000/svg" fill="none" viewBox="0 0 72 72"><circle cx="51" cy="28.281" r="18" fill="url(#a)"/><path fill="#E7F1FF" fill-rule="evenodd" d="M13.5 68.781h42c9.113 0 16.5-7.387 16.5-16.5 0-9.112-7.387-16.5-16.5-16.5-.362 0-.72.012-1.077.035C50.657 28.66 43.148 23.781 34.5 23.781c-10.9 0-19.99 7.75-22.058 18.041C5.48 42.362 0 48.182 0 55.282c0 7.455 6.044 13.5 13.5 13.5Z" clip-rule="evenodd"/><path fill="url(#b)" fill-rule="evenodd" d="M13.5 68.781h42c9.113 0 16.5-7.387 16.5-16.5 0-9.112-7.387-16.5-16.5-16.5-.362 0-.72.012-1.077.035C50.657 28.66 43.148 23.781 34.5 23.781c-10.9 0-19.99 7.75-22.058 18.041C5.48 42.362 0 48.182 0 55.282c0 7.455 6.044 13.5 13.5 13.5Z" clip-rule="evenodd"/><path fill="url(#c)" fill-rule="evenodd" d="M13.5 68.781h42c9.113 0 16.5-7.387 16.5-16.5 0-9.112-7.387-16.5-16.5-16.5-.362 0-.72.012-1.077.035C50.657 28.66 43.148 23.781 34.5 23.781c-10.9 0-19.99 7.75-22.058 18.041C5.48 42.362 0 48.182 0 55.282c0 7.455 6.044 13.5 13.5 13.5Z" clip-rule="evenodd"/><path fill="url(#d)" d="M0 55.281c0-7.456 6.044-13.5 13.5-13.5H18c9.941 0 18 8.06 18 18v9H13.5c-7.456 0-13.5-6.044-13.5-13.5Z"/><path fill="url(#e)" d="M12 46.281c0-12.426 10.074-22.5 22.5-22.5S57 33.855 57 46.281c0 12.427-10.074 22.5-22.5 22.5S12 58.708 12 46.281Z"/><circle cx="55.5" cy="52.281" r="16.5" fill="url(#f)"/><defs><radialGradient id="d" cx="0" cy="0" r="1" gradientTransform="matrix(-17.50002 -22.5 26.03843 -20.25213 19.5 68.781)" gradientUnits="userSpaceOnUse"><stop offset=".684" stop-color="#8FABDD" stop-opacity="0"/><stop offset="1" stop-color="#5582D3"/></radialGradient><radialGradient id="e" cx="0" cy="0" r="1" gradientTransform="matrix(0 -40.5 40.5 0 34.5 64.281)" gradientUnits="userSpaceOnUse"><stop offset=".599" stop-color="#C7DFFF" stop-opacity="0"/><stop offset="1" stop-color="#6B97E6"/></radialGradient><radialGradient id="f" cx="0" cy="0" r="1" gradientTransform="rotate(-56.31 83.499 -11.44) scale(31.7288)" gradientUnits="userSpaceOnUse"><stop offset=".478" stop-color="#8FABDD" stop-opacity="0"/><stop offset="1" stop-color="#5582D3"/></radialGradient><linearGradient id="a" x1="59.1" x2="29.748" y1="36.081" y2=".257" gradientUnits="userSpaceOnUse"><stop stop-color="#EF6D0F"/><stop offset=".563" stop-color="#EEB82E"/><stop offset="1" stop-color="#FEB649" stop-opacity=".78"/></linearGradient><linearGradient id="b" x1="22.5" x2="36" y1="34.281" y2="68.781" gradientUnits="userSpaceOnUse"><stop stop-color="#C6D8F5"/><stop offset="1" stop-color="#89AFD1" stop-opacity="0"/></linearGradient><linearGradient id="c" x1="32.1" x2="31.154" y1="70.374" y2="23.781" gradientUnits="userSpaceOnUse"><stop stop-color="#547DDA"/><stop offset=".257" stop-color="#93C2FF" stop-opacity="0"/></linearGradient></defs></svg>