<svg xmlns="http://www.w3.org/2000/svg" fill="none" viewBox="0 0 72 72"><path fill="#E7F1FF" fill-rule="evenodd" d="M13.5 54h42C64.6127 54 72 46.6127 72 37.5S64.6127 21 55.5 21c-.3618 0-.7209.0116-1.0769.0346C50.6566 13.879 43.1481 9 34.5 9c-10.8997 0-19.9893 7.7504-22.0582 18.0409C5.48057 27.5806 0 33.4003 0 40.5 0 47.9558 6.04416 54 13.5 54Z" clip-rule="evenodd"/><path fill="url(#a)" fill-rule="evenodd" d="M13.5 54h42C64.6127 54 72 46.6127 72 37.5S64.6127 21 55.5 21c-.3618 0-.7209.0116-1.0769.0346C50.6566 13.879 43.1481 9 34.5 9c-10.8997 0-19.9893 7.7504-22.0582 18.0409C5.48057 27.5806 0 33.4003 0 40.5 0 47.9558 6.04416 54 13.5 54Z" clip-rule="evenodd"/><path fill="url(#b)" fill-rule="evenodd" d="M13.5 54h42C64.6127 54 72 46.6127 72 37.5S64.6127 21 55.5 21c-.3618 0-.7209.0116-1.0769.0346C50.6566 13.879 43.1481 9 34.5 9c-10.8997 0-19.9893 7.7504-22.0582 18.0409C5.48057 27.5806 0 33.4003 0 40.5 0 47.9558 6.04416 54 13.5 54Z" clip-rule="evenodd"/><path fill="url(#c)" d="M0 40.5C0 33.0442 6.04416 27 13.5 27H18c9.9411 0 18 8.0589 18 18v9H13.5C6.04416 54 0 47.9558 0 40.5Z"/><path fill="url(#d)" d="M12 31.5C12 19.0736 22.0736 9 34.5 9S57 19.0736 57 31.5 46.9264 54 34.5 54 12 43.9264 12 31.5Z"/><circle cx="55.5" cy="37.5" r="16.5" fill="url(#e)"/><path fill="#C4C4C4" fill-rule="evenodd" d="M45 61.5002V41.1006c0-1.8752 2.2709-2.8102 3.5912-1.4787l14.2501 14.3712C64.7903 55.8994 66 58.5585 66 61.5002c0 5.799-4.701 10.5-10.5 10.5s-10.5-4.701-10.5-10.5Z" clip-rule="evenodd"/><path fill="url(#f)" fill-rule="evenodd" d="M45 61.5002V41.1006c0-1.8752 2.2709-2.8102 3.5912-1.4787l14.2501 14.3712C64.7903 55.8994 66 58.5585 66 61.5002c0 5.799-4.701 10.5-10.5 10.5s-10.5-4.701-10.5-10.5Z" clip-rule="evenodd"/><path fill="#C4C4C4" fill-rule="evenodd" d="M18 59.4411V43.3308c0-1.8752 2.2709-2.8102 3.5912-1.4786l11.0071 11.1007C34.6711 54.6017 36 57.1458 36 60.0002c0 4.9706-4.0294 9-9 9s-9-4.0294-9-9c0-.1902.0059-.379.0175-.5663L18 59.4411Z" clip-rule="evenodd"/><path fill="url(#g)" fill-rule="evenodd" d="M18 59.4411V43.3308c0-1.8752 2.2709-2.8102 3.5912-1.4786l11.0071 11.1007C34.6711 54.6017 36 57.1458 36 60.0002c0 4.9706-4.0294 9-9 9s-9-4.0294-9-9c0-.1902.0059-.379.0175-.5663L18 59.4411Z" clip-rule="evenodd"/><path fill="#C4C4C4" fill-rule="evenodd" d="M27 37.4998v-13.064c0-1.8752 2.2709-2.8102 3.5912-1.4787l8.6908 8.7647C40.9423 33.0975 42 35.1751 42 37.4998c0 4.1422-3.3579 7.5-7.5 7.5-4.0032 0-7.2738-3.1363-7.4888-7.0859L27 37.9186v-.4188Z" clip-rule="evenodd"/><path fill="url(#h)" fill-rule="evenodd" d="M27 37.4998v-13.064c0-1.8752 2.2709-2.8102 3.5912-1.4787l8.6908 8.7647C40.9423 33.0975 42 35.1751 42 37.4998c0 4.1422-3.3579 7.5-7.5 7.5-4.0032 0-7.2738-3.1363-7.4888-7.0859L27 37.9186v-.4188Z" clip-rule="evenodd"/><defs><linearGradient id="a" x1="22.5" x2="36" y1="19.5" y2="54" gradientUnits="userSpaceOnUse"><stop stop-color="#C6D8F5"/><stop offset="1" stop-color="#89AFD1" stop-opacity="0"/></linearGradient><linearGradient id="b" x1="32.0998" x2="31.1538" y1="55.5925" y2="9" gradientUnits="userSpaceOnUse"><stop stop-color="#547DDA"/><stop offset=".257422" stop-color="#93C2FF" stop-opacity="0"/></linearGradient><linearGradient id="f" x1="60.7509" x2="41.7826" y1="69.8232" y2="48.9185" gradientUnits="userSpaceOnUse"><stop stop-color="#06F"/><stop offset="1" stop-color="#65ACFF"/></linearGradient><linearGradient id="g" x1="31.5008" x2="15.5695" y1="67.1682" y2="49.2848" gradientUnits="userSpaceOnUse"><stop stop-color="#06F"/><stop offset="1" stop-color="#65ACFF"/></linearGradient><linearGradient id="h" x1="38.2506" x2="25.2817" y1="43.5046" y2="28.6405" gradientUnits="userSpaceOnUse"><stop stop-color="#06F"/><stop offset="1" stop-color="#65ACFF"/></linearGradient><radialGradient id="c" cx="0" cy="0" r="1" gradientTransform="matrix(-17.50002 -22.5 26.03843 -20.25213 19.5 54)" gradientUnits="userSpaceOnUse"><stop offset=".683784" stop-color="#8FABDD" stop-opacity="0"/><stop offset="1" stop-color="#5582D3"/></radialGradient><radialGradient id="d" cx="0" cy="0" r="1" gradientTransform="rotate(-90 42 7.5) scale(40.5)" gradientUnits="userSpaceOnUse"><stop offset=".598765" stop-color="#C7DFFF" stop-opacity="0"/><stop offset="1" stop-color="#6B97E6"/></radialGradient><radialGradient id="e" cx="0" cy="0" r="1" gradientTransform="rotate(-56.31 69.68925544 -18.82990381) scale(31.7288)" gradientUnits="userSpaceOnUse"><stop offset=".47771" stop-color="#8FABDD" stop-opacity="0"/><stop offset="1" stop-color="#5582D3"/></radialGradient></defs></svg>