<svg version="1.0" xmlns="http://www.w3.org/2000/svg" width="40px" height="40px" viewBox="0 0 250.000000 230.000000" preserveAspectRatio="xMidYMid meet">
    <g transform="translate(0.000000,230.000000) scale(0.100000,-0.100000)"
    fill="#000000" stroke="none">
        <path d="M1150 1395 c-157 -40 -293 -76 -302 -80 -10 -4 -27 -22 -38 -40 -19
        -30 -20 -49 -20 -258 l0 -225 25 -31 c45 -52 74 -55 213 -21 68 16 125 30 126
        30 2 0 6 -26 8 -57 4 -46 10 -61 32 -80 15 -13 38 -23 52 -23 33 0 471 98 495
        110 34 19 39 46 39 205 l0 157 -31 30 c-27 27 -35 30 -72 25 -24 -3 -51 -9
        -60 -13 -15 -6 -17 5 -18 112 0 66 -5 135 -12 154 -15 44 -68 80 -116 79 -20
        0 -164 -34 -321 -74z m370 -12 c19 -24 20 -37 18 -151 l-3 -125 -163 -37
        c-201 -45 -205 -48 -210 -158 l-4 -78 -116 -29 c-65 -16 -128 -29 -141 -28
        -47 2 -51 21 -51 249 0 184 2 213 16 225 18 15 561 157 606 158 18 1 34 -8 48
        -26z m184 -309 c14 -5 16 -28 16 -150 0 -161 2 -155 -77 -169 l-43 -7 0 155 0
        155 38 10 c49 13 48 13 66 6z m-164 -188 l0 -155 -57 -11 c-32 -7 -61 -14 -65
        -17 -5 -2 -8 67 -8 155 l0 159 43 10 c94 23 87 34 87 -141z m-190 -41 l0 -154
        -37 -10 c-88 -25 -93 -18 -93 145 0 143 1 145 60 162 74 21 70 29 70 -143z"/>
    </g>
</svg>