<svg xmlns="http://www.w3.org/2000/svg" width="40px" height="40px" viewBox="0 0 287.000000 153.000000" preserveAspectRatio="xMidYMid meet">
    <g transform="translate(0.000000,153.000000) scale(0.100000,-0.100000)"
    fill="#000000" stroke="none">
        <path d="M933 1269 c-179 -30 -349 -154 -429 -312 -83 -162 -83 -392 0 -555
        65 -128 195 -238 341 -289 l80 -28 462 -3 c526 -4 581 1 710 62 105 50 219
        164 268 267 84 178 84 360 0 538 -49 103 -163 217 -268 267 -124 59 -176 63
        -672 62 -242 0 -463 -4 -492 -9z m1022 -104 c92 -24 164 -64 231 -130 74 -73
        119 -159 141 -273 15 -75 15 -89 0 -164 -41 -206 -175 -352 -372 -403 -49 -12
        -138 -15 -525 -14 -406 0 -473 2 -531 17 -255 67 -419 343 -354 597 47 181
        183 322 354 367 58 15 125 17 531 17 387 1 476 -2 525 -14z"/>
        <path d="M1008 919 c-15 -8 -18 -25 -18 -99 l0 -90 -81 0 c-96 0 -119 -10
        -119 -50 0 -40 23 -50 119 -50 l81 0 0 -90 c0 -78 2 -91 19 -100 27 -14 37
        -13 55 6 12 12 16 36 16 100 l0 84 84 0 c89 0 116 11 116 50 0 39 -27 50 -116
        50 l-84 0 0 84 c0 105 -21 135 -72 105z"/>
        <path d="M1931 874 c-12 -15 -21 -34 -21 -44 0 -33 39 -70 74 -70 42 0 66 26
        66 72 0 67 -78 94 -119 42z"/>
        <path d="M1731 574 c-12 -15 -21 -34 -21 -44 0 -33 39 -70 74 -70 42 0 66 26
        66 72 0 67 -78 94 -119 42z"/>
    </g>
</svg>
