
<svg  xmlns="http://www.w3.org/2000/svg"
 width="32px" height="32px" viewBox="0 0 250.000000 260.000000"
 preserveAspectRatio="xMidYMid meet">

<g transform="translate(0.000000,260.000000) scale(0.100000,-0.100000)"
fill="#000000" stroke="none">
<path d="M538 1724 c-61 -19 -131 -88 -152 -151 -14 -40 -16 -115 -16 -562 l0
-516 24 -50 c25 -55 81 -110 132 -131 26 -11 111 -14 397 -14 340 0 365 1 380
18 21 23 22 52 3 78 -14 18 -33 19 -378 24 -258 4 -369 9 -384 17 -12 7 -29
28 -38 47 -14 30 -16 93 -16 538 0 487 1 504 20 536 39 63 27 62 700 62 673 0
661 1 700 -62 19 -32 20 -49 20 -449 0 -390 1 -417 18 -432 26 -24 68 -21 86
5 23 33 24 808 1 886 -21 69 -88 136 -157 157 -74 22 -1268 21 -1340 -1z"/>
<path d="M834 1355 c-28 -14 -60 -40 -74 -62 -24 -36 -25 -41 -28 -252 -4
-227 2 -267 40 -316 45 -57 80 -65 323 -65 210 0 222 1 260 23 22 12 51 39 64
59 l23 36 40 -28 c21 -16 52 -31 68 -35 40 -9 96 18 120 57 19 31 20 46 18
256 l-3 224 -37 34 c-50 45 -97 46 -159 4 l-44 -30 -20 27 c-62 84 -88 91
-336 92 -199 1 -206 0 -255 -24z m459 -106 c12 -7 25 -17 29 -23 4 -6 8 -101
8 -210 0 -172 -2 -202 -17 -218 -15 -16 -35 -18 -221 -18 -177 0 -208 2 -224
17 -16 15 -18 35 -18 217 0 111 4 206 8 212 19 28 53 33 230 34 119 0 191 -4
205 -11z m275 -320 l-3 -90 -57 41 -58 41 0 98 0 97 58 41 57 40 3 -88 c1 -49
1 -130 0 -180z"/>
<path d="M1730 653 c-33 -12 -40 -37 -40 -135 l0 -98 -95 0 c-89 0 -98 -2
-121 -25 -18 -19 -23 -31 -19 -48 12 -40 33 -47 137 -47 l98 0 0 -104 c0 -97
2 -106 22 -120 30 -21 54 -20 78 4 17 17 20 33 20 120 l0 100 104 0 c97 0 106
2 120 22 23 32 20 54 -10 77 -23 18 -41 21 -120 21 l-94 0 0 99 c0 96 -1 100
-26 120 -28 22 -30 23 -54 14z"/>
</g>
</svg>
