<svg version="1.0" xmlns="http://www.w3.org/2000/svg" width="32px" height="" viewBox="0 0 250.000000 260.000000" preserveAspectRatio="xMidYMid meet">
<g transform="translate(0.000000,260.000000) scale(0.100000,-0.100000)" fill="#000000" stroke="none">
<path d="M538 1724 c-62 -19 -131 -88 -153 -153 -13 -42 -15 -97 -13 -392 3
-380 3 -379 71 -449 61 -63 90 -70 305 -70 145 0 194 3 197 13 2 6 6 33 10 60
l6 47 -191 0 c-296 0 -280 -24 -280 422 0 306 1 325 20 356 39 63 27 62 700
62 673 0 661 1 700 -62 18 -29 20 -50 20 -189 l0 -156 40 -18 c22 -10 45 -24
51 -32 6 -7 15 -13 20 -13 16 0 11 361 -6 418 -21 69 -88 136 -157 157 -74 22
-1268 21 -1340 -1z"/>
<path d="M1540 1130 c-213 -39 -385 -202 -435 -411 -66 -282 109 -571 392
-644 375 -98 739 247 659 623 -53 251 -246 419 -498 436 -40 3 -93 1 -118 -4z
m426 -298 c22 -15 34 -50 25 -74 -5 -13 -110 -123 -233 -245 -167 -167 -230
-223 -248 -223 -31 0 -250 216 -250 246 0 31 37 64 71 64 25 0 46 -14 105 -72
l74 -72 193 192 c164 163 198 192 223 192 16 0 34 -4 40 -8z"/>
<path d="M276 519 c-30 -23 -33 -45 -10 -77 l15 -22 340 0 340 0 -6 38 c-3 20
-8 47 -11 60 l-4 22 -319 0 c-307 0 -319 -1 -345 -21z"/>
</g>
</svg>