<svg  xmlns="http://www.w3.org/2000/svg" width="32px" height="32px" viewBox="0 0 250.000000 260.000000" preserveAspectRatio="xMidYMid meet">
  <g transform="translate(0.000000,260.000000) scale(0.100000,-0.100000)" fill="#000000" stroke="none">
  <path d="M463 1722 c-72 -26 -119 -59 -154 -112 -59 -88 -60 -101 -57 -617 l3
  -468 28 -57 c35 -71 88 -120 161 -147 54 -20 73 -21 471 -21 l415 0 0 60 0 60
  -405 0 c-342 0 -411 2 -442 15 -50 21 -72 42 -94 90 -17 37 -19 75 -19 491 l0
  450 26 51 c20 42 35 57 77 77 l51 26 686 0 686 0 51 -26 c42 -20 57 -35 77
  -77 25 -50 26 -56 26 -259 l0 -208 40 -52 c22 -29 49 -80 60 -113 l19 -60 -2
  340 -2 340 -26 55 c-33 70 -79 116 -149 149 l-55 26 -710 2 c-662 2 -714 1
  -762 -15z"/>
  <path d="M1750 1011 c-77 -24 -148 -90 -168 -160 -7 -21 -12 -72 -12 -113 l0
  -75 -50 -7 c-34 -5 -53 -13 -60 -26 -6 -11 -10 -121 -10 -278 0 -238 1 -260
  18 -275 17 -15 55 -17 340 -17 309 0 323 1 342 20 19 19 20 33 20 277 0 142
  -4 263 -8 270 -10 15 -57 33 -88 33 -23 0 -24 2 -24 75 0 107 -27 175 -91 225
  -63 50 -146 70 -209 51z m105 -125 c53 -23 75 -67 75 -153 l0 -73 -121 0 -121
  0 3 84 c4 92 17 117 74 142 39 17 48 17 90 0z m0 -420 c38 -16 75 -68 75 -104
  0 -38 -30 -92 -61 -107 -89 -46 -189 21 -176 117 6 45 29 75 72 94 39 17 48
  17 90 0z"/>
  </g>
</svg>