<svg  xmlns="http://www.w3.org/2000/svg" width="32px" height="32px" viewBox="0 0 250.000000 260.000000" preserveAspectRatio="xMidYMid meet">
  <g transform="translate(0.000000,260.000000) scale(0.100000,-0.100000)" fill="#000000" stroke="none">
  <path d="M1914 1956 c-40 -17 -314 -246 -502 -419 -213 -195 -465 -472 -637
  -699 -36 -48 -60 -69 -85 -77 -58 -17 -126 -66 -159 -115 -31 -44 -54 -121
  -66 -218 -8 -62 -35 -100 -125 -175 -90 -75 -104 -102 -71 -137 17 -18 44 -28
  109 -40 173 -32 342 -14 479 49 134 62 200 135 223 247 l13 63 206 210 c293
  298 449 489 709 864 146 209 169 256 157 320 -20 110 -145 173 -251 127z m121
  -127 c26 -28 19 -44 -115 -239 -242 -352 -411 -560 -674 -828 l-179 -182 -28
  49 c-30 52 -72 89 -134 120 l-37 18 102 124 c263 321 507 562 869 858 133 108
  161 119 196 80z m-1200 -1180 c108 -30 167 -174 116 -284 -51 -111 -214 -185
  -406 -185 -39 0 -75 3 -78 7 -4 3 12 26 34 50 54 58 75 108 93 221 20 125 41
  155 134 188 46 16 57 17 107 3z"/>
  </g>
</svg>