<svg version="1.0" xmlns="http://www.w3.org/2000/svg" width="32px" height="32px" viewBox="0 0 250.000000 260.000000" preserveAspectRatio="xMidYMid meet">
    <g transform="translate(0.000000,260.000000) scale(0.100000,-0.100000)" fill="#000000" stroke="none">
    <path d="M418 1724 c-30 -9 -63 -30 -92 -60 -76 -76 -76 -73 -76 -658 l0 -511
    24 -50 c25 -55 81 -110 132 -131 49 -21 1559 -21 1608 0 46 19 104 72 129 120
    22 40 22 48 25 560 3 597 4 593 -74 670 -78 79 -46 76 -888 75 -615 0 -749 -3
    -788 -15z m1557 -118 c19 -8 44 -30 55 -48 19 -32 20 -49 20 -536 0 -446 -2
    -508 -16 -538 -23 -49 -59 -64 -148 -64 l-75 0 -3 418 -3 418 -25 37 c-15 22
    -46 48 -74 62 l-50 25 -446 0 -446 0 -50 -25 c-28 -14 -59 -40 -74 -62 l-25
    -37 -3 -418 -3 -418 -77 0 c-85 1 -114 12 -143 56 -18 28 -19 52 -19 539 0
    494 1 511 20 543 39 63 12 61 818 62 616 0 738 -2 767 -14z m-311 -367 l26
    -20 0 -400 0 -399 -480 0 -480 0 0 399 0 400 26 20 c26 21 37 21 454 21 417 0
    428 0 454 -21z"/>
    <path d="M995 1126 c-31 -13 -55 -51 -55 -86 0 -10 12 -32 26 -49 54 -65 154
    -24 154 62 0 24 -40 77 -59 77 -5 0 -15 2 -23 5 -7 2 -27 -2 -43 -9z"/>
    <path d="M1360 1129 c-52 -20 -73 -75 -48 -122 17 -34 39 -46 80 -47 28 0 42
    7 62 31 14 17 26 39 26 50 0 36 -29 77 -61 88 -18 6 -32 11 -33 10 -1 0 -12
    -5 -26 -10z"/>
    <path d="M993 765 c-60 -26 -71 -89 -24 -136 20 -20 39 -29 61 -29 22 0 41 9
    61 29 48 48 36 111 -26 137 -40 16 -32 17 -72 -1z"/>
    <path d="M1353 765 c-60 -26 -71 -89 -24 -136 20 -20 39 -29 61 -29 22 0 41 9
    61 29 48 48 36 111 -26 137 -40 16 -32 17 -72 -1z"/>
    </g>
</svg>