<svg  xmlns="http://www.w3.org/2000/svg" width="32px" height="32px" viewBox="0 0 250.000000 260.000000"
 preserveAspectRatio="xMidYMid meet">
  <g transform="translate(0.000000,260.000000) scale(0.100000,-0.100000)" fill="#000000" stroke="none">
  <path d="M418 1724 c-30 -9 -63 -30 -92 -60 -76 -76 -76 -73 -76 -658 l0 -511
  24 -50 c25 -55 81 -110 132 -131 49 -21 1559 -21 1608 0 46 19 104 72 129 120
  22 40 22 48 25 560 3 597 4 593 -74 670 -78 79 -46 76 -888 75 -615 0 -749 -3
  -788 -15z m1557 -118 c19 -8 44 -30 55 -48 19 -32 20 -50 20 -405 l0 -373
  -840 0 -840 0 0 373 c0 355 1 373 20 405 39 63 12 61 818 62 616 0 738 -2 767
  -14z m75 -1017 c0 -83 -20 -133 -61 -154 -42 -22 -1516 -22 -1558 0 -41 21
  -61 71 -61 154 l0 71 840 0 840 0 0 -71z"/>
  </g>
</svg>